<svg xmlns="http://www.w3.org/2000/svg" xmlns:xlink="http://www.w3.org/1999/xlink" width="45" zoomAndPan="magnify" viewBox="0 0 33.75 33.749998" height="45" preserveAspectRatio="xMidYMid meet" version="1.0"><defs><clipPath id="c69c18947a"><path d="M 21 6 L 33.5 6 L 33.5 15 L 21 15 Z M 21 6 " clip-rule="nonzero"/></clipPath><clipPath id="1507f96804"><path d="M 11 2.050781 L 22 2.050781 L 22 18 L 11 18 Z M 11 2.050781 " clip-rule="nonzero"/></clipPath><clipPath id="290a0b24e2"><path d="M 11 19 L 23 19 L 23 30.34375 L 11 30.34375 Z M 11 19 " clip-rule="nonzero"/></clipPath><clipPath id="756adb5e65"><path d="M 15 28 L 19 28 L 19 30.34375 L 15 30.34375 Z M 15 28 " clip-rule="nonzero"/></clipPath><clipPath id="79f2220403"><path d="M 23 23 L 30 23 L 30 30.34375 L 23 30.34375 Z M 23 23 " clip-rule="nonzero"/></clipPath><clipPath id="9bdaa6c52a"><path d="M 25 29 L 28 29 L 28 30.34375 L 25 30.34375 Z M 25 29 " clip-rule="nonzero"/></clipPath><clipPath id="52f10102f4"><path d="M 3 23 L 11 23 L 11 30.34375 L 3 30.34375 Z M 3 23 " clip-rule="nonzero"/></clipPath><clipPath id="b79c134a4e"><path d="M 6 29 L 8 29 L 8 30.34375 L 6 30.34375 Z M 6 29 " clip-rule="nonzero"/></clipPath></defs><g clip-path="url(#c69c18947a)"><path fill="#ffffff" d="M 33.488281 8.433594 L 33.488281 6.800781 L 32.945312 7.277344 L 32.402344 8.523438 L 21.585938 9.453125 L 21.582031 9.460938 C 21.609375 9.542969 21.632812 9.632812 21.65625 9.722656 C 21.8125 10.339844 21.890625 11.058594 21.890625 11.855469 C 21.890625 12.695312 21.71875 13.554688 21.398438 14.355469 L 22.613281 13.902344 C 22.566406 13.742188 22.546875 13.582031 22.546875 13.417969 C 22.546875 12.433594 23.347656 11.628906 24.332031 11.628906 C 24.679688 11.628906 24.996094 11.722656 25.289062 11.910156 C 25.582031 12.09375 25.800781 12.34375 25.949219 12.65625 L 27.105469 12.226562 C 27.074219 11.988281 27.121094 11.765625 27.246094 11.558594 C 27.371094 11.351562 27.546875 11.207031 27.773438 11.121094 C 27.996094 11.035156 28.226562 11.03125 28.457031 11.105469 C 28.683594 11.179688 28.867188 11.316406 29 11.519531 L 33.488281 9.847656 Z M 33.488281 8.433594 " fill-opacity="1" fill-rule="nonzero"/></g><path fill="#ffffff" d="M 24.332031 14.835938 C 24.53125 14.835938 24.722656 14.796875 24.902344 14.714844 C 25.085938 14.636719 25.242188 14.523438 25.375 14.375 C 25.511719 14.230469 25.609375 14.0625 25.671875 13.875 C 25.738281 13.6875 25.761719 13.496094 25.746094 13.296875 C 25.726562 13.101562 25.671875 12.914062 25.578125 12.738281 C 25.480469 12.566406 25.355469 12.417969 25.199219 12.296875 C 25.042969 12.175781 24.867188 12.089844 24.675781 12.042969 C 24.484375 11.996094 24.289062 11.988281 24.09375 12.019531 C 23.898438 12.054688 23.71875 12.125 23.550781 12.234375 C 23.386719 12.34375 23.25 12.480469 23.140625 12.648438 C 23.035156 12.8125 22.964844 12.996094 22.933594 13.191406 C 22.902344 13.386719 22.910156 13.582031 22.960938 13.773438 C 23.039062 14.085938 23.207031 14.339844 23.464844 14.539062 C 23.71875 14.738281 24.007812 14.835938 24.332031 14.835938 Z M 23.441406 13.417969 C 23.441406 13.261719 23.476562 13.117188 23.554688 12.984375 C 23.628906 12.847656 23.730469 12.742188 23.863281 12.660156 C 23.992188 12.578125 24.136719 12.53125 24.289062 12.527344 C 24.445312 12.519531 24.589844 12.550781 24.730469 12.617188 C 24.867188 12.6875 24.980469 12.785156 25.066406 12.910156 C 25.15625 13.039062 25.207031 13.179688 25.222656 13.332031 C 25.234375 13.484375 25.210938 13.632812 25.152344 13.773438 C 25.089844 13.914062 24.996094 14.03125 24.875 14.125 C 24.75 14.21875 24.613281 14.277344 24.460938 14.300781 C 24.308594 14.320312 24.160156 14.304688 24.015625 14.25 C 23.871094 14.195312 23.75 14.109375 23.648438 13.992188 C 23.550781 13.871094 23.488281 13.738281 23.457031 13.585938 C 23.445312 13.53125 23.441406 13.472656 23.441406 13.417969 Z M 23.441406 13.417969 " fill-opacity="1" fill-rule="nonzero"/><path fill="#ffffff" d="M 24.332031 13.941406 C 24.476562 13.941406 24.601562 13.890625 24.703125 13.789062 C 24.804688 13.683594 24.855469 13.5625 24.855469 13.417969 C 24.855469 13.273438 24.804688 13.148438 24.703125 13.046875 C 24.601562 12.945312 24.476562 12.890625 24.332031 12.890625 C 24.1875 12.890625 24.066406 12.945312 23.960938 13.046875 C 23.859375 13.148438 23.808594 13.273438 23.808594 13.417969 C 23.808594 13.429688 23.808594 13.441406 23.808594 13.457031 C 23.820312 13.59375 23.875 13.707031 23.976562 13.800781 C 24.078125 13.894531 24.195312 13.941406 24.332031 13.941406 Z M 24.332031 13.941406 " fill-opacity="1" fill-rule="nonzero"/><path fill="#ffffff" d="M 28.136719 12.769531 C 28.320312 12.769531 28.480469 12.703125 28.609375 12.570312 C 28.742188 12.441406 28.808594 12.28125 28.808594 12.097656 C 28.808594 11.910156 28.742188 11.753906 28.613281 11.621094 C 28.480469 11.492188 28.324219 11.425781 28.136719 11.421875 C 27.953125 11.421875 27.792969 11.488281 27.664062 11.617188 C 27.53125 11.75 27.464844 11.90625 27.464844 12.09375 L 27.464844 12.097656 C 27.464844 12.28125 27.53125 12.441406 27.660156 12.570312 C 27.792969 12.703125 27.949219 12.769531 28.136719 12.769531 Z M 28.136719 12.769531 " fill-opacity="1" fill-rule="nonzero"/><path fill="#ffffff" d="M 12.101562 14.355469 C 11.78125 13.554688 11.609375 12.695312 11.609375 11.855469 C 11.609375 10.929688 11.707031 10.132812 11.902344 9.453125 L 1.097656 8.523438 L 0.554688 7.277344 L 0.015625 6.800781 L 0.015625 9.847656 L 4.5 11.519531 C 4.632812 11.320312 4.816406 11.179688 5.046875 11.105469 C 5.273438 11.03125 5.503906 11.039062 5.730469 11.121094 C 5.957031 11.207031 6.128906 11.351562 6.253906 11.558594 C 6.378906 11.765625 6.425781 11.988281 6.398438 12.226562 L 7.550781 12.65625 C 7.699219 12.34375 7.917969 12.09375 8.210938 11.910156 C 8.503906 11.722656 8.820312 11.632812 9.167969 11.628906 C 10.152344 11.628906 10.953125 12.433594 10.953125 13.417969 C 10.953125 13.582031 10.933594 13.742188 10.886719 13.902344 Z M 12.101562 14.355469 " fill-opacity="1" fill-rule="nonzero"/><path fill="#ffffff" d="M 9.167969 12 C 8.980469 12 8.796875 12.035156 8.625 12.105469 C 8.449219 12.179688 8.296875 12.28125 8.164062 12.414062 C 8.03125 12.546875 7.925781 12.699219 7.855469 12.875 C 7.78125 13.046875 7.746094 13.230469 7.746094 13.417969 C 7.746094 13.605469 7.78125 13.785156 7.855469 13.960938 C 7.925781 14.136719 8.03125 14.289062 8.164062 14.421875 C 8.296875 14.554688 8.449219 14.65625 8.625 14.730469 C 8.796875 14.800781 8.980469 14.835938 9.167969 14.835938 C 9.355469 14.835938 9.535156 14.800781 9.710938 14.730469 C 9.882812 14.65625 10.039062 14.554688 10.171875 14.421875 C 10.304688 14.289062 10.40625 14.132812 10.480469 13.960938 C 10.550781 13.785156 10.585938 13.605469 10.585938 13.417969 C 10.585938 13.230469 10.550781 13.046875 10.476562 12.875 C 10.40625 12.699219 10.304688 12.546875 10.171875 12.414062 C 10.039062 12.28125 9.882812 12.179688 9.710938 12.105469 C 9.535156 12.035156 9.355469 12 9.167969 12 Z M 9.167969 14.308594 C 9.042969 14.308594 8.925781 14.285156 8.8125 14.234375 C 8.699219 14.1875 8.601562 14.117188 8.515625 14.027344 C 8.433594 13.9375 8.371094 13.835938 8.328125 13.71875 C 8.285156 13.601562 8.269531 13.484375 8.277344 13.359375 C 8.285156 13.238281 8.316406 13.121094 8.375 13.011719 C 8.429688 12.902344 8.503906 12.808594 8.601562 12.730469 C 8.695312 12.648438 8.800781 12.59375 8.921875 12.558594 C 9.039062 12.527344 9.160156 12.515625 9.28125 12.53125 C 9.402344 12.546875 9.519531 12.585938 9.625 12.652344 C 9.730469 12.714844 9.820312 12.796875 9.890625 12.894531 C 9.964844 12.996094 10.011719 13.105469 10.039062 13.226562 C 10.066406 13.34375 10.066406 13.464844 10.042969 13.585938 C 10.003906 13.796875 9.898438 13.96875 9.734375 14.105469 C 9.570312 14.242188 9.382812 14.308594 9.167969 14.308594 Z M 9.167969 14.308594 " fill-opacity="1" fill-rule="nonzero"/><path fill="#ffffff" d="M 9.167969 12.890625 C 9.023438 12.890625 8.902344 12.941406 8.800781 13.042969 C 8.699219 13.140625 8.648438 13.261719 8.644531 13.402344 C 8.640625 13.546875 8.6875 13.667969 8.785156 13.773438 C 8.878906 13.878906 9 13.933594 9.140625 13.941406 C 9.285156 13.949219 9.410156 13.902344 9.515625 13.808594 C 9.621094 13.714844 9.679688 13.597656 9.691406 13.457031 C 9.691406 13.441406 9.691406 13.429688 9.691406 13.417969 C 9.691406 13.273438 9.640625 13.148438 9.539062 13.046875 C 9.4375 12.945312 9.3125 12.894531 9.167969 12.890625 Z M 9.167969 12.890625 " fill-opacity="1" fill-rule="nonzero"/><path fill="#ffffff" d="M 6.035156 12.097656 L 6.035156 12.09375 C 6.035156 11.972656 6.007812 11.859375 5.945312 11.757812 C 5.886719 11.652344 5.804688 11.570312 5.699219 11.511719 C 5.59375 11.449219 5.480469 11.417969 5.363281 11.421875 C 5.242188 11.421875 5.128906 11.449219 5.023438 11.511719 C 4.921875 11.570312 4.839844 11.652344 4.777344 11.757812 C 4.71875 11.863281 4.6875 11.972656 4.6875 12.09375 C 4.6875 12.214844 4.71875 12.328125 4.777344 12.429688 C 4.839844 12.535156 4.921875 12.617188 5.023438 12.679688 C 5.128906 12.738281 5.242188 12.769531 5.363281 12.769531 C 5.480469 12.769531 5.59375 12.738281 5.699219 12.679688 C 5.804688 12.617188 5.886719 12.535156 5.945312 12.433594 C 6.007812 12.328125 6.035156 12.214844 6.035156 12.097656 Z M 6.035156 12.097656 " fill-opacity="1" fill-rule="nonzero"/><path fill="#ffffff" d="M 16.566406 10.484375 C 15.554688 10.46875 14.558594 10.347656 13.574219 10.121094 L 13.085938 12.070312 C 13.667969 12.5 14.820312 13.136719 16.566406 13.179688 Z M 16.566406 10.484375 " fill-opacity="1" fill-rule="nonzero"/><path fill="#ffffff" d="M 19.925781 10.121094 C 18.941406 10.347656 17.945312 10.46875 16.933594 10.484375 L 16.933594 13.179688 C 18.726562 13.136719 19.90625 12.445312 20.414062 12.070312 Z M 19.925781 10.121094 " fill-opacity="1" fill-rule="nonzero"/><g clip-path="url(#1507f96804)"><path fill="#ffffff" d="M 12.578125 14.53125 C 12.796875 15.003906 13.066406 15.445312 13.390625 15.855469 C 14.320312 17.027344 15.515625 17.671875 16.75 17.671875 C 17.984375 17.671875 19.179688 17.027344 20.113281 15.855469 C 20.433594 15.445312 20.703125 15.003906 20.921875 14.53125 C 21.3125 13.6875 21.523438 12.761719 21.523438 11.855469 C 21.523438 11.207031 21.472656 10.625 21.367188 10.105469 C 21.210938 9.324219 20.9375 8.6875 20.535156 8.171875 C 20.03125 7.523438 19.316406 7.082031 18.394531 6.855469 L 18.691406 6.742188 L 18.96875 6.640625 L 21.234375 5.796875 L 21.234375 5.082031 L 17.777344 5.082031 L 17.277344 2.050781 L 16.222656 2.050781 L 15.722656 5.082031 L 12.265625 5.082031 L 12.265625 5.796875 L 14.511719 6.632812 L 14.789062 6.734375 L 15.085938 6.847656 C 14.144531 7.070312 13.433594 7.507812 12.925781 8.171875 C 12.542969 8.671875 12.277344 9.304688 12.128906 10.085938 C 12.027344 10.609375 11.976562 11.195312 11.976562 11.855469 C 11.976562 12.761719 12.1875 13.6875 12.578125 14.53125 Z M 13.308594 9.675781 L 13.484375 9.71875 C 14.53125 9.976562 15.589844 10.109375 16.667969 10.117188 C 17.800781 10.121094 18.914062 9.992188 20.015625 9.71875 L 20.191406 9.675781 L 20.753906 11.925781 L 20.828125 12.214844 L 20.734375 12.289062 C 20.691406 12.324219 20.644531 12.359375 20.597656 12.390625 C 20.25 12.644531 19.835938 12.871094 19.402344 13.046875 C 18.585938 13.382812 17.695312 13.550781 16.753906 13.550781 L 16.675781 13.550781 C 15.742188 13.539062 14.863281 13.367188 14.058594 13.035156 C 13.648438 12.863281 13.261719 12.648438 12.898438 12.390625 C 12.851562 12.359375 12.808594 12.324219 12.761719 12.289062 L 12.667969 12.214844 L 12.742188 11.925781 Z M 13.308594 9.675781 " fill-opacity="1" fill-rule="nonzero"/></g><g clip-path="url(#290a0b24e2)"><path fill="#ffffff" d="M 18.515625 24.875 C 18.515625 25.050781 18.429688 25.167969 18.261719 25.222656 C 18.09375 25.277344 17.957031 25.234375 17.851562 25.089844 L 16.75 23.597656 L 15.648438 25.09375 C 15.542969 25.234375 15.40625 25.277344 15.238281 25.222656 C 15.070312 25.167969 14.984375 25.050781 14.984375 24.875 L 14.984375 19.601562 L 11.074219 19.601562 L 11.074219 30.144531 L 15.015625 30.144531 L 15.015625 28.429688 C 15.015625 28.328125 15.050781 28.242188 15.121094 28.167969 C 15.195312 28.097656 15.28125 28.0625 15.382812 28.0625 L 18.117188 28.0625 C 18.21875 28.0625 18.304688 28.097656 18.378906 28.167969 C 18.449219 28.242188 18.484375 28.328125 18.484375 28.429688 L 18.484375 30.144531 L 22.425781 30.144531 L 22.425781 19.601562 L 18.515625 19.601562 Z M 18.515625 24.875 " fill-opacity="1" fill-rule="nonzero"/></g><path fill="#ffffff" d="M 15.351562 24.875 L 16.75 22.980469 L 18.148438 24.875 L 18.148438 19.601562 L 15.351562 19.601562 Z M 15.351562 24.875 " fill-opacity="1" fill-rule="nonzero"/><g clip-path="url(#756adb5e65)"><path fill="#ffffff" d="M 15.382812 28.429688 L 18.117188 28.429688 L 18.117188 30.144531 L 15.382812 30.144531 Z M 15.382812 28.429688 " fill-opacity="1" fill-rule="nonzero"/></g><g clip-path="url(#79f2220403)"><path fill="#ffffff" d="M 27.730469 26.914062 C 27.730469 27.089844 27.648438 27.207031 27.476562 27.261719 C 27.308594 27.316406 27.171875 27.273438 27.066406 27.128906 L 26.507812 26.371094 L 25.945312 27.128906 C 25.839844 27.273438 25.703125 27.316406 25.535156 27.261719 C 25.367188 27.207031 25.28125 27.089844 25.28125 26.914062 L 25.28125 23.679688 L 23.027344 23.679688 L 23.027344 30.144531 L 25.300781 30.144531 L 25.300781 29.09375 C 25.300781 28.992188 25.335938 28.902344 25.40625 28.832031 C 25.480469 28.761719 25.566406 28.722656 25.667969 28.722656 L 27.34375 28.722656 C 27.445312 28.722656 27.535156 28.761719 27.605469 28.832031 C 27.675781 28.902344 27.710938 28.992188 27.710938 29.09375 L 27.710938 30.144531 L 29.984375 30.144531 L 29.984375 23.679688 L 27.730469 23.679688 Z M 27.730469 26.914062 " fill-opacity="1" fill-rule="nonzero"/></g><path fill="#ffffff" d="M 26.507812 25.75 L 27.363281 26.914062 L 27.363281 23.679688 L 25.648438 23.679688 L 25.648438 26.914062 Z M 26.507812 25.75 " fill-opacity="1" fill-rule="nonzero"/><g clip-path="url(#9bdaa6c52a)"><path fill="#ffffff" d="M 25.667969 29.09375 L 27.34375 29.09375 L 27.34375 30.144531 L 25.667969 30.144531 Z M 25.667969 29.09375 " fill-opacity="1" fill-rule="nonzero"/></g><g clip-path="url(#52f10102f4)"><path fill="#ffffff" d="M 8.25 26.914062 C 8.25 27.089844 8.167969 27.207031 8 27.261719 C 7.832031 27.316406 7.695312 27.273438 7.589844 27.128906 L 7.027344 26.371094 L 6.464844 27.128906 C 6.359375 27.273438 6.222656 27.316406 6.054688 27.261719 C 5.886719 27.207031 5.800781 27.089844 5.800781 26.914062 L 5.800781 23.679688 L 3.546875 23.679688 L 3.546875 30.144531 L 5.820312 30.144531 L 5.820312 29.09375 C 5.820312 28.992188 5.855469 28.902344 5.929688 28.832031 C 6 28.761719 6.085938 28.722656 6.1875 28.722656 L 7.867188 28.722656 C 7.96875 28.722656 8.054688 28.761719 8.125 28.832031 C 8.199219 28.902344 8.234375 28.992188 8.234375 29.09375 L 8.234375 30.144531 L 10.507812 30.144531 L 10.507812 23.679688 L 8.25 23.679688 Z M 8.25 26.914062 " fill-opacity="1" fill-rule="nonzero"/></g><path fill="#ffffff" d="M 7.882812 26.914062 L 7.882812 23.679688 L 6.167969 23.679688 L 6.167969 26.914062 L 7.027344 25.75 Z M 7.882812 26.914062 " fill-opacity="1" fill-rule="nonzero"/><g clip-path="url(#b79c134a4e)"><path fill="#ffffff" d="M 6.1875 29.09375 L 7.867188 29.09375 L 7.867188 30.144531 L 6.1875 30.144531 Z M 6.1875 29.09375 " fill-opacity="1" fill-rule="nonzero"/></g></svg>