<svg xmlns="http://www.w3.org/2000/svg" xmlns:xlink="http://www.w3.org/1999/xlink" width="45" zoomAndPan="magnify" viewBox="0 0 33.75 33.749998" height="45" preserveAspectRatio="xMidYMid meet" version="1.0"><defs><clipPath id="43066aeed0"><path d="M 0 0 L 33.5 0 L 33.5 33.5 L 0 33.5 Z M 0 0 " clip-rule="nonzero"/></clipPath></defs><path fill="#ffffff" d="M 17.308594 1.675781 L 22.335938 1.675781 L 22.335938 3.75 C 22.335938 4 22.5 4.21875 22.738281 4.289062 C 23.425781 4.488281 24.082031 4.757812 24.683594 5.089844 C 24.898438 5.207031 25.171875 5.171875 25.347656 4.996094 L 26.8125 3.53125 L 29.96875 6.691406 L 28.507812 8.152344 C 28.332031 8.328125 28.292969 8.601562 28.414062 8.816406 C 28.746094 9.421875 29.015625 10.074219 29.214844 10.765625 C 29.285156 11.003906 29.5 11.167969 29.75 11.167969 L 32.386719 11.167969 C 32.691406 11.167969 32.945312 10.917969 32.945312 10.609375 C 32.945312 10.300781 32.691406 10.050781 32.386719 10.050781 L 30.164062 10.050781 C 30 9.566406 29.808594 9.097656 29.585938 8.652344 L 31.15625 7.085938 C 31.375 6.867188 31.375 6.511719 31.15625 6.292969 L 27.207031 2.347656 C 26.988281 2.125 26.636719 2.125 26.417969 2.347656 L 24.847656 3.914062 C 24.402344 3.691406 23.933594 3.5 23.453125 3.339844 L 23.453125 1.117188 C 23.453125 0.808594 23.199219 0.558594 22.894531 0.558594 L 17.308594 0.558594 C 17 0.558594 16.75 0.808594 16.75 1.117188 C 16.75 1.425781 17 1.675781 17.308594 1.675781 " fill-opacity="1" fill-rule="nonzero"/><path fill="#ffffff" d="M 21.941406 16.585938 C 22.050781 16.695312 22.191406 16.75 22.335938 16.75 C 22.476562 16.75 22.621094 16.695312 22.730469 16.585938 C 22.949219 16.371094 22.949219 16.015625 22.730469 15.796875 L 17.617188 10.691406 C 17.402344 10.472656 17.046875 10.472656 16.832031 10.691406 C 16.613281 10.90625 16.613281 11.257812 16.832031 11.476562 L 21.941406 16.585938 " fill-opacity="1" fill-rule="nonzero"/><path fill="#ffffff" d="M 11.726562 29.59375 C 11.726562 29.285156 11.976562 29.035156 12.285156 29.035156 C 12.589844 29.035156 12.84375 29.285156 12.84375 29.59375 C 12.84375 29.902344 12.589844 30.152344 12.285156 30.152344 C 11.976562 30.152344 11.726562 29.902344 11.726562 29.59375 Z M 13.960938 29.59375 C 13.960938 28.667969 13.207031 27.917969 12.285156 27.917969 C 11.359375 27.917969 10.609375 28.667969 10.609375 29.59375 C 10.609375 30.519531 11.359375 31.269531 12.285156 31.269531 C 13.207031 31.269531 13.960938 30.519531 13.960938 29.59375 " fill-opacity="1" fill-rule="nonzero"/><g clip-path="url(#43066aeed0)"><path fill="#ffffff" d="M 26.800781 32.386719 C 25.261719 32.386719 24.007812 31.132812 24.007812 29.59375 C 24.007812 28.054688 25.261719 26.800781 26.800781 26.800781 C 28.339844 26.800781 29.59375 28.054688 29.59375 29.59375 C 29.59375 31.132812 28.339844 32.386719 26.800781 32.386719 Z M 10.230469 20.113281 L 11.695312 18.648438 C 11.871094 18.472656 11.910156 18.199219 11.789062 17.984375 C 11.457031 17.382812 11.1875 16.726562 10.988281 16.039062 C 10.917969 15.796875 10.699219 15.632812 10.453125 15.632812 L 8.375 15.632812 L 8.375 11.167969 L 9.421875 11.167969 C 10.171875 11.871094 11.128906 12.226562 12.09375 12.226562 C 12.535156 12.226562 12.976562 12.148438 13.398438 12 L 20.371094 18.96875 C 20.28125 18.972656 20.191406 18.984375 20.101562 18.984375 C 17.613281 18.984375 15.402344 17.316406 14.726562 14.921875 C 14.640625 14.625 14.332031 14.453125 14.039062 14.539062 C 13.742188 14.621094 13.570312 14.929688 13.652344 15.226562 C 14.097656 16.804688 15.101562 18.117188 16.414062 18.984375 L 13.960938 18.984375 C 13.746094 18.984375 13.554688 19.105469 13.460938 19.292969 L 12.109375 21.992188 Z M 17.222656 8.714844 C 17.363281 8.578125 17.480469 8.433594 17.589844 8.285156 L 25.125 15.824219 C 24.449219 17.226562 23.214844 18.285156 21.71875 18.734375 L 14.429688 11.449219 C 14.578125 11.335938 14.71875 11.21875 14.855469 11.082031 Z M 25.683594 13.402344 C 25.683594 13.832031 25.632812 14.25 25.539062 14.660156 L 18.847656 7.964844 C 19.253906 7.871094 19.671875 7.816406 20.101562 7.816406 C 23.179688 7.816406 25.683594 10.320312 25.683594 13.402344 Z M 28.226562 23.453125 L 12.628906 23.453125 L 14.304688 20.101562 L 20.101562 20.101562 L 20.101562 21.777344 C 20.101562 22.082031 20.351562 22.335938 20.660156 22.335938 C 20.96875 22.335938 21.21875 22.082031 21.21875 21.777344 L 21.21875 20.101562 L 26.972656 20.101562 Z M 5.582031 26.800781 C 5.582031 27.109375 5.332031 27.359375 5.023438 27.359375 L 4.46875 27.359375 L 4.46875 26.585938 C 4.46875 26.324219 4.652344 26.097656 4.90625 26.042969 L 5.582031 25.894531 Z M 33.164062 25.171875 L 29.472656 23.589844 L 29.089844 22.570312 L 31.15625 20.507812 C 31.375 20.289062 31.375 19.933594 31.15625 19.71875 L 29.585938 18.148438 C 29.808594 17.703125 30 17.234375 30.164062 16.75 L 32.386719 16.75 C 32.691406 16.75 32.945312 16.5 32.945312 16.191406 L 32.945312 12.84375 C 32.945312 12.535156 32.691406 12.285156 32.386719 12.285156 C 32.078125 12.285156 31.828125 12.535156 31.828125 12.84375 L 31.828125 15.632812 L 29.75 15.632812 C 29.5 15.632812 29.285156 15.796875 29.214844 16.039062 C 29.015625 16.726562 28.746094 17.382812 28.414062 17.984375 C 28.292969 18.199219 28.332031 18.472656 28.507812 18.648438 L 29.96875 20.113281 L 28.660156 21.421875 L 27.882812 19.347656 C 27.800781 19.128906 27.59375 18.984375 27.359375 18.984375 L 23.800781 18.984375 C 24.914062 18.246094 25.800781 17.1875 26.3125 15.917969 C 26.636719 15.125 26.800781 14.28125 26.800781 13.402344 C 26.800781 9.707031 23.796875 6.699219 20.101562 6.699219 C 19.457031 6.699219 18.832031 6.789062 18.230469 6.964844 C 18.582031 5.660156 18.246094 4.210938 17.222656 3.1875 L 14.855469 0.816406 C 14.328125 0.289062 13.628906 0 12.882812 0 C 12.136719 0 11.4375 0.289062 10.90625 0.816406 L 10.117188 1.609375 C 9.898438 1.824219 9.898438 2.179688 10.117188 2.398438 L 11.167969 3.445312 C 11.386719 3.664062 11.738281 3.664062 11.957031 3.445312 C 12.175781 3.226562 12.175781 2.875 11.957031 2.65625 L 11.300781 2.003906 L 11.699219 1.609375 C 12.332031 0.976562 13.433594 0.976562 14.066406 1.609375 L 16.433594 3.976562 C 17.523438 5.066406 17.523438 6.835938 16.433594 7.925781 L 14.066406 10.292969 C 12.976562 11.382812 11.207031 11.382812 10.117188 10.292969 L 7.75 7.925781 C 7.433594 7.609375 7.257812 7.1875 7.257812 6.738281 C 7.257812 6.292969 7.433594 5.871094 7.75 5.554688 L 8.144531 5.160156 L 10.90625 7.925781 C 11.5625 8.578125 12.625 8.574219 13.277344 7.925781 L 14.066406 7.132812 C 14.71875 6.480469 14.71875 5.421875 14.066406 4.765625 L 13.535156 4.234375 C 13.316406 4.019531 12.964844 4.019531 12.746094 4.234375 C 12.527344 4.453125 12.527344 4.808594 12.746094 5.023438 L 13.277344 5.554688 C 13.496094 5.773438 13.496094 6.125 13.277344 6.34375 L 12.488281 7.132812 C 12.269531 7.351562 11.914062 7.351562 11.699219 7.132812 L 8.539062 3.976562 C 8.433594 3.871094 8.292969 3.8125 8.144531 3.8125 C 7.996094 3.8125 7.855469 3.871094 7.75 3.976562 L 6.960938 4.765625 C 6.433594 5.292969 6.140625 5.992188 6.140625 6.738281 C 6.140625 7.484375 6.433594 8.1875 6.960938 8.714844 L 8.292969 10.050781 L 7.816406 10.050781 C 7.507812 10.050781 7.257812 10.300781 7.257812 10.609375 L 7.257812 12.074219 C 6.75 12.230469 6.253906 12.417969 5.78125 12.671875 L 4.753906 11.644531 C 4.535156 11.425781 4.183594 11.425781 3.964844 11.644531 L 1.59375 14.015625 C 1.375 14.234375 1.375 14.585938 1.59375 14.804688 L 2.621094 15.832031 C 2.367188 16.304688 2.160156 16.800781 2.007812 17.308594 L 0.558594 17.308594 C 0.25 17.308594 0 17.558594 0 17.867188 L 0 21.21875 C 0 21.523438 0.25 21.777344 0.558594 21.777344 L 2.007812 21.777344 C 2.160156 22.285156 2.367188 22.78125 2.621094 23.253906 L 1.59375 24.28125 C 1.375 24.5 1.375 24.851562 1.59375 25.070312 C 1.703125 25.179688 1.84375 25.234375 1.988281 25.234375 C 2.132812 25.234375 2.273438 25.179688 2.382812 25.070312 L 3.710938 23.738281 C 3.894531 23.558594 3.929688 23.273438 3.792969 23.050781 C 3.421875 22.445312 3.144531 21.78125 2.976562 21.085938 C 2.917969 20.835938 2.695312 20.660156 2.433594 20.660156 L 1.117188 20.660156 L 1.117188 18.425781 L 2.433594 18.425781 C 2.695312 18.425781 2.917969 18.25 2.976562 18 C 3.144531 17.304688 3.421875 16.640625 3.792969 16.035156 C 3.929688 15.8125 3.894531 15.527344 3.710938 15.347656 L 2.777344 14.410156 L 4.359375 12.828125 L 5.296875 13.761719 C 5.476562 13.945312 5.761719 13.980469 5.984375 13.84375 C 6.386719 13.59375 6.816406 13.394531 7.257812 13.238281 L 7.257812 15.6875 C 5.875 16.484375 5.023438 17.921875 5.023438 19.542969 C 5.023438 21.125 5.835938 22.558594 7.1875 23.371094 C 7.277344 23.425781 7.378906 23.453125 7.476562 23.453125 C 7.664062 23.453125 7.851562 23.355469 7.953125 23.179688 C 8.113281 22.917969 8.027344 22.574219 7.765625 22.414062 C 6.75 21.800781 6.140625 20.730469 6.140625 19.542969 C 6.140625 18.378906 6.726562 17.332031 7.6875 16.726562 C 7.730469 16.734375 7.769531 16.75 7.816406 16.75 L 10.039062 16.75 C 10.199219 17.234375 10.394531 17.703125 10.617188 18.148438 L 9.046875 19.71875 C 8.828125 19.933594 8.828125 20.289062 9.046875 20.507812 L 11.582031 23.046875 L 11.347656 23.519531 L 4.675781 24.949219 C 3.90625 25.113281 3.351562 25.800781 3.351562 26.585938 L 3.351562 30.152344 C 3.351562 30.460938 3.601562 30.710938 3.910156 30.710938 L 8.539062 30.710938 C 9.019531 32.320312 10.515625 33.5 12.285156 33.5 C 14.4375 33.5 16.191406 31.75 16.191406 29.59375 C 16.191406 27.4375 14.4375 25.683594 12.285156 25.683594 C 11.703125 25.683594 11.132812 25.8125 10.601562 26.070312 C 10.324219 26.203125 10.207031 26.535156 10.339844 26.816406 C 10.472656 27.089844 10.804688 27.210938 11.085938 27.078125 C 11.464844 26.894531 11.871094 26.800781 12.285156 26.800781 C 13.824219 26.800781 15.074219 28.054688 15.074219 29.59375 C 15.074219 31.132812 13.824219 32.386719 12.285156 32.386719 C 10.746094 32.386719 9.492188 31.132812 9.492188 29.59375 C 9.492188 29.179688 9.582031 28.773438 9.765625 28.390625 C 9.898438 28.113281 9.78125 27.78125 9.503906 27.648438 C 9.226562 27.515625 8.890625 27.632812 8.757812 27.910156 C 8.503906 28.445312 8.375 29.011719 8.375 29.59375 L 4.46875 29.59375 L 4.46875 28.476562 L 5.023438 28.476562 C 5.949219 28.476562 6.699219 27.726562 6.699219 26.800781 L 6.699219 25.660156 L 11.785156 24.566406 L 28.921875 24.566406 L 32.386719 26.054688 L 32.386719 26.242188 L 31.828125 26.242188 C 31.519531 26.242188 31.269531 26.492188 31.269531 26.800781 C 31.269531 27.109375 31.519531 27.359375 31.828125 27.359375 L 32.386719 27.359375 L 32.386719 29.59375 L 30.710938 29.59375 C 30.710938 27.4375 28.957031 25.683594 26.800781 25.683594 C 24.648438 25.683594 22.894531 27.4375 22.894531 29.59375 L 17.816406 29.59375 C 17.507812 29.59375 17.257812 29.84375 17.257812 30.152344 C 17.257812 30.460938 17.507812 30.710938 17.816406 30.710938 L 23.054688 30.710938 C 23.539062 32.320312 25.035156 33.5 26.800781 33.5 C 28.566406 33.5 30.0625 32.320312 30.546875 30.710938 L 32.945312 30.710938 C 33.25 30.710938 33.5 30.460938 33.5 30.152344 L 33.5 25.683594 C 33.5 25.460938 33.367188 25.257812 33.164062 25.171875 " fill-opacity="1" fill-rule="nonzero"/></g><path fill="#ffffff" d="M 26.800781 30.152344 C 26.492188 30.152344 26.242188 29.902344 26.242188 29.59375 C 26.242188 29.285156 26.492188 29.035156 26.800781 29.035156 C 27.109375 29.035156 27.359375 29.285156 27.359375 29.59375 C 27.359375 29.902344 27.109375 30.152344 26.800781 30.152344 Z M 26.800781 27.917969 C 25.875 27.917969 25.125 28.667969 25.125 29.59375 C 25.125 30.519531 25.875 31.269531 26.800781 31.269531 C 27.726562 31.269531 28.476562 30.519531 28.476562 29.59375 C 28.476562 28.667969 27.726562 27.917969 26.800781 27.917969 " fill-opacity="1" fill-rule="nonzero"/><path fill="#ffffff" d="M 19.542969 26.800781 C 19.851562 26.800781 20.101562 26.550781 20.101562 26.242188 C 20.101562 25.9375 19.851562 25.683594 19.542969 25.683594 L 18.425781 25.683594 C 18.117188 25.683594 17.867188 25.9375 17.867188 26.242188 C 17.867188 26.550781 18.117188 26.800781 18.425781 26.800781 L 19.542969 26.800781 " fill-opacity="1" fill-rule="nonzero"/></svg>