<svg xmlns="http://www.w3.org/2000/svg" xmlns:xlink="http://www.w3.org/1999/xlink" width="45" zoomAndPan="magnify" viewBox="0 0 33.75 33.749998" height="45" preserveAspectRatio="xMidYMid meet" version="1.0"><defs><clipPath id="49bb32daa9"><path d="M 0.402344 1.117188 L 33.160156 1.117188 L 33.160156 32.386719 L 0.402344 32.386719 Z M 0.402344 1.117188 " clip-rule="nonzero"/></clipPath></defs><g clip-path="url(#49bb32daa9)"><path fill="#ffffff" d="M 5.808594 27.855469 C 5.789062 27.632812 5.9375 27.441406 6.160156 27.421875 C 6.382812 27.402344 6.570312 27.554688 6.59375 27.773438 C 6.613281 27.996094 6.460938 28.1875 6.242188 28.207031 C 6.03125 28.226562 5.828125 28.066406 5.808594 27.855469 Z M 14.285156 25.796875 L 14.15625 25.453125 C 14.09375 25.554688 14.035156 25.644531 13.984375 25.734375 C 14.035156 25.847656 14.085938 25.945312 14.113281 26.027344 C 14.164062 25.945312 14.226562 25.867188 14.285156 25.796875 Z M 10.457031 21.898438 L 10.296875 22.050781 C 10.738281 22.441406 11.113281 22.902344 11.394531 23.414062 C 11.464844 23.386719 11.535156 23.363281 11.59375 23.335938 C 11.300781 22.792969 10.921875 22.308594 10.457031 21.898438 Z M 32.976562 26.015625 C 32.976562 26.085938 32.976562 26.15625 32.96875 26.226562 L 33.027344 26.226562 L 33.015625 26.347656 L 32.957031 26.347656 C 32.957031 26.417969 32.945312 26.488281 32.9375 26.558594 L 32.996094 26.570312 L 32.988281 26.691406 L 32.925781 26.679688 C 32.917969 26.75 32.90625 26.820312 32.898438 26.878906 L 32.957031 26.890625 L 32.9375 27.011719 L 32.875 27 C 32.867188 27.070312 32.855469 27.140625 32.835938 27.203125 L 32.898438 27.210938 L 32.867188 27.332031 L 32.804688 27.324219 C 32.785156 27.394531 32.777344 27.453125 32.757812 27.523438 L 32.816406 27.542969 L 32.785156 27.664062 L 32.726562 27.644531 C 32.707031 27.714844 32.6875 27.773438 32.664062 27.84375 L 32.726562 27.863281 L 32.6875 27.984375 L 32.625 27.964844 C 32.605469 28.035156 32.574219 28.097656 32.554688 28.15625 L 32.617188 28.175781 L 32.574219 28.296875 L 32.515625 28.277344 C 32.484375 28.335938 32.464844 28.40625 32.433594 28.46875 L 32.496094 28.496094 L 32.445312 28.609375 L 32.386719 28.578125 C 32.355469 28.636719 32.324219 28.699219 32.292969 28.769531 L 32.355469 28.800781 L 32.292969 28.910156 L 32.234375 28.878906 C 32.203125 28.941406 32.175781 29 32.132812 29.058594 L 32.195312 29.089844 L 32.132812 29.199219 L 32.074219 29.171875 C 32.035156 29.230469 32.003906 29.292969 31.964844 29.351562 L 32.023438 29.390625 L 31.953125 29.492188 L 31.894531 29.453125 C 31.851562 29.511719 31.8125 29.5625 31.773438 29.621094 L 31.824219 29.664062 L 31.753906 29.761719 L 31.703125 29.722656 C 31.660156 29.785156 31.621094 29.832031 31.570312 29.882812 L 31.621094 29.925781 L 31.542969 30.023438 L 31.492188 29.984375 C 31.449219 30.035156 31.402344 30.09375 31.359375 30.144531 L 31.410156 30.183594 L 31.332031 30.273438 L 31.28125 30.234375 C 31.230469 30.285156 31.191406 30.335938 31.140625 30.386719 L 31.191406 30.4375 L 31.097656 30.527344 L 31.050781 30.476562 C 31 30.527344 30.949219 30.578125 30.898438 30.617188 L 30.9375 30.667969 L 30.847656 30.746094 L 30.808594 30.695312 C 30.757812 30.746094 30.707031 30.789062 30.648438 30.828125 L 30.6875 30.878906 L 30.585938 30.957031 L 30.546875 30.90625 C 30.496094 30.949219 30.4375 30.988281 30.386719 31.039062 L 30.425781 31.089844 L 30.324219 31.160156 L 30.285156 31.109375 C 30.226562 31.148438 30.175781 31.1875 30.113281 31.230469 L 30.144531 31.28125 L 30.042969 31.351562 L 30.015625 31.300781 C 29.953125 31.339844 29.894531 31.371094 29.832031 31.410156 L 29.863281 31.460938 L 29.753906 31.519531 L 29.722656 31.46875 C 29.664062 31.5 29.601562 31.539062 29.542969 31.570312 L 29.574219 31.632812 L 29.460938 31.691406 L 29.433594 31.632812 C 29.371094 31.660156 29.3125 31.691406 29.242188 31.722656 L 29.269531 31.78125 L 29.160156 31.832031 L 29.128906 31.773438 C 29.070312 31.800781 29 31.820312 28.941406 31.851562 L 28.960938 31.914062 L 28.839844 31.953125 L 28.820312 31.890625 C 28.757812 31.914062 28.6875 31.941406 28.628906 31.960938 L 28.648438 32.023438 L 28.527344 32.0625 L 28.507812 32.003906 C 28.4375 32.023438 28.378906 32.042969 28.308594 32.0625 L 28.328125 32.125 L 28.207031 32.152344 L 28.1875 32.09375 C 28.117188 32.113281 28.054688 32.125 27.984375 32.144531 L 27.996094 32.203125 L 27.875 32.234375 L 27.863281 32.171875 C 27.792969 32.183594 27.734375 32.203125 27.664062 32.214844 L 27.675781 32.273438 L 27.554688 32.292969 L 27.542969 32.234375 C 27.472656 32.242188 27.402344 32.253906 27.34375 32.265625 L 27.351562 32.324219 L 27.230469 32.335938 L 27.222656 32.273438 C 27.152344 32.285156 27.082031 32.285156 27.011719 32.292969 L 27.011719 32.355469 L 26.890625 32.363281 L 26.890625 32.304688 C 26.820312 32.304688 26.75 32.304688 26.679688 32.3125 L 26.679688 32.375 L 26.558594 32.375 L 26.558594 32.3125 C 26.488281 32.3125 26.417969 32.3125 26.347656 32.304688 L 26.347656 32.363281 L 26.226562 32.355469 L 26.226562 32.292969 C 26.15625 32.292969 26.085938 32.285156 26.015625 32.273438 L 26.007812 32.335938 L 25.886719 32.324219 L 25.894531 32.265625 C 25.824219 32.253906 25.753906 32.242188 25.695312 32.234375 L 25.683594 32.292969 L 25.566406 32.273438 L 25.574219 32.214844 C 25.503906 32.203125 25.433594 32.195312 25.375 32.171875 L 25.363281 32.234375 L 25.242188 32.203125 L 25.253906 32.144531 C 25.183594 32.132812 25.121094 32.113281 25.050781 32.09375 L 25.03125 32.152344 L 24.910156 32.125 L 24.933594 32.0625 C 24.863281 32.042969 24.800781 32.023438 24.730469 32.003906 L 24.710938 32.0625 L 24.589844 32.023438 L 24.609375 31.960938 C 24.539062 31.941406 24.480469 31.914062 24.417969 31.890625 L 24.398438 31.953125 L 24.28125 31.914062 L 24.300781 31.851562 C 24.238281 31.820312 24.167969 31.800781 24.109375 31.773438 L 24.078125 31.832031 L 23.96875 31.78125 L 24 31.722656 C 23.9375 31.691406 23.878906 31.660156 23.808594 31.632812 L 23.777344 31.691406 L 23.667969 31.632812 L 23.695312 31.570312 C 23.636719 31.539062 23.578125 31.511719 23.515625 31.46875 L 23.484375 31.519531 L 23.375 31.460938 L 23.40625 31.410156 C 23.34375 31.378906 23.285156 31.339844 23.226562 31.300781 L 23.195312 31.351562 L 23.09375 31.28125 L 23.125 31.230469 C 23.0625 31.1875 23.015625 31.148438 22.953125 31.109375 L 22.914062 31.160156 L 22.8125 31.089844 L 22.851562 31.039062 C 22.792969 31 22.742188 30.957031 22.691406 30.90625 L 22.652344 30.957031 L 22.550781 30.878906 L 22.59375 30.828125 C 22.542969 30.789062 22.480469 30.738281 22.429688 30.695312 L 22.390625 30.746094 L 22.300781 30.667969 L 22.339844 30.617188 C 22.289062 30.566406 22.242188 30.527344 22.191406 30.476562 L 22.148438 30.515625 L 22.058594 30.425781 L 22.101562 30.386719 C 22.050781 30.335938 22 30.285156 21.960938 30.234375 L 21.910156 30.273438 L 21.828125 30.183594 L 21.878906 30.144531 C 21.828125 30.09375 21.789062 30.042969 21.75 29.984375 L 21.699219 30.023438 L 21.617188 29.925781 L 21.667969 29.882812 C 21.628906 29.832031 21.585938 29.773438 21.539062 29.722656 L 21.488281 29.761719 L 21.417969 29.664062 L 21.46875 29.621094 C 21.425781 29.5625 21.386719 29.511719 21.347656 29.453125 L 21.296875 29.480469 L 21.226562 29.382812 L 21.277344 29.351562 C 21.234375 29.292969 21.207031 29.230469 21.164062 29.171875 L 21.117188 29.199219 L 21.054688 29.089844 L 21.105469 29.058594 C 21.074219 29 21.035156 28.941406 21.003906 28.878906 L 20.945312 28.910156 L 20.882812 28.800781 L 20.945312 28.769531 C 20.914062 28.707031 20.882812 28.648438 20.855469 28.578125 L 20.792969 28.609375 L 20.742188 28.496094 L 20.804688 28.46875 C 20.773438 28.40625 20.753906 28.335938 20.722656 28.277344 L 20.664062 28.296875 L 20.625 28.195312 L 20.683594 28.175781 C 20.664062 28.117188 20.632812 28.046875 20.613281 27.984375 L 20.554688 28.003906 L 20.511719 27.886719 L 20.574219 27.863281 C 20.554688 27.792969 20.53125 27.734375 20.511719 27.664062 L 20.453125 27.683594 L 20.421875 27.5625 L 20.484375 27.542969 C 20.460938 27.472656 20.453125 27.414062 20.433594 27.34375 L 20.371094 27.351562 L 20.34375 27.230469 L 20.402344 27.222656 C 20.390625 27.152344 20.371094 27.082031 20.363281 27.019531 L 20.300781 27.03125 L 20.28125 26.910156 L 20.34375 26.902344 C 20.332031 26.832031 20.320312 26.761719 20.3125 26.699219 L 20.25 26.710938 L 20.242188 26.589844 L 20.300781 26.578125 C 20.292969 26.507812 20.292969 26.4375 20.28125 26.367188 L 20.222656 26.367188 L 20.210938 26.246094 L 20.273438 26.246094 C 20.273438 26.175781 20.261719 26.105469 20.261719 26.035156 L 20.203125 26.035156 L 20.203125 25.886719 L 20.261719 25.886719 C 20.261719 25.816406 20.261719 25.746094 20.261719 25.675781 L 20.203125 25.675781 L 20.210938 25.554688 L 20.273438 25.554688 C 20.273438 25.484375 20.28125 25.414062 20.292969 25.34375 L 20.230469 25.332031 L 20.242188 25.214844 L 20.300781 25.222656 C 20.3125 25.152344 20.320312 25.082031 20.332031 25.023438 L 20.273438 25.011719 L 20.292969 24.890625 L 20.351562 24.902344 C 20.363281 24.832031 20.371094 24.761719 20.390625 24.699219 L 20.332031 24.691406 L 20.363281 24.570312 L 20.421875 24.582031 C 20.433594 24.511719 20.453125 24.449219 20.472656 24.378906 L 20.414062 24.359375 L 20.441406 24.238281 L 20.503906 24.257812 C 20.523438 24.1875 20.542969 24.128906 20.5625 24.058594 L 20.503906 24.039062 L 20.542969 23.917969 L 20.601562 23.9375 C 20.625 23.867188 20.644531 23.808594 20.671875 23.746094 L 20.613281 23.726562 L 20.652344 23.605469 L 20.714844 23.625 C 20.742188 23.566406 20.765625 23.496094 20.792969 23.433594 L 20.734375 23.414062 L 20.785156 23.304688 L 20.84375 23.324219 C 20.875 23.265625 20.90625 23.203125 20.933594 23.132812 L 20.882812 23.105469 L 20.945312 22.992188 L 20.996094 23.023438 C 21.023438 22.964844 21.066406 22.902344 21.09375 22.84375 L 21.046875 22.8125 L 21.105469 22.703125 L 21.15625 22.730469 C 21.195312 22.671875 21.226562 22.613281 21.265625 22.550781 L 21.214844 22.519531 L 21.285156 22.421875 L 21.335938 22.449219 C 21.375 22.390625 21.417969 22.339844 21.457031 22.28125 L 21.40625 22.238281 L 21.476562 22.140625 L 21.527344 22.179688 C 21.566406 22.121094 21.609375 22.070312 21.65625 22.019531 L 21.609375 21.980469 L 21.6875 21.878906 L 21.738281 21.917969 C 21.777344 21.867188 21.828125 21.808594 21.867188 21.757812 L 21.820312 21.71875 L 21.898438 21.628906 L 21.949219 21.667969 C 22 21.617188 22.039062 21.566406 22.089844 21.515625 L 22.050781 21.476562 L 22.140625 21.386719 L 22.179688 21.425781 C 22.230469 21.375 22.28125 21.328125 22.332031 21.285156 L 22.289062 21.234375 L 22.382812 21.15625 L 22.421875 21.207031 C 22.472656 21.15625 22.523438 21.117188 22.582031 21.074219 L 22.542969 21.023438 L 22.640625 20.945312 L 22.683594 20.996094 C 22.734375 20.953125 22.792969 20.914062 22.84375 20.863281 L 22.804688 20.8125 L 22.902344 20.742188 L 22.945312 20.792969 C 23.003906 20.753906 23.054688 20.714844 23.113281 20.671875 L 23.085938 20.625 L 23.183594 20.554688 L 23.214844 20.601562 C 23.273438 20.5625 23.335938 20.53125 23.394531 20.492188 L 23.367188 20.441406 L 23.476562 20.382812 L 23.507812 20.433594 C 23.566406 20.402344 23.625 20.363281 23.6875 20.332031 L 23.65625 20.28125 L 23.765625 20.222656 L 23.796875 20.273438 C 23.808594 20.261719 23.828125 20.261719 23.835938 20.25 L 24.1875 20.914062 C 22.121094 21.917969 20.792969 24.136719 21.054688 26.550781 C 21.207031 27.933594 21.859375 29.199219 22.894531 30.132812 C 23.917969 31.058594 25.242188 31.5625 26.621094 31.5625 C 26.820312 31.5625 27.019531 31.550781 27.222656 31.53125 C 30.296875 31.199219 32.523438 28.4375 32.195312 25.363281 C 32.042969 23.976562 31.390625 22.710938 30.355469 21.777344 C 29.332031 20.855469 28.003906 20.351562 26.628906 20.351562 C 26.429688 20.351562 26.226562 20.363281 26.027344 20.382812 C 25.816406 20.402344 25.605469 20.441406 25.394531 20.484375 L 25.453125 20.652344 C 25.644531 20.613281 25.847656 20.582031 26.046875 20.554688 C 26.238281 20.53125 26.4375 20.523438 26.628906 20.523438 C 29.402344 20.523438 31.722656 22.613281 32.011719 25.375 C 32.335938 28.347656 30.164062 31.027344 27.191406 31.339844 C 27 31.359375 26.800781 31.371094 26.609375 31.371094 C 23.835938 31.371094 21.515625 29.28125 21.226562 26.519531 C 20.976562 24.179688 22.261719 22.019531 24.269531 21.054688 L 24.371094 21.246094 C 23.675781 21.578125 23.0625 22.058594 22.570312 22.671875 C 21.699219 23.757812 21.296875 25.113281 21.445312 26.5 C 21.726562 29.152344 23.957031 31.148438 26.621094 31.148438 C 26.800781 31.148438 26.992188 31.140625 27.183594 31.117188 C 30.035156 30.816406 32.113281 28.246094 31.800781 25.382812 C 31.519531 22.730469 29.292969 20.734375 26.628906 20.734375 C 26.449219 20.734375 26.257812 20.742188 26.066406 20.765625 C 25.886719 20.785156 25.707031 20.8125 25.535156 20.855469 L 25.65625 21.175781 L 25.402344 21.265625 L 25.273438 20.914062 C 25.203125 20.933594 25.132812 20.953125 25.0625 20.976562 L 25.011719 20.765625 C 25.074219 20.742188 25.132812 20.722656 25.203125 20.714844 L 25.144531 20.554688 C 25.082031 20.574219 25.03125 20.582031 24.972656 20.601562 L 24.792969 19.878906 C 24.820312 19.871094 24.839844 19.859375 24.871094 19.859375 L 24.589844 19.117188 L 24.710938 19.078125 C 24.371094 18.183594 23.898438 17.839844 23.464844 17.53125 C 23.285156 17.398438 23.125 17.277344 22.984375 17.128906 C 22.984375 17.148438 22.972656 17.167969 22.972656 17.1875 C 22.953125 17.25 22.933594 17.308594 22.894531 17.359375 L 23.296875 18.394531 L 23.96875 18.132812 L 24.160156 18.625 L 24.097656 18.644531 L 26.808594 25.566406 L 26.75 24.980469 C 27.191406 25.03125 27.554688 25.382812 27.605469 25.847656 C 27.664062 26.386719 27.273438 26.871094 26.730469 26.921875 C 26.1875 26.980469 25.707031 26.589844 25.65625 26.046875 C 25.625 25.777344 25.707031 25.523438 25.867188 25.324219 L 26.238281 25.847656 L 23.816406 19.6875 L 23.507812 18.84375 L 23.597656 19.4375 L 23.105469 19.628906 L 22.691406 18.554688 L 16.65625 26.007812 C 16.695312 26.058594 16.726562 26.105469 16.757812 26.15625 L 16.9375 25.9375 C 17.148438 26.007812 17.359375 26.105469 17.53125 26.257812 C 17.761719 26.46875 17.691406 26.910156 17.378906 26.929688 C 17.519531 26.929688 17.640625 27.050781 17.640625 27.203125 C 17.640625 27.34375 17.519531 27.464844 17.378906 27.464844 C 17.378906 27.464844 17.378906 27.464844 17.367188 27.464844 L 16.9375 27.453125 C 16.957031 27.324219 16.957031 27.171875 16.957031 26.992188 C 16.957031 27.101562 16.9375 27.222656 16.898438 27.332031 C 16.726562 27.914062 16.222656 28.367188 15.582031 28.4375 C 15.480469 28.449219 15.390625 28.449219 15.300781 28.4375 L 12.730469 28.367188 C 12.71875 28.398438 12.699219 28.425781 12.6875 28.457031 L 12.75 28.488281 L 12.699219 28.597656 L 12.636719 28.566406 C 12.609375 28.628906 12.578125 28.6875 12.546875 28.757812 L 12.609375 28.789062 L 12.546875 28.898438 L 12.488281 28.871094 C 12.457031 28.929688 12.417969 28.988281 12.386719 29.050781 L 12.449219 29.082031 L 12.386719 29.191406 L 12.328125 29.160156 C 12.285156 29.222656 12.257812 29.28125 12.214844 29.339844 L 12.277344 29.382812 L 12.207031 29.480469 L 12.144531 29.441406 C 12.105469 29.503906 12.066406 29.550781 12.027344 29.613281 L 12.074219 29.652344 L 12.003906 29.753906 L 11.957031 29.714844 C 11.914062 29.773438 11.875 29.824219 11.824219 29.875 L 11.875 29.914062 L 11.792969 30.015625 L 11.746094 29.972656 C 11.703125 30.023438 11.652344 30.085938 11.613281 30.132812 L 11.664062 30.175781 L 11.582031 30.265625 L 11.535156 30.226562 C 11.484375 30.273438 11.441406 30.324219 11.394531 30.375 L 11.441406 30.425781 L 11.351562 30.515625 L 11.300781 30.464844 C 11.253906 30.515625 11.203125 30.566406 11.152344 30.605469 L 11.191406 30.65625 L 11.101562 30.738281 L 11.0625 30.6875 C 11.011719 30.738281 10.960938 30.777344 10.902344 30.816406 L 10.941406 30.867188 L 10.839844 30.949219 L 10.800781 30.898438 C 10.75 30.9375 10.691406 30.976562 10.640625 31.027344 L 10.679688 31.078125 L 10.578125 31.148438 L 10.539062 31.097656 C 10.480469 31.140625 10.429688 31.179688 10.367188 31.21875 L 10.410156 31.269531 L 10.308594 31.339844 L 10.277344 31.289062 C 10.21875 31.328125 10.15625 31.359375 10.097656 31.398438 L 10.128906 31.460938 L 10.015625 31.519531 L 9.988281 31.460938 C 9.925781 31.492188 9.867188 31.53125 9.804688 31.5625 L 9.835938 31.621094 L 9.726562 31.679688 L 9.695312 31.621094 C 9.636719 31.652344 9.574219 31.679688 9.503906 31.710938 L 9.535156 31.773438 L 9.425781 31.820312 L 9.394531 31.761719 C 9.332031 31.792969 9.261719 31.8125 9.203125 31.84375 L 9.222656 31.902344 L 9.101562 31.941406 L 9.082031 31.882812 C 9.023438 31.902344 8.953125 31.933594 8.890625 31.953125 L 8.910156 32.011719 L 8.792969 32.054688 L 8.769531 31.992188 C 8.699219 32.011719 8.640625 32.03125 8.570312 32.054688 L 8.589844 32.113281 L 8.46875 32.144531 L 8.449219 32.082031 C 8.378906 32.101562 8.320312 32.113281 8.25 32.132812 L 8.257812 32.203125 L 8.140625 32.234375 L 8.128906 32.164062 C 8.058594 32.171875 8 32.195312 7.929688 32.203125 L 7.9375 32.273438 L 7.816406 32.292969 L 7.808594 32.222656 C 7.738281 32.234375 7.667969 32.242188 7.605469 32.253906 L 7.617188 32.324219 L 7.496094 32.335938 L 7.484375 32.265625 C 7.414062 32.273438 7.34375 32.273438 7.273438 32.285156 L 7.273438 32.355469 L 7.15625 32.363281 L 7.15625 32.292969 C 7.085938 32.292969 7.015625 32.292969 6.945312 32.304688 L 6.945312 32.375 L 6.824219 32.375 L 6.824219 32.304688 C 6.753906 32.304688 6.683594 32.304688 6.613281 32.292969 L 6.613281 32.363281 L 6.492188 32.355469 L 6.492188 32.285156 C 6.421875 32.285156 6.351562 32.273438 6.28125 32.265625 L 6.269531 32.335938 L 6.148438 32.324219 L 6.160156 32.253906 C 6.089844 32.242188 6.019531 32.234375 5.960938 32.222656 L 5.949219 32.292969 L 5.828125 32.273438 L 5.839844 32.203125 C 5.769531 32.195312 5.699219 32.183594 5.636719 32.164062 L 5.628906 32.222656 L 5.457031 32.214844 L 5.46875 32.152344 C 5.398438 32.144531 5.335938 32.125 5.265625 32.101562 L 5.246094 32.164062 L 5.125 32.132812 L 5.144531 32.074219 C 5.074219 32.054688 5.015625 32.03125 4.945312 32.011719 L 4.925781 32.074219 L 4.804688 32.03125 L 4.824219 31.972656 C 4.753906 31.953125 4.695312 31.921875 4.632812 31.902344 L 4.613281 31.960938 L 4.492188 31.921875 L 4.511719 31.863281 C 4.453125 31.832031 4.382812 31.8125 4.320312 31.78125 L 4.292969 31.84375 L 4.179688 31.792969 L 4.210938 31.730469 C 4.152344 31.703125 4.089844 31.671875 4.019531 31.640625 L 3.992188 31.703125 L 3.878906 31.640625 L 3.910156 31.582031 C 3.851562 31.550781 3.789062 31.519531 3.730469 31.480469 L 3.699219 31.539062 L 3.589844 31.480469 L 3.617188 31.421875 C 3.558594 31.390625 3.5 31.351562 3.4375 31.308594 L 3.398438 31.371094 L 3.296875 31.300781 L 3.335938 31.238281 C 3.277344 31.199219 3.226562 31.160156 3.167969 31.117188 L 3.125 31.167969 L 3.027344 31.097656 L 3.066406 31.046875 C 3.007812 31.007812 2.957031 30.96875 2.90625 30.917969 L 2.867188 30.96875 L 2.765625 30.886719 L 2.804688 30.835938 C 2.753906 30.796875 2.695312 30.746094 2.644531 30.707031 L 2.59375 30.757812 L 2.503906 30.675781 L 2.554688 30.625 C 2.503906 30.578125 2.453125 30.535156 2.402344 30.484375 L 2.351562 30.535156 L 2.261719 30.445312 L 2.3125 30.394531 C 2.261719 30.34375 2.210938 30.296875 2.171875 30.246094 L 2.121094 30.285156 L 2.042969 30.203125 L 2.09375 30.164062 C 2.042969 30.113281 2 30.066406 1.960938 30.003906 L 1.910156 30.042969 L 1.832031 29.945312 L 1.882812 29.902344 C 1.839844 29.855469 1.800781 29.792969 1.75 29.742188 L 1.699219 29.785156 L 1.628906 29.683594 L 1.679688 29.644531 C 1.640625 29.582031 1.601562 29.53125 1.558594 29.472656 L 1.5 29.511719 L 1.429688 29.410156 L 1.488281 29.371094 C 1.449219 29.3125 1.417969 29.25 1.378906 29.191406 L 1.320312 29.222656 L 1.257812 29.109375 L 1.320312 29.082031 C 1.289062 29.019531 1.25 28.960938 1.21875 28.898438 L 1.15625 28.929688 L 1.097656 28.820312 L 1.15625 28.789062 C 1.128906 28.730469 1.097656 28.667969 1.066406 28.597656 L 1.007812 28.628906 L 0.957031 28.519531 L 1.015625 28.488281 C 0.988281 28.425781 0.96875 28.355469 0.9375 28.296875 L 0.875 28.316406 L 0.835938 28.195312 L 0.898438 28.175781 C 0.875 28.117188 0.847656 28.046875 0.828125 27.984375 L 0.765625 27.996094 L 0.726562 27.875 L 0.785156 27.855469 C 0.765625 27.785156 0.746094 27.722656 0.726562 27.652344 L 0.664062 27.675781 L 0.636719 27.554688 L 0.695312 27.535156 C 0.675781 27.464844 0.664062 27.402344 0.644531 27.332031 L 0.574219 27.34375 L 0.546875 27.222656 L 0.617188 27.210938 C 0.605469 27.140625 0.585938 27.070312 0.574219 27.011719 L 0.503906 27.019531 L 0.484375 26.902344 L 0.554688 26.890625 C 0.546875 26.820312 0.535156 26.75 0.527344 26.691406 L 0.476562 26.691406 L 0.464844 26.570312 L 0.535156 26.558594 C 0.527344 26.488281 0.527344 26.417969 0.515625 26.347656 L 0.445312 26.347656 L 0.433594 26.226562 L 0.503906 26.226562 C 0.503906 26.15625 0.496094 26.085938 0.496094 26.015625 L 0.433594 26.015625 L 0.433594 25.894531 L 0.503906 25.894531 C 0.503906 25.824219 0.503906 25.753906 0.503906 25.683594 L 0.433594 25.683594 L 0.445312 25.566406 L 0.515625 25.566406 C 0.515625 25.496094 0.527344 25.425781 0.535156 25.355469 L 0.476562 25.34375 L 0.484375 25.222656 L 0.546875 25.234375 C 0.554688 25.164062 0.566406 25.09375 0.574219 25.03125 L 0.515625 25.023438 L 0.535156 24.902344 L 0.59375 24.910156 C 0.605469 24.839844 0.617188 24.769531 0.636719 24.710938 L 0.566406 24.679688 L 0.59375 24.558594 L 0.65625 24.570312 C 0.664062 24.5 0.6875 24.441406 0.707031 24.371094 L 0.636719 24.359375 L 0.664062 24.238281 L 0.726562 24.257812 C 0.746094 24.1875 0.765625 24.128906 0.785156 24.058594 L 0.726562 24.039062 L 0.765625 23.917969 L 0.828125 23.9375 C 0.847656 23.867188 0.867188 23.808594 0.898438 23.746094 L 0.835938 23.714844 L 0.875 23.597656 L 0.9375 23.617188 C 0.96875 23.554688 0.988281 23.484375 1.015625 23.425781 L 0.957031 23.394531 L 1.007812 23.285156 L 1.066406 23.316406 C 1.097656 23.253906 1.128906 23.195312 1.15625 23.125 L 1.097656 23.09375 L 1.15625 22.984375 L 1.21875 23.011719 C 1.25 22.953125 1.289062 22.894531 1.320312 22.832031 L 1.257812 22.800781 L 1.320312 22.691406 L 1.378906 22.722656 C 1.417969 22.660156 1.449219 22.601562 1.488281 22.542969 L 1.429688 22.5 L 1.5 22.402344 L 1.558594 22.441406 C 1.601562 22.378906 1.640625 22.332031 1.679688 22.269531 L 1.628906 22.230469 L 1.699219 22.128906 L 1.75 22.167969 C 1.789062 22.109375 1.832031 22.058594 1.882812 22.007812 L 1.832031 21.96875 L 1.910156 21.867188 L 1.960938 21.910156 C 2 21.859375 2.050781 21.796875 2.09375 21.75 L 2.042969 21.707031 L 2.121094 21.617188 L 2.171875 21.65625 C 2.222656 21.609375 2.261719 21.558594 2.3125 21.507812 L 2.261719 21.457031 L 2.351562 21.367188 L 2.402344 21.417969 C 2.453125 21.367188 2.503906 21.316406 2.554688 21.277344 L 2.515625 21.226562 L 2.605469 21.144531 L 2.644531 21.195312 C 2.695312 21.144531 2.746094 21.105469 2.804688 21.066406 L 2.765625 21.015625 L 2.867188 20.933594 L 2.90625 20.984375 C 2.957031 20.945312 3.015625 20.90625 3.066406 20.855469 L 3.027344 20.804688 L 3.125 20.734375 L 3.167969 20.785156 C 3.226562 20.742188 3.277344 20.703125 3.335938 20.664062 L 3.296875 20.613281 L 3.398438 20.542969 L 3.429688 20.59375 C 3.488281 20.554688 3.546875 20.523438 3.609375 20.484375 L 3.578125 20.421875 L 3.6875 20.363281 L 3.71875 20.421875 C 3.78125 20.390625 3.839844 20.351562 3.898438 20.320312 L 3.871094 20.261719 L 3.980469 20.203125 L 4.011719 20.261719 C 4.070312 20.230469 4.132812 20.203125 4.203125 20.171875 L 4.171875 20.109375 L 4.28125 20.0625 L 4.3125 20.121094 C 4.371094 20.089844 4.441406 20.070312 4.503906 20.039062 L 4.484375 19.980469 L 4.601562 19.941406 L 4.625 20 C 4.683594 19.980469 4.753906 19.949219 4.8125 19.929688 L 4.792969 19.871094 L 4.914062 19.828125 L 4.933594 19.890625 C 5.003906 19.871094 5.066406 19.851562 5.136719 19.828125 L 5.117188 19.769531 L 5.234375 19.738281 L 5.257812 19.800781 C 5.328125 19.78125 5.386719 19.769531 5.457031 19.75 L 5.445312 19.679688 L 5.566406 19.648438 L 5.578125 19.71875 C 5.648438 19.710938 5.707031 19.6875 5.777344 19.679688 L 5.769531 19.609375 L 5.890625 19.589844 L 5.898438 19.660156 C 5.96875 19.648438 6.039062 19.640625 6.101562 19.628906 L 6.089844 19.558594 L 6.210938 19.546875 L 6.21875 19.617188 C 6.289062 19.609375 6.359375 19.609375 6.429688 19.597656 L 6.429688 19.527344 L 6.550781 19.519531 L 6.550781 19.589844 C 6.621094 19.589844 6.691406 19.589844 6.761719 19.578125 L 6.761719 19.507812 L 6.882812 19.507812 L 6.882812 19.578125 C 6.953125 19.578125 7.023438 19.578125 7.09375 19.578125 L 7.09375 19.507812 L 7.214844 19.519531 L 7.214844 19.589844 C 7.285156 19.589844 7.355469 19.597656 7.425781 19.609375 L 7.4375 19.539062 L 7.554688 19.546875 L 7.546875 19.617188 C 7.617188 19.628906 7.6875 19.640625 7.746094 19.648438 L 7.757812 19.589844 L 7.878906 19.609375 L 7.867188 19.679688 C 7.9375 19.6875 8.007812 19.699219 8.070312 19.71875 L 8.078125 19.648438 L 8.199219 19.679688 L 8.1875 19.738281 C 8.257812 19.75 8.320312 19.769531 8.390625 19.789062 L 8.410156 19.730469 L 8.53125 19.757812 L 8.511719 19.820312 C 8.582031 19.839844 8.640625 19.859375 8.710938 19.878906 L 8.730469 19.820312 L 8.851562 19.859375 L 8.832031 19.921875 C 8.902344 19.941406 8.960938 19.96875 9.023438 19.992188 L 9.042969 19.929688 L 9.164062 19.96875 L 9.144531 20.03125 C 9.203125 20.0625 9.273438 20.082031 9.332031 20.109375 L 9.363281 20.050781 L 9.472656 20.101562 L 9.445312 20.160156 C 9.503906 20.191406 9.566406 20.222656 9.636719 20.25 L 9.664062 20.191406 L 9.777344 20.25 L 9.746094 20.3125 C 9.804688 20.34375 9.867188 20.371094 9.925781 20.414062 L 9.957031 20.351562 L 10.066406 20.414062 L 10.035156 20.472656 C 10.046875 20.472656 10.046875 20.484375 10.058594 20.484375 L 10.597656 19.828125 L 10.679688 19.890625 C 10.992188 19.398438 11.464844 19.167969 11.816406 19.054688 L 11.683594 18.703125 L 11.835938 18.65625 L 10.507812 15.046875 C 9.964844 15.070312 9.484375 15.089844 9.332031 15.089844 C 8.941406 15.078125 7.878906 14.355469 8.230469 13.773438 C 8.359375 13.550781 8.660156 13.53125 9.011719 13.601562 C 9.824219 14.335938 11.070312 15.46875 11.382812 15.761719 C 11.441406 15.820312 11.464844 15.84375 11.453125 15.832031 C 11.441406 15.820312 11.421875 15.800781 11.382812 15.761719 C 11.371094 15.75 11.363281 15.742188 11.351562 15.730469 C 10.328125 14.789062 9.402344 13.863281 9.101562 13.492188 C 8.449219 12.699219 9.003906 11.503906 9.101562 11.300781 C 9.164062 11.101562 9.253906 10.871094 9.382812 10.597656 L 12.167969 9.765625 L 15.660156 9.414062 C 15.660156 9.414062 12.226562 9.625 12.214844 9.636719 L 11.914062 9.121094 L 14.949219 9.023438 L 11.875 9.042969 L 11.511719 8.53125 L 12.046875 9.65625 C 12.046875 9.65625 10.199219 10.15625 9.535156 10.296875 C 9.363281 10.339844 9.171875 10.296875 9.042969 10.175781 C 9.011719 10.148438 8.980469 10.117188 8.960938 10.085938 C 8.378906 9.113281 7.765625 8.269531 8.691406 6.894531 C 8.722656 6.851562 9.273438 5.074219 11.632812 3.839844 L 12.214844 4.121094 C 11.835938 4.3125 11.230469 4.652344 10.800781 5.074219 C 10.699219 5.164062 10.621094 5.257812 10.558594 5.335938 C 10.628906 5.246094 10.710938 5.15625 10.800781 5.074219 C 11.160156 4.753906 11.804688 4.414062 12.367188 4.140625 C 13.101562 3.949219 13.914062 3.910156 14.617188 3.992188 C 15.128906 4 16.125 4.039062 16.6875 4.171875 C 16.957031 4.3125 17.691406 4.734375 18.0625 5.425781 C 17.941406 5.117188 17.449219 4.542969 16.945312 4.191406 C 17.007812 4.179688 17.058594 4.179688 17.097656 4.171875 C 17.449219 4.351562 18.03125 4.703125 18.363281 5.195312 C 18.171875 4.804688 17.71875 4.421875 17.347656 4.160156 C 17.390625 3.921875 17.398438 3.679688 17.410156 3.46875 L 18.363281 3.347656 L 17.085938 3.335938 C 17.085938 3.335938 16.925781 2.453125 17.621094 1.871094 C 18.523438 1.871094 19.871094 1.941406 20.503906 2.261719 C 19.699219 1.78125 18.34375 1.78125 17.8125 1.78125 C 18.042969 1.621094 18.351562 1.488281 18.753906 1.429688 C 20.59375 1.117188 21.195312 2.433594 21.375 3.035156 L 22.171875 3.398438 L 22.050781 3.488281 L 20.824219 3.386719 C 20.84375 3.578125 20.835938 3.820312 20.8125 4.050781 C 20.894531 4.320312 21.054688 4.933594 20.945312 5.023438 C 20.882812 5.074219 20.792969 5.074219 20.703125 5.054688 C 20.601562 5.457031 20.460938 5.636719 20.28125 5.820312 C 20.070312 6.03125 20.011719 6.148438 19.699219 5.960938 C 19.679688 5.949219 19.597656 5.898438 19.570312 5.890625 L 19.5 4.453125 L 19.476562 5.910156 L 19.21875 5.910156 L 19.238281 4.484375 L 19.136719 5.878906 C 19.066406 5.878906 19.007812 5.890625 18.957031 5.898438 C 19.085938 6.230469 19.117188 6.761719 19.105469 7.214844 L 18.523438 6.359375 C 18.523438 6.359375 19.15625 7.667969 19.167969 7.6875 C 19.335938 8.148438 19.570312 8.699219 19.75 9.132812 C 19.40625 9.144531 18.90625 9.214844 18.554688 9.464844 C 19.027344 9.214844 19.589844 9.261719 19.820312 9.304688 C 19.960938 9.636719 20.0625 9.875 20.0625 9.875 C 20.0625 9.875 22.5625 13.222656 23.113281 13.671875 C 23.457031 13.953125 23.949219 14.003906 24.257812 14.003906 C 24.480469 14.003906 24.699219 14.085938 24.871094 14.226562 C 25.09375 14.40625 25.171875 14.707031 25.050781 14.96875 C 24.910156 15.308594 24.558594 15.511719 24.199219 15.480469 C 24.027344 15.460938 23.847656 15.449219 23.71875 15.449219 C 23.546875 15.53125 23.335938 15.640625 23.15625 15.78125 C 22.992188 15.914062 22.824219 16.082031 22.742188 16.273438 C 22.882812 16.523438 22.992188 16.804688 22.984375 17.046875 C 23.125 17.207031 23.296875 17.339844 23.484375 17.46875 C 23.917969 17.78125 24.398438 18.132812 24.742188 19.035156 L 24.832031 19.007812 L 25.121094 19.78125 C 25.164062 19.769531 25.191406 19.757812 25.234375 19.75 L 25.222656 19.6875 L 25.34375 19.660156 L 25.355469 19.71875 C 25.425781 19.710938 25.484375 19.6875 25.554688 19.679688 L 25.542969 19.617188 L 25.664062 19.597656 L 25.675781 19.660156 C 25.746094 19.648438 25.816406 19.640625 25.875 19.628906 L 25.867188 19.570312 L 25.988281 19.558594 L 25.996094 19.617188 C 26.066406 19.609375 26.136719 19.609375 26.207031 19.597656 L 26.207031 19.539062 L 26.328125 19.527344 L 26.328125 19.589844 C 26.398438 19.589844 26.46875 19.589844 26.539062 19.578125 L 26.539062 19.519531 L 26.660156 19.519531 L 26.660156 19.578125 C 26.730469 19.578125 26.800781 19.578125 26.871094 19.589844 L 26.871094 19.527344 L 26.992188 19.539062 L 26.992188 19.597656 C 27.0625 19.597656 27.132812 19.609375 27.203125 19.617188 L 27.210938 19.558594 L 27.332031 19.570312 L 27.324219 19.628906 C 27.394531 19.640625 27.464844 19.648438 27.523438 19.660156 L 27.535156 19.597656 L 27.652344 19.617188 L 27.644531 19.679688 C 27.714844 19.6875 27.785156 19.699219 27.84375 19.71875 L 27.855469 19.660156 L 27.976562 19.6875 L 27.964844 19.75 C 28.035156 19.757812 28.097656 19.78125 28.167969 19.800781 L 28.1875 19.738281 L 28.308594 19.769531 L 28.285156 19.828125 C 28.355469 19.851562 28.417969 19.871094 28.488281 19.890625 L 28.507812 19.828125 L 28.628906 19.871094 L 28.609375 19.929688 C 28.679688 19.949219 28.738281 19.980469 28.800781 20 L 28.820312 19.941406 L 28.941406 19.980469 L 28.917969 20.039062 C 28.980469 20.070312 29.050781 20.089844 29.109375 20.121094 L 29.140625 20.0625 L 29.25 20.109375 L 29.222656 20.171875 C 29.28125 20.203125 29.339844 20.230469 29.410156 20.261719 L 29.441406 20.203125 L 29.550781 20.261719 L 29.523438 20.320312 C 29.582031 20.351562 29.644531 20.382812 29.703125 20.421875 L 29.734375 20.371094 L 29.84375 20.433594 L 29.8125 20.484375 C 29.875 20.511719 29.933594 20.554688 29.996094 20.59375 L 30.023438 20.542969 L 30.125 20.613281 L 30.09375 20.664062 C 30.15625 20.703125 30.207031 20.742188 30.265625 20.785156 L 30.304688 20.734375 L 30.40625 20.804688 L 30.367188 20.855469 C 30.425781 20.894531 30.476562 20.933594 30.527344 20.984375 L 30.566406 20.933594 L 30.667969 21.015625 L 30.667969 21.066406 C 30.71875 21.105469 30.777344 21.15625 30.828125 21.195312 L 30.867188 21.144531 L 30.957031 21.226562 L 30.917969 21.277344 C 30.96875 21.328125 31.019531 21.367188 31.070312 21.417969 L 31.109375 21.375 L 31.199219 21.46875 L 31.160156 21.507812 C 31.210938 21.558594 31.261719 21.609375 31.300781 21.65625 L 31.351562 21.617188 L 31.429688 21.707031 L 31.378906 21.75 C 31.429688 21.796875 31.472656 21.847656 31.511719 21.910156 L 31.5625 21.867188 L 31.640625 21.96875 L 31.589844 22.007812 C 31.632812 22.058594 31.671875 22.121094 31.722656 22.167969 L 31.773438 22.128906 L 31.84375 22.230469 L 31.792969 22.269531 C 31.832031 22.332031 31.871094 22.378906 31.914062 22.441406 L 31.964844 22.410156 L 32.035156 22.511719 L 31.984375 22.542969 C 32.023438 22.601562 32.054688 22.660156 32.09375 22.722656 L 32.144531 22.691406 L 32.203125 22.800781 L 32.152344 22.832031 C 32.183594 22.894531 32.222656 22.953125 32.253906 23.011719 L 32.316406 22.984375 L 32.375 23.09375 L 32.316406 23.125 C 32.34375 23.183594 32.375 23.246094 32.40625 23.316406 L 32.464844 23.285156 L 32.515625 23.394531 L 32.457031 23.425781 C 32.484375 23.484375 32.503906 23.554688 32.535156 23.617188 L 32.59375 23.597656 L 32.636719 23.714844 L 32.574219 23.738281 C 32.59375 23.796875 32.625 23.867188 32.644531 23.925781 L 32.707031 23.90625 L 32.746094 24.027344 L 32.6875 24.046875 C 32.707031 24.117188 32.726562 24.179688 32.746094 24.25 L 32.804688 24.230469 L 32.835938 24.347656 L 32.777344 24.371094 C 32.796875 24.441406 32.804688 24.5 32.828125 24.570312 L 32.886719 24.558594 L 32.917969 24.679688 L 32.855469 24.691406 C 32.867188 24.761719 32.886719 24.832031 32.898438 24.890625 L 32.957031 24.882812 L 32.976562 25.003906 L 32.917969 25.011719 C 32.925781 25.082031 32.9375 25.152344 32.945312 25.214844 L 33.007812 25.203125 L 33.015625 25.324219 L 32.957031 25.332031 C 32.96875 25.402344 32.96875 25.472656 32.976562 25.542969 L 33.039062 25.542969 L 33.046875 25.664062 L 32.988281 25.664062 C 32.988281 25.734375 32.988281 25.804688 32.996094 25.875 L 33.058594 25.875 L 33.058594 25.996094 L 32.976562 25.996094 Z M 22.339844 15.652344 C 22.410156 15.742188 22.582031 15.960938 22.734375 16.234375 C 22.875 15.921875 23.234375 15.671875 23.4375 15.5625 C 23.507812 15.519531 23.566406 15.492188 23.636719 15.449219 C 23.585938 15.441406 23.527344 15.421875 23.445312 15.378906 Z M 20.300781 3.386719 L 20.203125 3.386719 L 19.398438 4.210938 L 18.914062 3.378906 L 18.824219 3.378906 L 19.398438 4.222656 Z M 19.539062 4.441406 L 20.792969 3.386719 L 20.683594 3.386719 Z M 19.226562 2.332031 L 20.300781 2.332031 C 19.890625 2.140625 19.328125 2.09375 19.328125 2.09375 C 19.328125 2.09375 19.265625 2.164062 19.226562 2.332031 Z M 18.253906 2.050781 L 17.8125 2.050781 C 17.8125 2.050781 17.660156 2.171875 17.621094 2.34375 L 18.0625 2.34375 Z M 18.394531 2.332031 L 18.90625 2.332031 L 19.054688 2.082031 C 18.886719 2.042969 18.542969 2.070312 18.542969 2.070312 C 18.542969 2.070312 18.433594 2.164062 18.394531 2.332031 Z M 18.414062 3.367188 L 19.246094 4.453125 L 18.503906 3.367188 Z M 15.84375 4.433594 C 15.863281 4.421875 15.882812 4.421875 15.902344 4.414062 C 15.953125 4.402344 16.011719 4.390625 16.074219 4.390625 C 16.183594 4.382812 16.292969 4.402344 16.386719 4.441406 C 16.59375 4.53125 17.015625 4.765625 17.570312 5.265625 C 17.269531 4.835938 16.785156 4.53125 16.476562 4.390625 C 16.386719 4.351562 16.285156 4.320312 16.183594 4.3125 C 16.125 4.300781 16.054688 4.300781 15.984375 4.292969 C 15.792969 4.273438 15.601562 4.3125 15.429688 4.414062 C 14.355469 4.996094 12.75 5.980469 11.773438 7.183594 C 13.480469 5.386719 15.5625 4.542969 15.84375 4.433594 Z M 9.59375 21.527344 L 9.375 21.796875 L 9.171875 21.628906 L 9.375 21.386719 C 8.628906 20.976562 7.777344 20.742188 6.863281 20.742188 C 6.683594 20.742188 6.492188 20.753906 6.300781 20.773438 C 4.914062 20.925781 3.679688 21.597656 2.804688 22.683594 C 1.929688 23.765625 1.53125 25.121094 1.679688 26.507812 C 1.960938 29.160156 4.191406 31.160156 6.851562 31.160156 C 7.035156 31.160156 7.226562 31.148438 7.414062 31.128906 C 8.800781 30.976562 10.035156 30.304688 10.910156 29.222656 C 11.132812 28.949219 11.324219 28.660156 11.484375 28.347656 L 7.847656 28.246094 L 7.847656 28.15625 L 11.523438 28.265625 C 11.722656 27.875 11.863281 27.453125 11.957031 27.019531 L 7.65625 26.628906 C 7.484375 26.832031 7.246094 26.972656 6.964844 27 C 6.382812 27.0625 5.867188 26.648438 5.808594 26.066406 C 5.75 25.484375 6.160156 24.972656 6.742188 24.910156 C 6.832031 24.902344 6.921875 24.902344 7.015625 24.921875 L 11.863281 19.136719 L 11.863281 19.125 C 11.523438 19.226562 11.0625 19.457031 10.75 19.941406 L 10.839844 20.019531 L 10.367188 20.59375 L 10.378906 20.601562 L 10.339844 20.664062 L 9.9375 21.285156 C 9.90625 21.265625 9.875 21.246094 9.847656 21.226562 L 9.734375 21.355469 C 9.777344 21.375 9.804688 21.398438 9.847656 21.425781 L 9.726562 21.609375 C 9.675781 21.578125 9.636719 21.558594 9.59375 21.527344 Z M 11.90625 28.367188 L 11.714844 28.355469 C 11.542969 28.707031 11.324219 29.050781 11.070312 29.363281 C 10.15625 30.484375 8.863281 31.199219 7.425781 31.351562 C 7.234375 31.371094 7.035156 31.378906 6.84375 31.378906 C 4.070312 31.378906 1.75 29.292969 1.460938 26.527344 C 1.308594 25.09375 1.71875 23.675781 2.632812 22.542969 C 3.546875 21.417969 4.84375 20.703125 6.28125 20.554688 C 6.472656 20.53125 6.671875 20.523438 6.863281 20.523438 C 7.828125 20.523438 8.730469 20.773438 9.515625 21.214844 L 9.625 21.085938 C 8.792969 20.613281 7.835938 20.351562 6.863281 20.351562 C 6.664062 20.351562 6.460938 20.363281 6.261719 20.382812 C 4.773438 20.542969 3.4375 21.265625 2.492188 22.429688 C 1.550781 23.597656 1.128906 25.050781 1.277344 26.539062 C 1.429688 27.925781 2.082031 29.191406 3.117188 30.125 C 4.140625 31.046875 5.46875 31.550781 6.84375 31.550781 C 7.042969 31.550781 7.246094 31.539062 7.445312 31.519531 C 8.933594 31.359375 10.269531 30.636719 11.210938 29.472656 C 11.484375 29.128906 11.722656 28.757812 11.90625 28.367188 Z M 12.335938 27.0625 L 12.167969 27.042969 C 12.074219 27.464844 11.945312 27.875 11.753906 28.265625 L 11.945312 28.277344 C 12.125 27.894531 12.257812 27.484375 12.335938 27.0625 Z M 13.101562 23.394531 L 12.457031 22.710938 C 12.457031 22.710938 13.972656 19.195312 14.808594 18.140625 C 14.667969 18.132812 14.597656 18.121094 14.347656 17.972656 C 14.324219 17.960938 14.226562 18.042969 14.207031 18.03125 C 13.511719 17.609375 12.488281 16.757812 11.535156 15.882812 L 12.476562 18.445312 L 12.628906 18.382812 L 12.730469 18.675781 L 14.4375 18.445312 L 14.136719 19.148438 L 12.960938 19.308594 L 13.109375 19.71875 L 12.960938 19.769531 L 13.261719 20.582031 L 12.917969 21.546875 L 12.347656 19.96875 L 12.207031 20.019531 L 12.136719 19.828125 L 7.726562 25.082031 L 10.527344 25.191406 L 10.527344 25.285156 L 7.636719 25.183594 L 7.605469 25.222656 C 7.765625 25.382812 7.867188 25.605469 7.898438 25.847656 C 7.90625 25.894531 7.90625 25.945312 7.90625 25.996094 L 12.046875 26.367188 C 12.054688 26.277344 12.054688 26.1875 12.054688 26.097656 L 12.265625 26.238281 C 12.265625 26.289062 12.257812 26.339844 12.257812 26.386719 L 12.425781 26.410156 C 12.425781 26.386719 12.425781 26.367188 12.425781 26.359375 L 12.46875 26.386719 C 12.136719 25.988281 12.003906 25.765625 11.746094 25.515625 C 11.394531 25.183594 10.628906 24.570312 10.640625 24.148438 C 10.648438 23.726562 11.300781 23.457031 11.714844 23.324219 C 11.773438 23.304688 11.824219 23.285156 11.875 23.265625 C 12.015625 23.183594 12.136719 23.082031 12.238281 23.011719 C 12.328125 22.933594 12.367188 22.863281 12.367188 22.863281 Z M 12.789062 28.308594 L 12.757812 28.296875 C 12.757812 28.296875 12.757812 28.308594 12.757812 28.308594 Z M 13.984375 27.492188 L 15.179688 27.421875 L 13.945312 27.394531 L 13.039062 27.371094 C 13.03125 27.433594 13.011719 27.484375 13 27.542969 L 13.058594 27.5625 L 13.03125 27.683594 L 12.96875 27.664062 C 12.949219 27.734375 12.929688 27.792969 12.910156 27.863281 L 12.96875 27.886719 L 12.929688 28.003906 L 12.871094 27.984375 C 12.847656 28.054688 12.828125 28.117188 12.800781 28.175781 L 12.859375 28.195312 L 12.820312 28.308594 L 14.847656 28.367188 C 14.457031 28.207031 14.136719 27.894531 13.984375 27.492188 Z M 22.289062 18.03125 L 17.320312 18.714844 C 17.507812 18.515625 17.671875 18.222656 17.800781 17.980469 L 22.21875 17.367188 L 21.667969 15.953125 C 21.488281 16.082031 21.234375 16.09375 21.035156 15.992188 L 20.5625 16.113281 C 20.242188 16.171875 20.152344 15.730469 20.28125 15.601562 L 20.402344 15.570312 C 20.019531 15.28125 19.648438 14.976562 19.1875 14.835938 C 18.375 14.578125 15.773438 13.089844 15.5625 11.996094 C 15.511719 11.734375 15.441406 11.402344 15.359375 11.050781 C 15.5 10.941406 15.652344 10.839844 15.800781 10.738281 C 16.214844 10.480469 16.6875 10.167969 17.136719 9.855469 C 17.179688 10.257812 17.207031 10.679688 17.207031 11.101562 C 17.5 11.746094 19.417969 14.054688 20.414062 14.246094 C 21.066406 14.367188 21.636719 14.414062 21.828125 14.71875 C 21.867188 14.777344 21.9375 14.976562 21.960938 15.058594 C 21.6875 15.089844 21.398438 15.167969 21.234375 15.328125 L 22.851562 14.917969 C 22.390625 14.535156 21.929688 14.074219 21.929688 14.074219 C 21.929688 14.074219 18.886719 11.703125 18.492188 11.140625 C 18.183594 10.699219 16.675781 8.511719 16.054688 7.605469 L 17.148438 9.523438 C 16.65625 9.875 16.132812 10.226562 15.652344 10.519531 C 14.699219 11.113281 14.054688 11.925781 13.742188 12.386719 L 12.125 11.652344 L 13.613281 12.589844 C 14.859375 13.503906 16.164062 14.957031 16.917969 16.144531 C 16.9375 16.171875 16.917969 16.34375 16.9375 16.375 C 16.707031 16.394531 16.175781 16.484375 15.773438 16.777344 C 16.175781 16.535156 16.65625 16.484375 17.007812 16.496094 C 17.367188 17.097656 17.558594 17.519531 17.589844 17.769531 C 17.691406 18.554688 13.742188 23.835938 13.742188 23.835938 C 13.742188 23.835938 13.613281 24.019531 13.480469 24.398438 C 13.351562 24.769531 13.421875 25.050781 13.613281 25.402344 C 13.804688 25.746094 13.933594 26.058594 14.023438 26.257812 C 14.054688 26.1875 14.09375 26.128906 14.136719 26.066406 C 14.144531 26.058594 14.15625 26.046875 14.164062 26.035156 C 14.246094 25.925781 14.347656 25.824219 14.445312 25.734375 L 13.761719 23.878906 L 14.246094 23.273438 L 15.039062 25.445312 C 15.109375 25.425781 15.179688 25.414062 15.25 25.402344 C 15.371094 25.394531 15.480469 25.394531 15.589844 25.402344 C 15.652344 25.402344 15.710938 25.414062 15.773438 25.425781 C 15.824219 25.445312 15.871094 25.453125 15.933594 25.472656 C 15.894531 25.453125 15.824219 25.414062 15.761719 25.402344 C 15.460938 25.304688 15.289062 25.3125 15.199219 25.3125 L 14.4375 23.222656 C 14.816406 22.703125 15.351562 21.96875 15.871094 21.195312 C 16.335938 20.523438 16.6875 19.992188 16.945312 19.558594 C 16.675781 21.4375 15.589844 23.90625 15.933594 25.464844 C 16.074219 25.515625 16.214844 25.585938 16.335938 25.675781 C 16.445312 25.753906 16.554688 25.847656 16.617188 25.9375 C 16.503906 25.734375 16.34375 25.59375 16.222656 25.503906 Z M 22.953125 17.066406 C 22.851562 16.957031 22.773438 16.816406 22.710938 16.65625 C 22.664062 16.523438 22.671875 16.40625 22.710938 16.285156 C 22.550781 15.992188 22.359375 15.742188 22.289062 15.660156 L 22.25 15.671875 L 22.882812 17.289062 C 22.914062 17.25 22.933594 17.207031 22.945312 17.15625 C 22.953125 17.136719 22.953125 17.109375 22.953125 17.066406 Z M 22.964844 17.007812 C 22.953125 16.804688 22.863281 16.566406 22.753906 16.34375 C 22.734375 16.445312 22.734375 16.546875 22.761719 16.644531 C 22.8125 16.785156 22.875 16.90625 22.964844 17.007812 Z M 12.308594 22.730469 C 12.308594 22.730469 12.316406 22.730469 12.308594 22.730469 C 12.277344 22.671875 12.238281 22.613281 12.207031 22.550781 L 12.265625 22.511719 L 12.195312 22.410156 L 12.136719 22.449219 C 12.097656 22.390625 12.054688 22.339844 12.015625 22.28125 L 12.066406 22.238281 L 11.996094 22.140625 L 11.945312 22.179688 C 11.90625 22.121094 11.863281 22.070312 11.816406 22.019531 L 11.863281 21.980469 L 11.785156 21.878906 L 11.734375 21.917969 C 11.695312 21.867188 11.644531 21.808594 11.605469 21.757812 L 11.652344 21.707031 L 11.574219 21.617188 L 11.523438 21.667969 C 11.472656 21.617188 11.433594 21.566406 11.382812 21.515625 L 11.433594 21.46875 L 11.34375 21.375 L 11.292969 21.425781 C 11.242188 21.375 11.183594 21.328125 11.132812 21.277344 L 10.589844 21.789062 C 11.0625 22.210938 11.453125 22.710938 11.753906 23.253906 C 12.003906 23.105469 12.167969 22.921875 12.246094 22.8125 L 12.285156 22.882812 L 12.425781 22.800781 L 12.367188 22.691406 Z M 29.902344 28.820312 C 29.933594 28.777344 29.972656 28.738281 30.015625 28.6875 C 30.054688 28.636719 30.09375 28.589844 30.144531 28.527344 C 30.183594 28.46875 30.234375 28.398438 30.285156 28.328125 C 30.386719 28.175781 30.488281 28.003906 30.578125 27.816406 C 30.769531 27.421875 30.929688 26.929688 30.980469 26.386719 C 30.988281 26.316406 30.988281 26.246094 31 26.175781 C 31 26.105469 31 26.035156 31.007812 25.964844 C 31.007812 25.894531 31.007812 25.824219 31.007812 25.753906 C 31.007812 25.683594 31 25.613281 31 25.542969 C 30.96875 25.261719 30.917969 24.972656 30.839844 24.691406 C 30.757812 24.410156 30.636719 24.136719 30.507812 23.886719 C 30.367188 23.636719 30.214844 23.394531 30.042969 23.183594 C 29.703125 22.761719 29.292969 22.441406 28.917969 22.21875 C 28.730469 22.109375 28.546875 22.019531 28.386719 21.949219 C 28.226562 21.878906 28.074219 21.828125 27.957031 21.796875 C 27.835938 21.757812 27.734375 21.738281 27.675781 21.726562 C 27.605469 21.71875 27.574219 21.707031 27.574219 21.707031 C 27.574219 21.707031 27.605469 21.71875 27.675781 21.738281 C 27.746094 21.757812 27.835938 21.789062 27.957031 21.820312 C 28.074219 21.859375 28.214844 21.910156 28.378906 21.988281 C 28.539062 22.058594 28.707031 22.148438 28.890625 22.269531 C 29.070312 22.378906 29.261719 22.519531 29.441406 22.683594 C 29.621094 22.84375 29.804688 23.035156 29.972656 23.246094 C 30.144531 23.457031 30.296875 23.6875 30.425781 23.9375 C 30.558594 24.1875 30.667969 24.449219 30.746094 24.722656 C 30.828125 24.992188 30.886719 25.273438 30.910156 25.554688 C 30.917969 25.625 30.917969 25.695312 30.929688 25.765625 C 30.929688 25.835938 30.929688 25.90625 30.929688 25.976562 C 30.929688 26.046875 30.929688 26.117188 30.929688 26.1875 C 30.929688 26.257812 30.917969 26.316406 30.917969 26.386719 C 30.886719 26.660156 30.847656 26.910156 30.777344 27.152344 C 30.71875 27.394531 30.628906 27.605469 30.546875 27.804688 C 30.457031 27.996094 30.355469 28.175781 30.265625 28.316406 C 30.214844 28.386719 30.175781 28.457031 30.136719 28.519531 C 30.085938 28.578125 30.042969 28.636719 30.015625 28.6875 C 29.964844 28.730469 29.925781 28.769531 29.902344 28.820312 C 29.863281 28.847656 29.832031 28.878906 29.8125 28.910156 C 29.773438 28.960938 29.742188 28.988281 29.742188 28.988281 C 29.742188 28.988281 29.773438 28.960938 29.8125 28.917969 C 29.84375 28.878906 29.875 28.847656 29.902344 28.820312 Z M 29.902344 26.679688 C 29.882812 26.789062 29.855469 26.902344 29.832031 26.992188 C 29.804688 27.082031 29.785156 27.160156 29.753906 27.222656 C 29.734375 27.28125 29.714844 27.332031 29.691406 27.371094 C 29.683594 27.402344 29.671875 27.421875 29.671875 27.421875 C 29.671875 27.421875 29.683594 27.402344 29.703125 27.371094 C 29.722656 27.34375 29.742188 27.292969 29.773438 27.230469 C 29.804688 27.171875 29.832031 27.089844 29.863281 27 C 29.894531 26.910156 29.925781 26.808594 29.953125 26.691406 C 29.984375 26.578125 30.003906 26.449219 30.023438 26.308594 C 30.042969 26.175781 30.054688 26.027344 30.042969 25.875 C 30.042969 25.726562 30.035156 25.574219 30.003906 25.414062 C 29.996094 25.332031 29.984375 25.261719 29.964844 25.183594 C 29.945312 25.101562 29.933594 25.03125 29.902344 24.953125 L 29.863281 24.839844 C 29.855469 24.800781 29.832031 24.769531 29.824219 24.730469 C 29.8125 24.691406 29.792969 24.660156 29.785156 24.621094 C 29.761719 24.582031 29.753906 24.550781 29.734375 24.511719 C 29.714844 24.46875 29.703125 24.441406 29.683594 24.398438 C 29.664062 24.371094 29.644531 24.328125 29.621094 24.300781 C 29.601562 24.269531 29.582031 24.230469 29.5625 24.199219 C 29.542969 24.167969 29.523438 24.136719 29.503906 24.109375 C 29.460938 24.046875 29.421875 23.988281 29.382812 23.925781 C 29.339844 23.867188 29.292969 23.816406 29.25 23.765625 C 29.230469 23.738281 29.210938 23.714844 29.179688 23.6875 C 29.160156 23.667969 29.128906 23.636719 29.109375 23.617188 C 29.089844 23.597656 29.070312 23.566406 29.039062 23.546875 C 29.019531 23.527344 29 23.503906 28.96875 23.484375 C 28.929688 23.445312 28.890625 23.40625 28.839844 23.375 C 28.800781 23.34375 28.757812 23.316406 28.71875 23.285156 C 28.636719 23.222656 28.566406 23.183594 28.519531 23.144531 C 28.398438 23.074219 28.328125 23.035156 28.328125 23.035156 C 28.328125 23.035156 28.386719 23.074219 28.507812 23.152344 C 28.558594 23.195312 28.628906 23.246094 28.699219 23.304688 C 28.738281 23.335938 28.769531 23.375 28.808594 23.40625 C 28.847656 23.433594 28.890625 23.484375 28.929688 23.527344 C 28.949219 23.546875 28.96875 23.566406 28.988281 23.585938 C 29.011719 23.605469 29.03125 23.636719 29.050781 23.65625 C 29.070312 23.675781 29.089844 23.707031 29.109375 23.726562 C 29.128906 23.746094 29.152344 23.777344 29.171875 23.808594 C 29.210938 23.855469 29.25 23.917969 29.292969 23.96875 C 29.332031 24.027344 29.371094 24.078125 29.410156 24.148438 C 29.433594 24.179688 29.453125 24.207031 29.472656 24.238281 C 29.492188 24.269531 29.511719 24.300781 29.523438 24.339844 C 29.542969 24.371094 29.550781 24.410156 29.574219 24.441406 C 29.59375 24.46875 29.601562 24.511719 29.621094 24.539062 C 29.644531 24.570312 29.652344 24.609375 29.671875 24.640625 C 29.683594 24.679688 29.703125 24.710938 29.714844 24.75 C 29.722656 24.792969 29.742188 24.820312 29.753906 24.863281 L 29.785156 24.972656 C 29.8125 25.042969 29.824219 25.121094 29.84375 25.191406 C 29.863281 25.261719 29.875 25.34375 29.882812 25.425781 C 29.902344 25.574219 29.925781 25.726562 29.925781 25.867188 C 29.933594 26.007812 29.925781 26.15625 29.914062 26.289062 C 29.945312 26.4375 29.933594 26.570312 29.902344 26.679688 Z M 7.507812 21.65625 C 7.457031 21.648438 7.40625 21.636719 7.335938 21.628906 C 7.273438 21.617188 7.203125 21.617188 7.125 21.609375 C 7.042969 21.609375 6.964844 21.597656 6.875 21.597656 C 6.691406 21.597656 6.5 21.597656 6.28125 21.628906 C 5.847656 21.679688 5.347656 21.808594 4.863281 22.050781 C 4.804688 22.078125 4.742188 22.109375 4.683594 22.148438 C 4.625 22.191406 4.5625 22.21875 4.503906 22.261719 C 4.441406 22.300781 4.382812 22.339844 4.320312 22.378906 C 4.261719 22.421875 4.203125 22.460938 4.152344 22.511719 C 3.921875 22.683594 3.710938 22.882812 3.519531 23.105469 C 3.328125 23.324219 3.15625 23.566406 3.027344 23.816406 C 2.886719 24.066406 2.773438 24.328125 2.683594 24.589844 C 2.515625 25.113281 2.464844 25.625 2.472656 26.058594 C 2.472656 26.277344 2.503906 26.46875 2.535156 26.648438 C 2.5625 26.820312 2.605469 26.972656 2.632812 27.089844 C 2.675781 27.210938 2.703125 27.300781 2.726562 27.371094 C 2.746094 27.433594 2.765625 27.472656 2.765625 27.472656 C 2.765625 27.472656 2.753906 27.441406 2.734375 27.371094 C 2.714844 27.3125 2.683594 27.210938 2.65625 27.089844 C 2.625 26.972656 2.59375 26.820312 2.574219 26.648438 C 2.554688 26.480469 2.535156 26.277344 2.535156 26.066406 C 2.535156 25.855469 2.542969 25.613281 2.585938 25.375 C 2.625 25.132812 2.683594 24.882812 2.765625 24.621094 C 2.855469 24.371094 2.964844 24.109375 3.105469 23.867188 C 3.246094 23.625 3.40625 23.386719 3.597656 23.175781 C 3.789062 22.953125 3.992188 22.761719 4.210938 22.582031 C 4.273438 22.542969 4.320312 22.5 4.382812 22.449219 C 4.441406 22.410156 4.503906 22.371094 4.554688 22.339844 C 4.613281 22.300781 4.671875 22.269531 4.734375 22.230469 C 4.792969 22.199219 4.855469 22.167969 4.914062 22.128906 C 5.15625 22.007812 5.398438 21.910156 5.628906 21.839844 C 5.859375 21.769531 6.089844 21.71875 6.300781 21.6875 C 6.511719 21.65625 6.710938 21.648438 6.882812 21.648438 C 6.972656 21.648438 7.054688 21.648438 7.125 21.648438 C 7.203125 21.65625 7.265625 21.65625 7.335938 21.65625 C 7.394531 21.667969 7.457031 21.667969 7.507812 21.679688 C 7.554688 21.6875 7.597656 21.6875 7.625 21.699219 C 7.695312 21.707031 7.726562 21.71875 7.726562 21.71875 C 7.726562 21.71875 7.6875 21.707031 7.625 21.699219 C 7.585938 21.679688 7.546875 21.667969 7.507812 21.65625 Z M 6.242188 22.621094 C 6.171875 22.632812 6.089844 22.652344 6 22.671875 C 5.910156 22.691406 5.796875 22.722656 5.6875 22.761719 C 5.578125 22.800781 5.457031 22.851562 5.335938 22.902344 C 5.214844 22.964844 5.085938 23.035156 4.964844 23.113281 C 4.84375 23.195312 4.714844 23.285156 4.601562 23.394531 C 4.542969 23.445312 4.484375 23.496094 4.433594 23.554688 C 4.382812 23.617188 4.320312 23.667969 4.273438 23.726562 L 4.191406 23.816406 C 4.160156 23.847656 4.140625 23.878906 4.121094 23.90625 C 4.101562 23.9375 4.070312 23.96875 4.050781 24.007812 C 4.03125 24.039062 4.011719 24.078125 3.992188 24.109375 C 3.96875 24.136719 3.949219 24.179688 3.929688 24.207031 C 3.910156 24.238281 3.890625 24.277344 3.871094 24.308594 C 3.851562 24.339844 3.828125 24.378906 3.820312 24.410156 C 3.800781 24.441406 3.789062 24.480469 3.769531 24.511719 C 3.738281 24.582031 3.710938 24.640625 3.6875 24.710938 C 3.660156 24.78125 3.640625 24.839844 3.617188 24.910156 C 3.609375 24.941406 3.597656 24.972656 3.589844 25.011719 C 3.578125 25.042969 3.570312 25.074219 3.570312 25.101562 C 3.558594 25.132812 3.558594 25.164062 3.546875 25.191406 C 3.539062 25.222656 3.539062 25.253906 3.527344 25.285156 C 3.519531 25.34375 3.507812 25.394531 3.5 25.453125 C 3.488281 25.503906 3.488281 25.554688 3.488281 25.605469 C 3.476562 25.707031 3.476562 25.785156 3.476562 25.855469 C 3.488281 25.996094 3.488281 26.078125 3.488281 26.078125 C 3.488281 26.078125 3.488281 25.996094 3.5 25.855469 C 3.507812 25.785156 3.507812 25.707031 3.527344 25.613281 C 3.539062 25.566406 3.546875 25.515625 3.546875 25.464844 C 3.558594 25.414062 3.570312 25.355469 3.578125 25.304688 C 3.589844 25.273438 3.589844 25.242188 3.597656 25.214844 C 3.609375 25.183594 3.617188 25.152344 3.628906 25.121094 C 3.640625 25.09375 3.648438 25.0625 3.660156 25.03125 C 3.667969 25.003906 3.679688 24.972656 3.6875 24.941406 C 3.710938 24.882812 3.730469 24.8125 3.757812 24.75 C 3.789062 24.691406 3.808594 24.621094 3.851562 24.550781 C 3.871094 24.519531 3.878906 24.480469 3.898438 24.449219 C 3.921875 24.417969 3.941406 24.390625 3.949219 24.347656 C 3.96875 24.320312 3.992188 24.289062 4.011719 24.25 C 4.03125 24.21875 4.050781 24.1875 4.070312 24.148438 C 4.089844 24.117188 4.109375 24.089844 4.132812 24.046875 C 4.152344 24.019531 4.179688 23.988281 4.203125 23.957031 C 4.222656 23.925781 4.25 23.898438 4.273438 23.867188 L 4.351562 23.777344 C 4.402344 23.714844 4.453125 23.667969 4.511719 23.605469 C 4.5625 23.546875 4.625 23.496094 4.683594 23.445312 C 4.792969 23.34375 4.914062 23.253906 5.035156 23.175781 C 5.15625 23.09375 5.277344 23.023438 5.398438 22.953125 C 5.515625 22.894531 5.628906 22.84375 5.738281 22.792969 C 5.847656 22.753906 5.949219 22.710938 6.039062 22.691406 C 6.128906 22.660156 6.210938 22.640625 6.28125 22.632812 C 6.351562 22.621094 6.402344 22.601562 6.441406 22.601562 C 6.480469 22.589844 6.5 22.589844 6.5 22.589844 C 6.5 22.589844 6.480469 22.589844 6.441406 22.589844 C 6.359375 22.601562 6.300781 22.613281 6.242188 22.621094 Z M 6.242188 22.621094 " fill-opacity="1" fill-rule="nonzero"/></g></svg>