<svg xmlns="http://www.w3.org/2000/svg" xmlns:xlink="http://www.w3.org/1999/xlink" width="45" zoomAndPan="magnify" viewBox="0 0 33.75 33.749998" height="45" preserveAspectRatio="xMidYMid meet" version="1.0"><defs><clipPath id="4b13ab93ac"><path d="M 0 0.734375 L 33.5 0.734375 L 33.5 32.746094 L 0 32.746094 Z M 0 0.734375 " clip-rule="nonzero"/></clipPath></defs><g clip-path="url(#4b13ab93ac)"><path fill="#ff3131" d="M 12.824219 0.761719 C 5.859375 0.761719 0.0742188 5.820312 0.0742188 12.183594 C 0.0742188 15.238281 1.4375 18.011719 3.605469 20.058594 L 3.535156 20.394531 C 3.046875 21.824219 1.847656 22.632812 1.132812 22.890625 C 0.71875 23.039062 0.375 23.261719 0.1875 23.65625 C 0 24.042969 0.113281 24.582031 0.394531 24.863281 C 1.0625 25.53125 1.921875 25.464844 2.554688 25.472656 C 4.925781 25.5 7.71875 24.257812 9.410156 23.410156 L 9.429688 23.402344 L 10.007812 23.066406 L 9.785156 23 L 9.8125 23.003906 C 10.753906 23.222656 11.742188 23.292969 12.714844 23.292969 C 18.835938 23.292969 24.105469 19.632812 25.269531 14.367188 L 25.269531 14.363281 C 25.425781 13.664062 25.507812 12.933594 25.507812 12.183594 C 25.507812 5.828125 19.789062 0.761719 12.824219 0.761719 Z M 12.824219 2.214844 C 19.085938 2.214844 24.054688 6.703125 24.054688 12.183594 C 24.054688 12.828125 23.984375 13.453125 23.851562 14.050781 C 22.855469 18.546875 18.261719 21.839844 12.714844 21.839844 C 11.816406 21.839844 10.933594 21.769531 10.144531 21.589844 L 9.828125 21.496094 L 8.75 22.113281 C 7.144531 22.917969 4.375 24.039062 2.570312 24.019531 C 2.324219 24.019531 2.300781 23.96875 2.128906 23.949219 C 3.160156 23.445312 4.351562 22.527344 4.921875 20.839844 L 4.933594 20.804688 L 5.195312 19.578125 L 4.871094 19.292969 C 2.792969 17.476562 1.527344 14.949219 1.527344 12.183594 C 1.527344 6.707031 6.5625 2.214844 12.824219 2.214844 Z M 6.613281 7.304688 L 6.613281 8.757812 L 18.96875 8.757812 L 18.96875 7.304688 Z M 6.613281 10.9375 L 6.613281 12.390625 L 18.96875 12.390625 L 18.96875 10.9375 Z M 26.804688 13.984375 C 26.769531 14.21875 26.742188 14.453125 26.691406 14.679688 C 26.636719 14.929688 26.5625 15.175781 26.488281 15.421875 C 29.835938 16.714844 32.035156 19.316406 32.035156 22.210938 C 32.035156 24.285156 30.957031 26.222656 28.992188 27.675781 L 28.597656 27.96875 L 28.722656 28.445312 C 29.113281 29.945312 30.488281 30.71875 31.4375 31.238281 C 29.929688 31.441406 26.65625 31.101562 25.007812 29.152344 L 24.734375 28.824219 L 24.3125 28.910156 C 23.652344 29.039062 22.886719 29.105469 21.964844 29.105469 C 17.445312 29.105469 13.773438 27.355469 12.347656 24.734375 C 11.757812 24.722656 11.207031 24.683594 10.691406 24.621094 C 12.039062 28.191406 16.371094 30.558594 21.964844 30.558594 C 22.800781 30.558594 23.53125 30.507812 24.1875 30.40625 C 25.792969 32.03125 28.40625 32.734375 30.523438 32.734375 C 30.664062 32.734375 30.800781 32.734375 30.9375 32.726562 C 32.164062 32.671875 32.964844 32.386719 33.320312 31.882812 C 33.476562 31.65625 33.53125 31.390625 33.46875 31.128906 C 33.347656 30.609375 32.867188 30.355469 32.207031 30 C 31.558594 29.648438 30.703125 29.183594 30.300781 28.496094 C 32.339844 26.8125 33.492188 24.554688 33.492188 22.210938 C 33.492188 18.644531 30.824219 15.460938 26.804688 13.984375 Z M 6.613281 14.570312 L 6.613281 16.023438 L 15.332031 16.023438 L 15.332031 14.570312 Z M 24.792969 18.929688 C 24.429688 19.441406 24.027344 19.929688 23.589844 20.382812 L 26.960938 20.382812 L 26.960938 18.929688 Z M 20.847656 22.566406 C 19.847656 23.167969 18.75 23.65625 17.582031 24.019531 L 26.960938 24.019531 L 26.960938 22.566406 Z M 20.847656 22.566406 " fill-opacity="1" fill-rule="nonzero"/></g></svg>