<svg xmlns="http://www.w3.org/2000/svg" xmlns:xlink="http://www.w3.org/1999/xlink" width="45" zoomAndPan="magnify" viewBox="0 0 33.75 33.749998" height="45" preserveAspectRatio="xMidYMid meet" version="1.0"><defs><clipPath id="12b7a6881c"><path d="M 0 0 L 33.5 0 L 33.5 33.5 L 0 33.5 Z M 0 0 " clip-rule="nonzero"/></clipPath></defs><g clip-path="url(#12b7a6881c)"><path fill="#ff0000" d="M 16.75 0 C 7.5 0 0 7.5 0 16.75 C 0 26 7.5 33.5 16.75 33.5 C 26 33.5 33.5 26 33.5 16.75 C 33.5 7.5 26 0 16.75 0 Z M 26.179688 14.164062 L 16.378906 23.964844 C 15.90625 24.4375 15.265625 24.703125 14.597656 24.703125 C 13.9375 24.703125 13.300781 24.4375 12.828125 23.964844 L 7.933594 19.070312 C 6.949219 18.085938 6.949219 16.503906 7.933594 15.523438 C 8.917969 14.550781 10.488281 14.550781 11.472656 15.523438 L 14.597656 18.65625 L 22.628906 10.625 C 23.613281 9.644531 25.195312 9.644531 26.179688 10.625 C 27.152344 11.601562 27.152344 13.183594 26.179688 14.164062 Z M 26.179688 14.164062 " fill-opacity="1" fill-rule="nonzero"/></g><path fill="#ffffff" d="M 26.179688 14.164062 L 16.378906 23.964844 C 15.90625 24.4375 15.265625 24.703125 14.597656 24.703125 C 13.9375 24.703125 13.300781 24.4375 12.828125 23.964844 L 7.933594 19.070312 C 6.949219 18.085938 6.949219 16.503906 7.933594 15.523438 C 8.917969 14.550781 10.488281 14.550781 11.472656 15.523438 L 14.597656 18.65625 L 22.628906 10.625 C 23.613281 9.644531 25.195312 9.644531 26.179688 10.625 C 27.152344 11.601562 27.152344 13.183594 26.179688 14.164062 Z M 26.179688 14.164062 " fill-opacity="1" fill-rule="nonzero"/></svg>