<svg xmlns="http://www.w3.org/2000/svg" xmlns:xlink="http://www.w3.org/1999/xlink" width="45" zoomAndPan="magnify" viewBox="0 0 33.75 33.749998" height="45" preserveAspectRatio="xMidYMid meet" version="1.0"><defs><clipPath id="9b324a1d1e"><path d="M 4.519531 14.019531 L 29 14.019531 L 29 33.375 L 4.519531 33.375 Z M 4.519531 14.019531 " clip-rule="nonzero"/></clipPath><clipPath id="01f1ebc7e7"><path d="M 20.523438 4.183594 L 33.179688 4.183594 L 33.179688 16.839844 L 20.523438 16.839844 Z M 20.523438 4.183594 " clip-rule="nonzero"/></clipPath><clipPath id="6e9eddd2fa"><path d="M 24 14 L 27 14 L 27 16.839844 L 24 16.839844 Z M 24 14 " clip-rule="nonzero"/></clipPath><clipPath id="653714b6a1"><path d="M 20.523438 11 L 23 11 L 23 12 L 20.523438 12 Z M 20.523438 11 " clip-rule="nonzero"/></clipPath></defs><g clip-path="url(#9b324a1d1e)"><path fill="#ffff" d="M 28.957031 22.894531 L 28.667969 22.097656 C 28.511719 21.65625 28.015625 21.296875 27.574219 21.296875 L 26.554688 21.296875 C 25.800781 19.203125 24.886719 16.675781 24.601562 16.082031 C 24.183594 15.152344 22.851562 14.738281 22.121094 14.53125 C 22.121094 14.53125 20.898438 14.066406 16.800781 14.066406 C 12.707031 14.066406 11.507812 14.53125 11.507812 14.53125 C 10.648438 14.816406 9.445312 15.230469 8.976562 16.105469 C 8.742188 16.546875 7.804688 19.128906 7.046875 21.296875 L 6.054688 21.296875 C 5.613281 21.296875 5.117188 21.65625 4.960938 22.097656 L 4.675781 22.894531 C 4.519531 23.335938 4.753906 23.695312 5.195312 23.695312 L 6.214844 23.695312 C 6.082031 24.058594 6.003906 24.265625 6.003906 24.265625 C 5.925781 24.394531 5.875 24.988281 5.875 25.167969 L 5.875 32.472656 C 5.875 32.9375 6.265625 33.324219 6.734375 33.324219 L 9.863281 33.324219 C 10.332031 33.324219 10.726562 32.9375 10.726562 32.472656 L 10.726562 30.925781 L 22.90625 30.925781 L 22.90625 32.472656 C 22.90625 32.9375 23.296875 33.324219 23.765625 33.324219 L 26.921875 33.324219 C 27.390625 33.324219 27.78125 32.9375 27.78125 32.472656 L 27.78125 25.167969 C 27.78125 25.011719 27.730469 24.394531 27.652344 24.265625 C 27.652344 24.265625 27.574219 24.058594 27.441406 23.695312 L 28.433594 23.695312 C 28.851562 23.695312 29.085938 23.335938 28.957031 22.894531 Z M 10.726562 27.386719 L 9.683594 26.691406 C 7.75 26.535156 7.515625 27.207031 7.101562 26.484375 L 7.101562 25.605469 C 7.101562 24.753906 7.59375 24.730469 8.144531 24.730469 C 8.664062 24.730469 9.707031 25.167969 10.410156 25.476562 C 11.167969 25.8125 11.714844 25.527344 12.003906 26.640625 C 11.976562 27.15625 11.691406 27.386719 10.726562 27.386719 Z M 8.898438 21.632812 C 9.550781 18.996094 10.648438 17.164062 10.804688 16.726562 C 10.90625 16.417969 10.648438 15.847656 16.828125 15.847656 C 23.007812 15.847656 22.671875 16.675781 22.695312 16.699219 C 22.984375 17.292969 24.128906 19.230469 24.730469 21.632812 C 24.730469 21.632812 22.410156 21.941406 17.113281 21.941406 C 11.820312 21.941406 8.898438 21.632812 8.898438 21.632812 Z M 21.652344 26.640625 C 22.878906 25.140625 22.488281 25.8125 23.242188 25.476562 C 23.921875 25.167969 24.992188 24.730469 25.511719 24.730469 C 26.058594 24.730469 26.554688 24.753906 26.554688 25.605469 L 26.554688 26.484375 C 26.164062 27.179688 25.824219 26.5625 23.871094 26.742188 L 22.90625 27.363281 C 21.941406 27.386719 21.3125 27.027344 21.652344 26.640625 Z M 21.652344 26.640625 " fill-opacity="1" fill-rule="nonzero"/></g><g clip-path="url(#01f1ebc7e7)"><path fill="#ffff" d="M 27.179688 7.429688 L 30.871094 5.386719 L 29.527344 9.296875 L 30.90625 8.945312 L 30.324219 9.878906 L 33.179688 9.570312 L 30.507812 11.496094 L 32.109375 14.429688 L 28.554688 12.882812 L 26.960938 16.375 L 26.578125 13.976562 L 23.597656 16.0625 L 24.578125 12.582031 L 20.90625 12.464844 L 24.214844 10.675781 L 22.179688 10.25 L 23.523438 9.453125 L 20.523438 6.925781 L 24.542969 7.820312 L 23.523438 4.183594 L 25.871094 7.351562 L 25.980469 4.335938 Z M 27.179688 7.429688 " fill-opacity="1" fill-rule="nonzero"/></g><path fill="#ffff" d="M 31.523438 5.175781 L 30.542969 7.710938 L 32.25 5.347656 Z M 31.523438 5.175781 " fill-opacity="1" fill-rule="nonzero"/><g clip-path="url(#6e9eddd2fa)"><path fill="#ffff" d="M 26.3125 14.695312 L 24.15625 16.667969 L 25.949219 16.835938 Z M 26.3125 14.695312 " fill-opacity="1" fill-rule="nonzero"/></g><g clip-path="url(#653714b6a1)"><path fill="#ffff" d="M 21.089844 11.886719 L 22.945312 11.050781 L 20.855469 11.015625 Z M 21.089844 11.886719 " fill-opacity="1" fill-rule="nonzero"/></g></svg>