<svg xmlns="http://www.w3.org/2000/svg" xmlns:xlink="http://www.w3.org/1999/xlink" width="45" zoomAndPan="magnify" viewBox="0 0 33.75 33.749998" height="45" preserveAspectRatio="xMidYMid meet" version="1.0"><defs><clipPath id="851e9c19c3"><path d="M 4.519531 14.019531 L 29 14.019531 L 29 33.375 L 4.519531 33.375 Z M 4.519531 14.019531 " clip-rule="nonzero"/></clipPath><clipPath id="006bfa3d42"><path d="M 16 1.625 L 19 1.625 L 19 6 L 16 6 Z M 16 1.625 " clip-rule="nonzero"/></clipPath><clipPath id="8dc90776c0"><path d="M 13 1.625 L 22 1.625 L 22 10 L 13 10 Z M 13 1.625 " clip-rule="nonzero"/></clipPath><clipPath id="29f789e4a2"><path d="M 9.890625 6 L 12 6 L 12 12.792969 L 9.890625 12.792969 Z M 9.890625 6 " clip-rule="nonzero"/></clipPath><clipPath id="92d27c853a"><path d="M 12 7 L 23.289062 7 L 23.289062 12.792969 L 12 12.792969 Z M 12 7 " clip-rule="nonzero"/></clipPath></defs><g clip-path="url(#851e9c19c3)"><path fill="#ffff" d="M 28.957031 22.894531 L 28.667969 22.097656 C 28.511719 21.65625 28.015625 21.296875 27.574219 21.296875 L 26.554688 21.296875 C 25.800781 19.203125 24.886719 16.675781 24.601562 16.082031 C 24.183594 15.152344 22.851562 14.738281 22.121094 14.53125 C 22.121094 14.53125 20.898438 14.066406 16.800781 14.066406 C 12.707031 14.066406 11.507812 14.53125 11.507812 14.53125 C 10.648438 14.816406 9.445312 15.230469 8.976562 16.105469 C 8.742188 16.546875 7.804688 19.128906 7.046875 21.296875 L 6.054688 21.296875 C 5.613281 21.296875 5.117188 21.65625 4.960938 22.097656 L 4.675781 22.894531 C 4.519531 23.335938 4.753906 23.695312 5.195312 23.695312 L 6.214844 23.695312 C 6.082031 24.058594 6.003906 24.265625 6.003906 24.265625 C 5.925781 24.394531 5.875 24.988281 5.875 25.167969 L 5.875 32.472656 C 5.875 32.9375 6.265625 33.324219 6.734375 33.324219 L 9.863281 33.324219 C 10.332031 33.324219 10.726562 32.9375 10.726562 32.472656 L 10.726562 30.925781 L 22.90625 30.925781 L 22.90625 32.472656 C 22.90625 32.9375 23.296875 33.324219 23.765625 33.324219 L 26.921875 33.324219 C 27.390625 33.324219 27.78125 32.9375 27.78125 32.472656 L 27.78125 25.167969 C 27.78125 25.011719 27.730469 24.394531 27.652344 24.265625 C 27.652344 24.265625 27.574219 24.058594 27.441406 23.695312 L 28.433594 23.695312 C 28.851562 23.695312 29.085938 23.335938 28.957031 22.894531 Z M 10.726562 27.386719 L 9.683594 26.691406 C 7.75 26.535156 7.515625 27.207031 7.101562 26.484375 L 7.101562 25.605469 C 7.101562 24.753906 7.59375 24.730469 8.144531 24.730469 C 8.664062 24.730469 9.707031 25.167969 10.410156 25.476562 C 11.167969 25.8125 11.714844 25.527344 12.003906 26.640625 C 11.976562 27.15625 11.691406 27.386719 10.726562 27.386719 Z M 8.898438 21.632812 C 9.550781 18.996094 10.648438 17.164062 10.804688 16.726562 C 10.90625 16.417969 10.648438 15.847656 16.828125 15.847656 C 23.007812 15.847656 22.671875 16.675781 22.695312 16.699219 C 22.984375 17.292969 24.128906 19.230469 24.730469 21.632812 C 24.730469 21.632812 22.410156 21.941406 17.113281 21.941406 C 11.820312 21.941406 8.898438 21.632812 8.898438 21.632812 Z M 21.652344 26.640625 C 22.878906 25.140625 22.488281 25.8125 23.242188 25.476562 C 23.921875 25.167969 24.992188 24.730469 25.511719 24.730469 C 26.058594 24.730469 26.554688 24.753906 26.554688 25.605469 L 26.554688 26.484375 C 26.164062 27.179688 25.824219 26.5625 23.871094 26.742188 L 22.90625 27.363281 C 21.941406 27.386719 21.3125 27.027344 21.652344 26.640625 Z M 21.652344 26.640625 " fill-opacity="1" fill-rule="nonzero"/></g><g clip-path="url(#006bfa3d42)"><path fill="#ffff" d="M 18.410156 1.65625 L 18.410156 5.199219 L 17.414062 4.304688 C 17.339844 4.238281 17.261719 4.238281 17.1875 4.304688 L 16.191406 5.199219 L 16.191406 1.65625 Z M 18.410156 1.65625 " fill-opacity="1" fill-rule="nonzero"/></g><g clip-path="url(#8dc90776c0)"><path fill="#ffff" d="M 13.496094 2.234375 C 13.496094 2.074219 13.550781 1.9375 13.660156 1.824219 C 13.769531 1.710938 13.902344 1.65625 14.054688 1.65625 L 15.84375 1.65625 L 15.84375 5.59375 C 15.84375 5.671875 15.878906 5.726562 15.945312 5.757812 C 16.011719 5.789062 16.074219 5.78125 16.132812 5.730469 L 17.300781 4.679688 L 18.464844 5.730469 C 18.523438 5.78125 18.585938 5.789062 18.652344 5.757812 C 18.722656 5.726562 18.753906 5.671875 18.753906 5.59375 L 18.753906 1.65625 L 20.546875 1.65625 C 20.699219 1.65625 20.832031 1.710938 20.941406 1.824219 C 21.050781 1.9375 21.101562 2.074219 21.101562 2.234375 L 21.101562 8.464844 L 18.96875 9.378906 C 18.941406 8.78125 18.378906 8.347656 18.351562 8.328125 C 18.320312 8.304688 18.289062 8.292969 18.25 8.292969 L 15.792969 8.292969 L 13.613281 7.355469 C 13.59375 7.347656 13.570312 7.34375 13.546875 7.34375 L 13.496094 7.34375 Z M 13.496094 2.234375 " fill-opacity="1" fill-rule="nonzero"/></g><g clip-path="url(#29f789e4a2)"><path fill="#ffff" d="M 9.882812 6.894531 L 11.789062 6.894531 L 11.789062 12.179688 L 9.882812 12.179688 Z M 9.882812 6.894531 " fill-opacity="1" fill-rule="nonzero"/></g><g clip-path="url(#92d27c853a)"><path fill="#ffff" d="M 23.121094 9.296875 C 22.582031 9.601562 18.257812 12.058594 17.515625 12.425781 C 16.800781 12.777344 15.972656 12.425781 15.960938 12.417969 L 13.609375 11.492188 C 13.589844 11.484375 13.566406 11.480469 13.546875 11.480469 L 12.140625 11.480469 L 12.140625 7.703125 L 13.511719 7.703125 L 15.691406 8.640625 C 15.714844 8.648438 15.734375 8.652344 15.757812 8.652344 L 18.1875 8.652344 C 18.324219 8.769531 18.726562 9.167969 18.589844 9.609375 C 18.585938 9.621094 18.585938 9.632812 18.585938 9.648438 C 18.578125 9.65625 18.570312 9.667969 18.566406 9.675781 C 18.476562 9.859375 18.351562 10.003906 18.191406 10.117188 L 15.898438 10.117188 C 15.78125 10.117188 15.722656 10.179688 15.722656 10.296875 C 15.722656 10.417969 15.78125 10.480469 15.898438 10.480469 L 18.25 10.480469 C 18.285156 10.480469 18.320312 10.46875 18.351562 10.445312 C 18.582031 10.289062 18.761719 10.082031 18.882812 9.824219 C 18.886719 9.816406 18.886719 9.808594 18.886719 9.800781 L 22.542969 8.238281 C 22.835938 8.238281 23.035156 8.316406 23.128906 8.46875 C 23.28125 8.703125 23.1875 9.101562 23.121094 9.296875 Z M 23.121094 9.296875 " fill-opacity="1" fill-rule="nonzero"/></g></svg>