<svg xmlns="http://www.w3.org/2000/svg" xmlns:xlink="http://www.w3.org/1999/xlink" width="45" zoomAndPan="magnify" viewBox="0 0 33.75 33.749998" height="45" preserveAspectRatio="xMidYMid meet" version="1.0"><defs><clipPath id="7ac64c4eea"><path d="M 24 6 L 33.5 6 L 33.5 11 L 24 11 Z M 24 6 " clip-rule="nonzero"/></clipPath></defs><path fill="#ffffff" d="M 4.082031 26.042969 L 1.511719 26.042969 C 0.6875 26.042969 0 25.355469 0 24.53125 L 0 12.542969 C 0 11.71875 0.6875 11.03125 1.511719 11.03125 L 4.082031 11.03125 C 4.925781 11.03125 5.59375 11.71875 5.59375 12.542969 L 5.59375 24.53125 C 5.59375 25.355469 4.925781 26.042969 4.082031 26.042969 Z M 1.511719 11.816406 C 1.117188 11.816406 0.785156 12.148438 0.785156 12.542969 L 0.785156 24.53125 C 0.785156 24.925781 1.117188 25.257812 1.511719 25.257812 L 4.082031 25.257812 C 4.496094 25.257812 4.808594 24.925781 4.808594 24.53125 L 4.808594 12.542969 C 4.808594 12.148438 4.496094 11.816406 4.082031 11.816406 Z M 1.511719 11.816406 " fill-opacity="1" fill-rule="evenodd"/><path fill="#ffffff" d="M 5.199219 23.316406 L 0.390625 23.316406 C 0.175781 23.316406 0 23.140625 0 22.921875 L 0 14.152344 C 0 13.933594 0.175781 13.757812 0.390625 13.757812 L 5.199219 13.757812 C 5.417969 13.757812 5.59375 13.933594 5.59375 14.152344 L 5.59375 22.921875 C 5.59375 23.140625 5.417969 23.316406 5.199219 23.316406 Z M 0.785156 22.53125 L 4.808594 22.53125 L 4.808594 14.542969 L 0.785156 14.542969 Z M 0.785156 22.53125 " fill-opacity="1" fill-rule="evenodd"/><path fill="#ffffff" d="M 5.199219 20.566406 L 0.390625 20.566406 C 0.175781 20.566406 0 20.390625 0 20.175781 L 0 16.898438 C 0 16.683594 0.175781 16.503906 0.390625 16.503906 L 5.199219 16.503906 C 5.417969 16.503906 5.59375 16.683594 5.59375 16.898438 L 5.59375 20.175781 C 5.59375 20.390625 5.417969 20.566406 5.199219 20.566406 Z M 0.785156 19.78125 L 4.808594 19.78125 L 4.808594 17.289062 L 0.785156 17.289062 Z M 0.785156 19.78125 " fill-opacity="1" fill-rule="evenodd"/><path fill="#ffffff" d="M 27.949219 23.628906 L 19.824219 23.628906 C 19.605469 23.628906 19.429688 23.453125 19.429688 23.238281 L 19.429688 20.039062 C 19.429688 19.804688 19.605469 19.644531 19.824219 19.644531 L 27.949219 19.644531 C 28.183594 19.644531 28.339844 19.804688 28.339844 20.039062 L 28.339844 23.238281 C 28.339844 23.453125 28.183594 23.628906 27.949219 23.628906 Z M 20.214844 22.84375 L 27.554688 22.84375 L 27.554688 20.429688 L 20.214844 20.429688 Z M 11.695312 23.628906 L 5.199219 23.628906 C 4.984375 23.628906 4.808594 23.453125 4.808594 23.238281 L 4.808594 20.039062 C 4.808594 19.804688 4.984375 19.644531 5.199219 19.644531 L 11.695312 19.644531 C 11.914062 19.644531 12.089844 19.804688 12.089844 20.039062 L 12.089844 23.238281 C 12.089844 23.453125 11.914062 23.628906 11.695312 23.628906 Z M 5.59375 22.84375 L 11.304688 22.84375 L 11.304688 20.429688 L 5.59375 20.429688 Z M 5.59375 22.84375 " fill-opacity="1" fill-rule="evenodd"/><path fill="#ffffff" d="M 18.703125 30.773438 L 16.132812 30.773438 C 15.308594 30.773438 14.621094 30.085938 14.621094 29.261719 L 14.621094 17.269531 C 14.621094 16.445312 15.308594 15.761719 16.132812 15.761719 L 18.703125 15.761719 C 19.546875 15.761719 20.214844 16.445312 20.214844 17.269531 L 20.214844 29.261719 C 20.214844 30.085938 19.546875 30.773438 18.703125 30.773438 Z M 16.132812 16.542969 C 15.738281 16.542969 15.40625 16.878906 15.40625 17.269531 L 15.40625 29.261719 C 15.40625 29.65625 15.738281 29.988281 16.132812 29.988281 L 18.703125 29.988281 C 19.117188 29.988281 19.429688 29.65625 19.429688 29.261719 L 19.429688 17.269531 C 19.429688 16.878906 19.117188 16.542969 18.703125 16.542969 Z M 16.132812 16.542969 " fill-opacity="1" fill-rule="evenodd"/><path fill="#ffffff" d="M 19.824219 28.046875 L 15.015625 28.046875 C 14.796875 28.046875 14.621094 27.867188 14.621094 27.652344 L 14.621094 18.878906 C 14.621094 18.664062 14.796875 18.488281 15.015625 18.488281 L 19.824219 18.488281 C 20.039062 18.488281 20.214844 18.664062 20.214844 18.878906 L 20.214844 27.652344 C 20.214844 27.867188 20.039062 28.046875 19.824219 28.046875 Z M 15.40625 27.261719 L 19.429688 27.261719 L 19.429688 19.273438 L 15.40625 19.273438 Z M 15.40625 27.261719 " fill-opacity="1" fill-rule="evenodd"/><path fill="#ffffff" d="M 19.824219 25.296875 L 15.015625 25.296875 C 14.796875 25.296875 14.621094 25.121094 14.621094 24.90625 L 14.621094 21.628906 C 14.621094 21.414062 14.796875 21.234375 15.015625 21.234375 L 19.824219 21.234375 C 20.039062 21.234375 20.214844 21.414062 20.214844 21.628906 L 20.214844 24.90625 C 20.214844 25.121094 20.039062 25.296875 19.824219 25.296875 Z M 15.40625 24.511719 L 19.429688 24.511719 L 19.429688 22.019531 L 15.40625 22.019531 Z M 15.40625 24.511719 " fill-opacity="1" fill-rule="evenodd"/><path fill="#ffffff" d="M 16.78125 14.523438 L 14.230469 14.523438 C 13.386719 14.523438 12.699219 13.855469 12.699219 13.011719 L 12.699219 4.238281 C 12.699219 3.394531 13.386719 2.726562 14.230469 2.726562 L 16.78125 2.726562 C 17.625 2.726562 18.3125 3.394531 18.3125 4.238281 L 18.3125 13.011719 C 18.3125 13.855469 17.625 14.523438 16.78125 14.523438 Z M 14.230469 3.511719 C 13.816406 3.511719 13.484375 3.828125 13.484375 4.238281 L 13.484375 13.011719 C 13.484375 13.40625 13.816406 13.738281 14.230469 13.738281 L 16.78125 13.738281 C 17.191406 13.738281 17.527344 13.40625 17.527344 13.011719 L 17.527344 4.238281 C 17.527344 3.828125 17.191406 3.511719 16.78125 3.511719 Z M 14.230469 3.511719 " fill-opacity="1" fill-rule="evenodd"/><path fill="#ffffff" d="M 17.917969 12.421875 L 13.089844 12.421875 C 12.875 12.421875 12.699219 12.246094 12.699219 12.03125 L 12.699219 5.21875 C 12.699219 5.003906 12.875 4.828125 13.089844 4.828125 L 17.917969 4.828125 C 18.132812 4.828125 18.3125 5.003906 18.3125 5.21875 L 18.3125 12.03125 C 18.3125 12.246094 18.132812 12.421875 17.917969 12.421875 Z M 13.484375 11.636719 L 17.527344 11.636719 L 17.527344 5.613281 L 13.484375 5.613281 Z M 13.484375 11.636719 " fill-opacity="1" fill-rule="evenodd"/><path fill="#ffffff" d="M 17.917969 10.285156 L 13.089844 10.285156 C 12.875 10.285156 12.699219 10.109375 12.699219 9.890625 L 12.699219 7.359375 C 12.699219 7.144531 12.875 6.96875 13.089844 6.96875 L 17.917969 6.96875 C 18.132812 6.96875 18.3125 7.144531 18.3125 7.359375 L 18.3125 9.890625 C 18.3125 10.109375 18.132812 10.285156 17.917969 10.285156 Z M 13.484375 9.5 L 17.527344 9.5 L 17.527344 7.753906 L 13.484375 7.753906 Z M 13.484375 9.5 " fill-opacity="1" fill-rule="evenodd"/><path fill="#ffffff" d="M 21.609375 14.523438 L 19.039062 14.523438 C 18.195312 14.523438 17.527344 13.855469 17.527344 13.011719 L 17.527344 4.238281 C 17.527344 3.394531 18.195312 2.726562 19.039062 2.726562 L 21.609375 2.726562 C 22.433594 2.726562 23.121094 3.394531 23.121094 4.238281 L 23.121094 13.011719 C 23.121094 13.855469 22.433594 14.523438 21.609375 14.523438 Z M 19.039062 3.511719 C 18.625 3.511719 18.3125 3.828125 18.3125 4.238281 L 18.3125 13.011719 C 18.3125 13.40625 18.625 13.738281 19.039062 13.738281 L 21.609375 13.738281 C 22 13.738281 22.335938 13.40625 22.335938 13.011719 L 22.335938 4.238281 C 22.335938 3.828125 22 3.511719 21.609375 3.511719 Z M 19.039062 3.511719 " fill-opacity="1" fill-rule="evenodd"/><path fill="#ffffff" d="M 22.726562 12.421875 L 17.917969 12.421875 C 17.703125 12.421875 17.527344 12.246094 17.527344 12.03125 L 17.527344 5.21875 C 17.527344 5.003906 17.703125 4.828125 17.917969 4.828125 L 22.726562 4.828125 C 22.941406 4.828125 23.121094 5.003906 23.121094 5.21875 L 23.121094 12.03125 C 23.121094 12.246094 22.941406 12.421875 22.726562 12.421875 Z M 18.3125 11.636719 L 22.335938 11.636719 L 22.335938 5.613281 L 18.3125 5.613281 Z M 18.3125 11.636719 " fill-opacity="1" fill-rule="evenodd"/><path fill="#ffffff" d="M 22.726562 10.285156 L 17.917969 10.285156 C 17.703125 10.285156 17.527344 10.109375 17.527344 9.890625 L 17.527344 7.359375 C 17.527344 7.144531 17.703125 6.96875 17.917969 6.96875 L 22.726562 6.96875 C 22.941406 6.96875 23.121094 7.144531 23.121094 7.359375 L 23.121094 9.890625 C 23.121094 10.109375 22.941406 10.285156 22.726562 10.285156 Z M 18.3125 9.5 L 22.335938 9.5 L 22.335938 7.753906 L 18.3125 7.753906 Z M 18.3125 9.5 " fill-opacity="1" fill-rule="evenodd"/><path fill="#ffffff" d="M 13.089844 11.992188 L 10.792969 11.992188 C 10.007812 11.992188 9.382812 11.363281 9.382812 10.597656 L 9.382812 6.652344 C 9.382812 5.867188 10.007812 5.261719 10.792969 5.261719 L 13.089844 5.261719 C 13.304688 5.261719 13.484375 5.417969 13.484375 5.652344 L 13.484375 11.597656 C 13.484375 11.816406 13.304688 11.992188 13.089844 11.992188 Z M 10.792969 6.042969 C 10.441406 6.042969 10.167969 6.300781 10.167969 6.652344 L 10.167969 10.597656 C 10.167969 10.933594 10.441406 11.207031 10.792969 11.207031 L 12.699219 11.207031 L 12.699219 6.042969 Z M 10.792969 6.042969 " fill-opacity="1" fill-rule="evenodd"/><path fill="#ffffff" d="M 9.773438 10.617188 L 8.851562 10.617188 C 8.105469 10.617188 7.515625 10.027344 7.515625 9.304688 L 7.515625 7.949219 C 7.515625 7.222656 8.105469 6.632812 8.851562 6.632812 L 9.773438 6.632812 C 9.988281 6.632812 10.167969 6.808594 10.167969 7.027344 L 10.167969 10.226562 C 10.167969 10.441406 9.988281 10.617188 9.773438 10.617188 Z M 8.851562 7.417969 C 8.539062 7.417969 8.300781 7.652344 8.300781 7.949219 L 8.300781 9.304688 C 8.300781 9.597656 8.539062 9.832031 8.851562 9.832031 L 9.382812 9.832031 L 9.382812 7.417969 Z M 8.851562 7.417969 " fill-opacity="1" fill-rule="evenodd"/><path fill="#ffffff" d="M 24.75 23.628906 L 22.175781 23.628906 C 21.960938 23.628906 21.785156 23.453125 21.785156 23.238281 L 21.785156 20.039062 C 21.785156 19.804688 21.960938 19.644531 22.175781 19.644531 L 24.75 19.644531 C 24.964844 19.644531 25.140625 19.804688 25.140625 20.039062 L 25.140625 23.238281 C 25.140625 23.453125 24.964844 23.628906 24.75 23.628906 Z M 22.570312 22.84375 L 24.355469 22.84375 L 24.355469 20.429688 L 22.570312 20.429688 Z M 22.570312 22.84375 " fill-opacity="1" fill-rule="evenodd"/><g clip-path="url(#7ac64c4eea)"><path fill="#ffffff" d="M 33.109375 10.617188 L 25.179688 10.617188 C 24.964844 10.617188 24.789062 10.441406 24.789062 10.226562 L 24.789062 7.027344 C 24.789062 6.808594 24.964844 6.632812 25.179688 6.632812 L 33.109375 6.632812 C 33.324219 6.632812 33.5 6.808594 33.5 7.027344 L 33.5 10.226562 C 33.5 10.441406 33.324219 10.617188 33.109375 10.617188 Z M 25.574219 9.832031 L 32.714844 9.832031 L 32.714844 7.417969 L 25.574219 7.417969 Z M 25.574219 9.832031 " fill-opacity="1" fill-rule="evenodd"/></g><path fill="#ffffff" d="M 15.015625 24.789062 L 12.835938 24.789062 C 11.992188 24.789062 11.304688 24.082031 11.304688 23.238281 L 11.304688 20.039062 C 11.304688 19.175781 11.992188 18.488281 12.835938 18.488281 L 15.015625 18.488281 C 15.230469 18.488281 15.40625 18.664062 15.40625 18.878906 L 15.40625 24.394531 C 15.40625 24.609375 15.230469 24.789062 15.015625 24.789062 Z M 12.835938 19.273438 C 12.421875 19.273438 12.089844 19.605469 12.089844 20.039062 L 12.089844 23.238281 C 12.089844 23.648438 12.421875 24.003906 12.835938 24.003906 L 14.621094 24.003906 L 14.621094 19.273438 Z M 12.835938 19.273438 " fill-opacity="1" fill-rule="evenodd"/><path fill="#ffffff" d="M 24.238281 11.558594 L 22.726562 11.558594 C 22.511719 11.558594 22.335938 11.382812 22.335938 11.167969 L 22.335938 6.085938 C 22.335938 5.867188 22.511719 5.691406 22.726562 5.691406 L 24.238281 5.691406 C 24.964844 5.691406 25.574219 6.28125 25.574219 7.027344 L 25.574219 10.226562 C 25.574219 10.972656 24.964844 11.558594 24.238281 11.558594 Z M 23.121094 10.773438 L 24.238281 10.773438 C 24.53125 10.773438 24.789062 10.519531 24.789062 10.226562 L 24.789062 7.027344 C 24.789062 6.710938 24.53125 6.476562 24.238281 6.476562 L 23.121094 6.476562 Z M 23.121094 10.773438 " fill-opacity="1" fill-rule="evenodd"/></svg>