<svg xmlns="http://www.w3.org/2000/svg" xmlns:xlink="http://www.w3.org/1999/xlink" width="45" zoomAndPan="magnify" viewBox="0 0 33.75 33.749998" height="45" preserveAspectRatio="xMidYMid meet" version="1.0"><defs><clipPath id="3431e44c5d"><path d="M 28 13 L 33.5 13 L 33.5 20 L 28 20 Z M 28 13 " clip-rule="nonzero"/></clipPath><clipPath id="6687eec317"><path d="M 14 28 L 21 28 L 21 33.5 L 14 33.5 Z M 14 28 " clip-rule="nonzero"/></clipPath></defs><path fill="#ffffff" d="M 19.105469 2.226562 C 19.113281 2.34375 19.050781 2.429688 18.957031 2.503906 C 18.597656 2.800781 18.242188 3.101562 17.878906 3.394531 C 17.78125 3.472656 17.757812 3.546875 17.789062 3.667969 C 17.90625 4.109375 18.007812 4.554688 18.121094 5 C 18.160156 5.167969 18.121094 5.308594 17.984375 5.417969 C 17.859375 5.511719 17.695312 5.503906 17.542969 5.410156 C 17.140625 5.15625 16.738281 4.90625 16.339844 4.648438 C 16.25 4.589844 16.191406 4.59375 16.109375 4.648438 C 15.726562 4.894531 15.335938 5.128906 14.949219 5.371094 C 14.839844 5.441406 14.726562 5.476562 14.597656 5.445312 C 14.402344 5.398438 14.292969 5.203125 14.339844 5.003906 C 14.460938 4.523438 14.582031 4.039062 14.710938 3.558594 C 14.726562 3.484375 14.710938 3.441406 14.660156 3.398438 C 14.316406 3.109375 13.976562 2.820312 13.636719 2.535156 C 13.507812 2.429688 13.394531 2.320312 13.40625 2.132812 C 13.421875 1.953125 13.558594 1.808594 13.742188 1.796875 C 14.242188 1.761719 14.746094 1.726562 15.246094 1.699219 C 15.328125 1.695312 15.351562 1.652344 15.375 1.589844 C 15.542969 1.175781 15.714844 0.757812 15.886719 0.34375 C 15.902344 0.304688 15.917969 0.265625 15.9375 0.230469 C 16.007812 0.0859375 16.121094 0.0078125 16.28125 0.0117188 C 16.441406 0.0117188 16.554688 0.09375 16.613281 0.242188 C 16.792969 0.691406 16.972656 1.136719 17.148438 1.589844 C 17.183594 1.679688 17.222656 1.722656 17.332031 1.726562 C 17.773438 1.75 18.210938 1.789062 18.652344 1.824219 C 18.71875 1.828125 18.785156 1.835938 18.847656 1.851562 C 19.007812 1.898438 19.105469 2.039062 19.105469 2.226562 " fill-opacity="1" fill-rule="nonzero"/><path fill="#ffffff" d="M 28.699219 8.140625 C 28.625 8.226562 28.515625 8.242188 28.402344 8.230469 C 27.9375 8.1875 27.46875 8.148438 27.007812 8.097656 C 26.878906 8.082031 26.8125 8.121094 26.75 8.226562 C 26.519531 8.625 26.277344 9.011719 26.042969 9.402344 C 25.953125 9.550781 25.824219 9.625 25.648438 9.601562 C 25.496094 9.582031 25.386719 9.464844 25.34375 9.285156 C 25.238281 8.824219 25.128906 8.359375 25.03125 7.894531 C 25.007812 7.792969 24.964844 7.753906 24.867188 7.734375 C 24.421875 7.636719 23.980469 7.527344 23.539062 7.425781 C 23.414062 7.394531 23.304688 7.34375 23.234375 7.230469 C 23.128906 7.058594 23.1875 6.84375 23.367188 6.734375 C 23.792969 6.480469 24.21875 6.222656 24.652344 5.972656 C 24.714844 5.933594 24.734375 5.890625 24.730469 5.824219 C 24.6875 5.378906 24.652344 4.933594 24.613281 4.488281 C 24.597656 4.324219 24.59375 4.167969 24.734375 4.042969 C 24.875 3.925781 25.074219 3.921875 25.210938 4.042969 C 25.589844 4.375 25.96875 4.703125 26.34375 5.039062 C 26.40625 5.089844 26.449219 5.078125 26.511719 5.054688 C 26.925781 4.878906 27.34375 4.707031 27.757812 4.53125 C 27.792969 4.515625 27.832031 4.5 27.871094 4.488281 C 28.019531 4.4375 28.15625 4.460938 28.269531 4.574219 C 28.382812 4.691406 28.402344 4.828125 28.339844 4.976562 C 28.148438 5.417969 27.960938 5.863281 27.765625 6.304688 C 27.726562 6.390625 27.726562 6.453125 27.800781 6.53125 C 28.09375 6.859375 28.378906 7.199219 28.664062 7.535156 C 28.707031 7.582031 28.75 7.636719 28.78125 7.695312 C 28.863281 7.839844 28.832031 8.007812 28.699219 8.140625 " fill-opacity="1" fill-rule="nonzero"/><g clip-path="url(#3431e44c5d)"><path fill="#ffffff" d="M 31.304688 19.105469 C 31.1875 19.113281 31.101562 19.050781 31.027344 18.957031 C 30.730469 18.597656 30.425781 18.242188 30.132812 17.878906 C 30.054688 17.78125 29.980469 17.757812 29.863281 17.789062 C 29.417969 17.90625 28.972656 18.007812 28.53125 18.121094 C 28.363281 18.160156 28.21875 18.121094 28.113281 17.984375 C 28.019531 17.859375 28.023438 17.695312 28.121094 17.542969 C 28.371094 17.140625 28.625 16.738281 28.882812 16.339844 C 28.9375 16.25 28.933594 16.191406 28.878906 16.109375 C 28.636719 15.726562 28.402344 15.335938 28.160156 14.949219 C 28.089844 14.839844 28.050781 14.726562 28.082031 14.597656 C 28.128906 14.402344 28.324219 14.292969 28.523438 14.339844 C 29.007812 14.460938 29.488281 14.582031 29.972656 14.710938 C 30.042969 14.726562 30.085938 14.710938 30.132812 14.660156 C 30.417969 14.316406 30.707031 13.976562 30.996094 13.636719 C 31.101562 13.507812 31.207031 13.394531 31.394531 13.40625 C 31.578125 13.421875 31.722656 13.558594 31.734375 13.742188 C 31.765625 14.242188 31.800781 14.746094 31.832031 15.246094 C 31.835938 15.328125 31.878906 15.351562 31.9375 15.375 C 32.355469 15.542969 32.769531 15.714844 33.1875 15.886719 C 33.222656 15.902344 33.261719 15.917969 33.300781 15.9375 C 33.441406 16.007812 33.519531 16.121094 33.519531 16.28125 C 33.515625 16.441406 33.433594 16.554688 33.285156 16.613281 C 32.839844 16.792969 32.390625 16.972656 31.941406 17.148438 C 31.851562 17.183594 31.808594 17.222656 31.800781 17.332031 C 31.777344 17.773438 31.742188 18.210938 31.707031 18.652344 C 31.703125 18.71875 31.695312 18.785156 31.675781 18.847656 C 31.632812 19.007812 31.488281 19.105469 31.304688 19.105469 " fill-opacity="1" fill-rule="nonzero"/></g><path fill="#ffffff" d="M 25.390625 28.699219 C 25.300781 28.625 25.285156 28.515625 25.296875 28.402344 C 25.34375 27.9375 25.378906 27.46875 25.433594 27.007812 C 25.445312 26.878906 25.40625 26.8125 25.300781 26.75 C 24.90625 26.519531 24.519531 26.277344 24.128906 26.042969 C 23.976562 25.953125 23.90625 25.824219 23.925781 25.648438 C 23.945312 25.496094 24.066406 25.386719 24.242188 25.34375 C 24.707031 25.238281 25.167969 25.128906 25.632812 25.03125 C 25.734375 25.007812 25.773438 24.964844 25.796875 24.867188 C 25.894531 24.421875 26.003906 23.980469 26.105469 23.539062 C 26.132812 23.414062 26.1875 23.304688 26.300781 23.234375 C 26.46875 23.128906 26.6875 23.1875 26.792969 23.367188 C 27.050781 23.792969 27.304688 24.21875 27.558594 24.652344 C 27.59375 24.714844 27.636719 24.734375 27.707031 24.730469 C 28.152344 24.6875 28.59375 24.652344 29.039062 24.613281 C 29.203125 24.597656 29.359375 24.59375 29.484375 24.734375 C 29.601562 24.875 29.609375 25.074219 29.488281 25.210938 C 29.15625 25.589844 28.824219 25.96875 28.492188 26.34375 C 28.4375 26.402344 28.449219 26.449219 28.476562 26.511719 C 28.652344 26.925781 28.824219 27.339844 28.996094 27.757812 C 29.011719 27.792969 29.03125 27.832031 29.042969 27.871094 C 29.09375 28.019531 29.066406 28.15625 28.953125 28.269531 C 28.835938 28.382812 28.703125 28.402344 28.554688 28.339844 C 28.109375 28.148438 27.667969 27.960938 27.226562 27.765625 C 27.136719 27.726562 27.078125 27.726562 26.996094 27.800781 C 26.667969 28.09375 26.332031 28.378906 25.996094 28.664062 C 25.945312 28.707031 25.894531 28.75 25.835938 28.78125 C 25.691406 28.863281 25.519531 28.832031 25.390625 28.699219 " fill-opacity="1" fill-rule="nonzero"/><g clip-path="url(#6687eec317)"><path fill="#ffffff" d="M 14.425781 31.304688 C 14.414062 31.1875 14.480469 31.101562 14.570312 31.027344 C 14.929688 30.730469 15.289062 30.425781 15.652344 30.136719 C 15.75 30.054688 15.769531 29.984375 15.738281 29.863281 C 15.625 29.417969 15.519531 28.972656 15.410156 28.53125 C 15.367188 28.363281 15.40625 28.21875 15.546875 28.113281 C 15.667969 28.019531 15.832031 28.023438 15.984375 28.121094 C 16.386719 28.371094 16.792969 28.625 17.191406 28.882812 C 17.277344 28.9375 17.335938 28.933594 17.421875 28.878906 C 17.804688 28.636719 18.191406 28.402344 18.578125 28.160156 C 18.6875 28.089844 18.804688 28.050781 18.929688 28.082031 C 19.125 28.128906 19.238281 28.324219 19.1875 28.523438 C 19.066406 29.007812 18.945312 29.488281 18.820312 29.972656 C 18.800781 30.046875 18.816406 30.085938 18.871094 30.132812 C 19.210938 30.417969 19.550781 30.707031 19.894531 30.996094 C 20.019531 31.101562 20.136719 31.207031 20.121094 31.394531 C 20.109375 31.578125 19.972656 31.722656 19.789062 31.734375 C 19.285156 31.765625 18.785156 31.800781 18.28125 31.832031 C 18.203125 31.835938 18.179688 31.878906 18.152344 31.9375 C 17.984375 32.355469 17.8125 32.769531 17.640625 33.1875 C 17.625 33.222656 17.613281 33.261719 17.59375 33.300781 C 17.523438 33.441406 17.410156 33.519531 17.25 33.519531 C 17.085938 33.515625 16.976562 33.433594 16.917969 33.285156 C 16.738281 32.839844 16.558594 32.390625 16.382812 31.941406 C 16.347656 31.851562 16.304688 31.808594 16.199219 31.800781 C 15.757812 31.777344 15.316406 31.742188 14.875 31.707031 C 14.8125 31.703125 14.746094 31.695312 14.679688 31.675781 C 14.519531 31.632812 14.421875 31.488281 14.425781 31.304688 " fill-opacity="1" fill-rule="nonzero"/></g><path fill="#ffffff" d="M 4.828125 25.390625 C 4.90625 25.300781 5.011719 25.285156 5.128906 25.296875 C 5.59375 25.34375 6.058594 25.378906 6.523438 25.433594 C 6.648438 25.445312 6.714844 25.40625 6.777344 25.300781 C 7.011719 24.90625 7.25 24.519531 7.488281 24.125 C 7.578125 23.976562 7.707031 23.90625 7.878906 23.925781 C 8.03125 23.945312 8.144531 24.066406 8.183594 24.242188 C 8.289062 24.707031 8.398438 25.167969 8.5 25.632812 C 8.519531 25.734375 8.5625 25.773438 8.664062 25.796875 C 9.105469 25.894531 9.546875 26.003906 9.988281 26.105469 C 10.117188 26.132812 10.226562 26.1875 10.292969 26.300781 C 10.398438 26.46875 10.339844 26.6875 10.164062 26.792969 C 9.734375 27.050781 9.308594 27.304688 8.878906 27.558594 C 8.8125 27.59375 8.792969 27.636719 8.800781 27.707031 C 8.839844 28.152344 8.875 28.59375 8.914062 29.039062 C 8.929688 29.203125 8.933594 29.363281 8.792969 29.484375 C 8.65625 29.601562 8.457031 29.609375 8.320312 29.488281 C 7.941406 29.15625 7.558594 28.824219 7.183594 28.492188 C 7.125 28.4375 7.078125 28.449219 7.015625 28.476562 C 6.601562 28.652344 6.1875 28.824219 5.773438 28.996094 C 5.734375 29.011719 5.695312 29.03125 5.660156 29.042969 C 5.507812 29.09375 5.371094 29.066406 5.257812 28.953125 C 5.144531 28.835938 5.125 28.703125 5.191406 28.554688 C 5.378906 28.109375 5.570312 27.667969 5.761719 27.226562 C 5.800781 27.136719 5.804688 27.078125 5.730469 26.996094 C 5.433594 26.667969 5.152344 26.332031 4.863281 25.996094 C 4.820312 25.945312 4.78125 25.894531 4.746094 25.835938 C 4.667969 25.691406 4.695312 25.519531 4.828125 25.390625 " fill-opacity="1" fill-rule="nonzero"/><path fill="#ffffff" d="M 2.226562 14.425781 C 2.34375 14.414062 2.429688 14.480469 2.503906 14.570312 C 2.800781 14.929688 3.101562 15.289062 3.394531 15.652344 C 3.472656 15.75 3.546875 15.769531 3.667969 15.738281 C 4.109375 15.625 4.554688 15.519531 5 15.410156 C 5.167969 15.367188 5.308594 15.40625 5.417969 15.546875 C 5.511719 15.667969 5.503906 15.832031 5.410156 15.984375 C 5.15625 16.386719 4.90625 16.792969 4.648438 17.191406 C 4.589844 17.277344 4.59375 17.335938 4.648438 17.421875 C 4.894531 17.804688 5.128906 18.191406 5.371094 18.578125 C 5.4375 18.6875 5.476562 18.804688 5.445312 18.929688 C 5.398438 19.125 5.207031 19.238281 5.003906 19.1875 C 4.523438 19.066406 4.039062 18.945312 3.558594 18.820312 C 3.484375 18.800781 3.441406 18.816406 3.398438 18.867188 C 3.109375 19.210938 2.820312 19.550781 2.535156 19.894531 C 2.429688 20.019531 2.320312 20.136719 2.132812 20.121094 C 1.953125 20.109375 1.808594 19.972656 1.796875 19.789062 C 1.761719 19.285156 1.726562 18.785156 1.699219 18.28125 C 1.695312 18.203125 1.652344 18.179688 1.589844 18.152344 C 1.175781 17.984375 0.757812 17.8125 0.34375 17.640625 C 0.304688 17.625 0.265625 17.613281 0.230469 17.59375 C 0.0898438 17.523438 0.0078125 17.410156 0.0117188 17.25 C 0.0117188 17.085938 0.09375 16.976562 0.242188 16.917969 C 0.691406 16.738281 1.136719 16.558594 1.589844 16.382812 C 1.679688 16.347656 1.722656 16.304688 1.726562 16.199219 C 1.75 15.757812 1.789062 15.316406 1.824219 14.875 C 1.828125 14.8125 1.835938 14.746094 1.851562 14.679688 C 1.898438 14.519531 2.039062 14.421875 2.226562 14.425781 " fill-opacity="1" fill-rule="nonzero"/><path fill="#ffffff" d="M 8.140625 4.828125 C 8.226562 4.90625 8.242188 5.011719 8.230469 5.128906 C 8.1875 5.59375 8.148438 6.058594 8.097656 6.523438 C 8.082031 6.648438 8.121094 6.714844 8.226562 6.777344 C 8.625 7.007812 9.011719 7.25 9.402344 7.488281 C 9.550781 7.574219 9.625 7.707031 9.601562 7.878906 C 9.582031 8.03125 9.464844 8.144531 9.285156 8.183594 C 8.824219 8.289062 8.359375 8.398438 7.894531 8.496094 C 7.792969 8.519531 7.753906 8.5625 7.734375 8.660156 C 7.636719 9.105469 7.527344 9.546875 7.425781 9.992188 C 7.394531 10.117188 7.339844 10.226562 7.230469 10.292969 C 7.058594 10.398438 6.84375 10.339844 6.734375 10.164062 C 6.480469 9.734375 6.222656 9.308594 5.972656 8.878906 C 5.933594 8.8125 5.890625 8.792969 5.824219 8.800781 C 5.378906 8.839844 4.933594 8.875 4.488281 8.914062 C 4.324219 8.929688 4.167969 8.933594 4.042969 8.792969 C 3.925781 8.65625 3.921875 8.457031 4.042969 8.320312 C 4.375 7.941406 4.703125 7.558594 5.039062 7.183594 C 5.089844 7.125 5.078125 7.078125 5.054688 7.015625 C 4.878906 6.601562 4.707031 6.1875 4.53125 5.773438 C 4.515625 5.734375 4.5 5.695312 4.484375 5.660156 C 4.4375 5.507812 4.460938 5.371094 4.574219 5.261719 C 4.691406 5.148438 4.828125 5.125 4.976562 5.191406 C 5.417969 5.378906 5.863281 5.570312 6.304688 5.761719 C 6.390625 5.800781 6.453125 5.804688 6.53125 5.730469 C 6.859375 5.433594 7.199219 5.152344 7.535156 4.863281 C 7.582031 4.820312 7.636719 4.78125 7.695312 4.746094 C 7.839844 4.667969 8.007812 4.695312 8.140625 4.828125 " fill-opacity="1" fill-rule="nonzero"/><path fill="#ffffff" d="M 24.074219 13.402344 L 24.011719 13.355469 C 23.988281 13.335938 23.980469 13.332031 23.96875 13.324219 L 23.929688 13.300781 C 23.917969 13.292969 23.910156 13.289062 23.898438 13.28125 L 23.816406 13.246094 C 23.785156 13.230469 23.742188 13.214844 23.699219 13.195312 C 23.042969 12.988281 22.335938 13.074219 21.664062 13.144531 C 21.648438 13.144531 21.617188 13.144531 21.578125 13.148438 C 21.519531 13.152344 21.441406 13.152344 21.34375 13.15625 C 21.308594 13.15625 21.265625 13.15625 21.21875 13.160156 C 21.1875 13.160156 21.152344 13.160156 21.117188 13.164062 C 20.980469 13.164062 20.824219 13.171875 20.683594 13.179688 C 20.652344 13.179688 20.617188 13.179688 20.585938 13.183594 C 20.5625 13.183594 20.542969 13.1875 20.519531 13.1875 C 20.476562 13.191406 20.433594 13.195312 20.394531 13.195312 C 20.304688 13.203125 20.226562 13.214844 20.164062 13.226562 C 20.140625 13.230469 20.121094 13.234375 20.105469 13.238281 C 20.101562 13.238281 20.101562 13.238281 20.101562 13.238281 C 20.097656 13.238281 20.09375 13.242188 20.089844 13.242188 C 20.070312 13.242188 20.054688 13.222656 20.054688 13.203125 C 20.054688 13.203125 20.058594 13.195312 20.058594 13.195312 L 20.253906 12.523438 C 20.375 12.121094 20.496094 11.710938 20.625 11.308594 C 20.808594 10.722656 20.867188 10.253906 20.8125 9.789062 C 20.746094 9.207031 20.40625 8.675781 19.910156 8.363281 C 19.628906 8.183594 19.3125 8.09375 18.992188 8.09375 C 18.964844 8.09375 18.941406 8.09375 18.917969 8.09375 C 18.609375 8.109375 18.421875 8.28125 18.394531 8.585938 C 18.355469 8.976562 18.3125 9.332031 18.261719 9.664062 C 18.167969 10.257812 18.007812 10.75 17.769531 11.175781 C 17.632812 11.414062 17.476562 11.628906 17.285156 11.832031 C 17.035156 12.097656 16.761719 12.390625 16.464844 12.730469 L 15.789062 13.5 C 15.628906 13.679688 15.46875 13.859375 15.292969 14.027344 C 15.261719 14.058594 15.21875 14.101562 15.164062 14.148438 C 15.046875 14.25 14.917969 14.332031 14.773438 14.398438 C 14.691406 14.4375 14.585938 14.46875 14.433594 14.511719 C 13.863281 14.667969 13.53125 14.832031 13.507812 15.175781 C 13.496094 15.367188 13.488281 15.53125 13.484375 15.6875 L 13.484375 15.792969 C 13.476562 15.941406 13.476562 16.085938 13.476562 16.226562 L 13.476562 21.566406 L 14.367188 21.5625 L 14.414062 21.570312 C 14.722656 21.617188 15.042969 21.671875 15.449219 21.742188 L 15.628906 21.769531 C 16.4375 21.90625 17.175781 22.03125 17.917969 22.113281 C 19.738281 22.328125 21.949219 22.863281 23.273438 21.207031 C 23.816406 20.53125 23.871094 19.574219 23.996094 18.75 C 24.199219 17.398438 24.425781 16.050781 24.613281 14.699219 C 24.683594 14.222656 24.464844 13.699219 24.074219 13.402344 " fill-opacity="1" fill-rule="nonzero"/><path fill="#ffffff" d="M 11.898438 13.804688 L 9.476562 13.804688 C 9.160156 13.804688 8.902344 14.0625 8.902344 14.378906 L 8.902344 21.578125 C 8.902344 21.894531 9.160156 22.152344 9.476562 22.152344 L 11.898438 22.152344 C 12.214844 22.152344 12.472656 21.894531 12.472656 21.578125 L 12.472656 14.378906 C 12.472656 14.0625 12.214844 13.804688 11.898438 13.804688 " fill-opacity="1" fill-rule="nonzero"/></svg>