<svg xmlns="http://www.w3.org/2000/svg" xmlns:xlink="http://www.w3.org/1999/xlink" width="45" zoomAndPan="magnify" viewBox="0 0 33.75 33.749998" height="45" preserveAspectRatio="xMidYMid meet" version="1.0"><defs><clipPath id="ba422e0ade"><path d="M 0 14 L 33.5 14 L 33.5 33.5 L 0 33.5 Z M 0 14 " clip-rule="nonzero"/></clipPath></defs><path fill="#ffffff" d="M 10.992188 13.609375 L 15.488281 13.609375 L 16.382812 14.503906 C 16.484375 14.605469 16.617188 14.65625 16.75 14.65625 C 16.886719 14.65625 17.019531 14.605469 17.121094 14.503906 L 18.015625 13.609375 L 22.511719 13.609375 C 24.242188 13.609375 25.652344 12.203125 25.652344 10.46875 L 25.652344 3.140625 C 25.652344 1.410156 24.242188 0 22.511719 0 L 10.992188 0 C 9.261719 0 7.851562 1.410156 7.851562 3.140625 L 7.851562 10.46875 C 7.851562 12.203125 9.261719 13.609375 10.992188 13.609375 Z M 8.898438 3.140625 C 8.898438 1.984375 9.839844 1.046875 10.992188 1.046875 L 22.507812 1.046875 C 23.664062 1.046875 24.601562 1.984375 24.601562 3.140625 L 24.601562 10.46875 C 24.601562 11.625 23.664062 12.5625 22.507812 12.5625 L 17.796875 12.5625 C 17.660156 12.5625 17.527344 12.617188 17.425781 12.714844 L 16.75 13.394531 L 16.074219 12.714844 C 15.976562 12.617188 15.84375 12.5625 15.703125 12.5625 L 10.992188 12.5625 C 9.839844 12.5625 8.898438 11.625 8.898438 10.46875 Z M 8.898438 3.140625 " fill-opacity="1" fill-rule="nonzero"/><path fill="#ffffff" d="M 14.578125 9.035156 C 15.519531 9.84375 16.453125 10.378906 16.492188 10.398438 C 16.570312 10.445312 16.660156 10.46875 16.75 10.46875 C 16.839844 10.46875 16.929688 10.445312 17.011719 10.398438 C 17.050781 10.378906 17.980469 9.84375 18.925781 9.035156 C 20.261719 7.886719 20.9375 6.785156 20.9375 5.757812 C 20.9375 4.316406 19.765625 3.140625 18.320312 3.140625 C 17.75 3.140625 17.199219 3.328125 16.75 3.664062 C 16.300781 3.328125 15.75 3.140625 15.179688 3.140625 C 13.738281 3.140625 12.5625 4.316406 12.5625 5.757812 C 12.5625 6.785156 13.242188 7.886719 14.578125 9.035156 Z M 15.179688 4.1875 C 15.628906 4.1875 16.058594 4.382812 16.359375 4.71875 C 16.457031 4.832031 16.601562 4.898438 16.75 4.898438 C 16.902344 4.898438 17.042969 4.832031 17.144531 4.71875 C 17.441406 4.382812 17.871094 4.1875 18.320312 4.1875 C 19.1875 4.1875 19.890625 4.890625 19.890625 5.757812 C 19.890625 7.101562 17.820312 8.667969 16.75 9.335938 C 15.679688 8.671875 13.609375 7.105469 13.609375 5.757812 C 13.609375 4.890625 14.316406 4.1875 15.179688 4.1875 Z M 15.179688 4.1875 " fill-opacity="1" fill-rule="nonzero"/><g clip-path="url(#ba422e0ade)"><path fill="#ffffff" d="M 27.964844 22.332031 C 29.089844 21.582031 29.835938 20.300781 29.835938 18.84375 C 29.835938 16.535156 27.957031 14.65625 25.648438 14.65625 C 23.339844 14.65625 21.460938 16.535156 21.460938 18.84375 C 21.460938 20.296875 22.207031 21.582031 23.335938 22.332031 C 21.953125 22.753906 20.710938 23.554688 19.738281 24.671875 C 19.519531 24.578125 19.292969 24.5 19.0625 24.425781 C 20.191406 23.675781 20.9375 22.394531 20.9375 20.9375 C 20.9375 18.628906 19.058594 16.75 16.75 16.75 C 14.441406 16.75 12.5625 18.628906 12.5625 20.9375 C 12.5625 22.394531 13.308594 23.675781 14.4375 24.425781 C 14.207031 24.5 13.984375 24.578125 13.765625 24.671875 C 12.792969 23.554688 11.546875 22.753906 10.167969 22.332031 C 11.296875 21.582031 12.039062 20.296875 12.039062 18.84375 C 12.039062 16.535156 10.160156 14.65625 7.851562 14.65625 C 5.542969 14.65625 3.664062 16.535156 3.664062 18.84375 C 3.664062 20.300781 4.410156 21.582031 5.539062 22.332031 C 2.335938 23.324219 0 26.3125 0 29.835938 C 0 30.703125 0.703125 31.40625 1.570312 31.40625 L 8.917969 31.40625 C 8.90625 31.582031 8.898438 31.753906 8.898438 31.929688 C 8.898438 32.796875 9.605469 33.5 10.46875 33.5 L 23.03125 33.5 C 23.898438 33.5 24.601562 32.796875 24.601562 31.929688 C 24.601562 31.753906 24.597656 31.582031 24.585938 31.40625 L 31.929688 31.40625 C 32.796875 31.40625 33.5 30.703125 33.5 29.835938 C 33.5 26.3125 31.167969 23.324219 27.964844 22.332031 Z M 22.507812 18.84375 C 22.507812 17.113281 23.917969 15.703125 25.648438 15.703125 C 27.382812 15.703125 28.789062 17.113281 28.789062 18.84375 C 28.789062 20.578125 27.382812 21.984375 25.648438 21.984375 C 23.917969 21.984375 22.507812 20.578125 22.507812 18.84375 Z M 13.609375 20.9375 C 13.609375 19.207031 15.019531 17.796875 16.75 17.796875 C 18.484375 17.796875 19.890625 19.207031 19.890625 20.9375 C 19.890625 22.671875 18.484375 24.078125 16.75 24.078125 C 15.019531 24.078125 13.609375 22.671875 13.609375 20.9375 Z M 4.710938 18.84375 C 4.710938 17.113281 6.121094 15.703125 7.851562 15.703125 C 9.585938 15.703125 10.992188 17.113281 10.992188 18.84375 C 10.992188 20.578125 9.585938 21.984375 7.851562 21.984375 C 6.121094 21.984375 4.710938 20.578125 4.710938 18.84375 Z M 1.570312 30.359375 C 1.28125 30.359375 1.046875 30.125 1.046875 29.835938 C 1.046875 26.085938 4.097656 23.03125 7.851562 23.03125 C 9.738281 23.03125 11.507812 23.796875 12.789062 25.15625 C 10.898438 26.265625 9.507812 28.144531 9.058594 30.359375 Z M 23.03125 32.453125 L 10.46875 32.453125 C 10.179688 32.453125 9.945312 32.21875 9.945312 31.929688 C 9.945312 28.179688 13 25.125 16.75 25.125 C 20.503906 25.125 23.554688 28.179688 23.554688 31.929688 C 23.554688 32.21875 23.320312 32.453125 23.03125 32.453125 Z M 31.929688 30.359375 L 24.445312 30.359375 C 23.992188 28.144531 22.605469 26.265625 20.714844 25.15625 C 21.996094 23.796875 23.761719 23.03125 25.652344 23.03125 C 29.402344 23.03125 32.457031 26.085938 32.457031 29.835938 C 32.457031 30.125 32.21875 30.359375 31.933594 30.359375 Z M 31.929688 30.359375 " fill-opacity="1" fill-rule="nonzero"/></g></svg>