<svg xmlns="http://www.w3.org/2000/svg" xmlns:xlink="http://www.w3.org/1999/xlink" width="45" zoomAndPan="magnify" viewBox="0 0 33.75 33.749998" height="45" preserveAspectRatio="xMidYMid meet" version="1.0"><defs><clipPath id="030f199143"><path d="M 0 0 L 33.5 0 L 33.5 33.5 L 0 33.5 Z M 0 0 " clip-rule="nonzero"/></clipPath></defs><path fill="#ffffff" d="M 16.75 19.328125 C 15.328125 19.328125 14.171875 18.171875 14.171875 16.75 C 14.171875 15.328125 15.328125 14.171875 16.75 14.171875 C 18.171875 14.171875 19.328125 15.328125 19.328125 16.75 C 19.328125 18.171875 18.171875 19.328125 16.75 19.328125 Z M 16.75 15.460938 C 16.039062 15.460938 15.460938 16.039062 15.460938 16.75 C 15.460938 17.460938 16.039062 18.039062 16.75 18.039062 C 17.460938 18.039062 18.039062 17.460938 18.039062 16.75 C 18.039062 16.039062 17.460938 15.460938 16.75 15.460938 Z M 16.75 15.460938 " fill-opacity="1" fill-rule="nonzero"/><g clip-path="url(#030f199143)"><path fill="#ffffff" d="M 16.75 33.5 C 7.511719 33.5 0 25.984375 0 16.75 C 0 12.253906 1.757812 8.03125 4.945312 4.863281 C 5.003906 4.8125 6.070312 3.800781 6.710938 3.339844 C 7 3.132812 7.402344 3.199219 7.609375 3.492188 C 7.816406 3.78125 7.75 4.183594 7.460938 4.390625 C 6.894531 4.796875 5.855469 5.777344 5.84375 5.789062 C 2.910156 8.703125 1.289062 12.597656 1.289062 16.75 C 1.289062 25.273438 8.222656 32.210938 16.75 32.210938 C 25.273438 32.210938 32.210938 25.273438 32.210938 16.75 C 32.210938 8.222656 25.273438 1.289062 16.75 1.289062 C 16.394531 1.289062 16.105469 1 16.105469 0.644531 C 16.105469 0.289062 16.394531 0 16.75 0 C 25.984375 0 33.5 7.511719 33.5 16.75 C 33.5 25.984375 25.984375 33.5 16.75 33.5 Z M 16.75 33.5 " fill-opacity="1" fill-rule="nonzero"/></g><path fill="#ffffff" d="M 7.085938 9.664062 C 6.730469 9.664062 6.441406 9.375 6.441406 9.019531 L 6.441406 4.507812 L 1.933594 4.507812 C 1.578125 4.507812 1.289062 4.222656 1.289062 3.867188 C 1.289062 3.507812 1.578125 3.222656 1.933594 3.222656 L 7.085938 3.222656 C 7.441406 3.222656 7.730469 3.507812 7.730469 3.867188 L 7.730469 9.019531 C 7.730469 9.375 7.441406 9.664062 7.085938 9.664062 Z M 7.085938 9.664062 " fill-opacity="1" fill-rule="nonzero"/><path fill="#ffffff" d="M 16.75 6.441406 C 16.394531 6.441406 16.105469 6.152344 16.105469 5.796875 L 16.105469 3.222656 C 16.105469 2.863281 16.394531 2.578125 16.75 2.578125 C 17.105469 2.578125 17.394531 2.863281 17.394531 3.222656 L 17.394531 5.796875 C 17.394531 6.152344 17.105469 6.441406 16.75 6.441406 Z M 16.75 6.441406 " fill-opacity="1" fill-rule="nonzero"/><path fill="#ffffff" d="M 16.75 30.921875 C 16.394531 30.921875 16.105469 30.632812 16.105469 30.277344 L 16.105469 27.703125 C 16.105469 27.34375 16.394531 27.058594 16.75 27.058594 C 17.105469 27.058594 17.394531 27.34375 17.394531 27.703125 L 17.394531 30.277344 C 17.394531 30.632812 17.105469 30.921875 16.75 30.921875 Z M 16.75 30.921875 " fill-opacity="1" fill-rule="nonzero"/><path fill="#ffffff" d="M 16.75 4.507812 C 16.394531 4.507812 16.105469 4.222656 16.105469 3.867188 L 16.105469 3.222656 C 16.105469 2.863281 16.394531 2.578125 16.75 2.578125 C 17.105469 2.578125 17.394531 2.863281 17.394531 3.222656 L 17.394531 3.867188 C 17.394531 4.222656 17.105469 4.507812 16.75 4.507812 Z M 16.75 4.507812 " fill-opacity="1" fill-rule="nonzero"/><path fill="#ffffff" d="M 16.75 30.921875 C 16.394531 30.921875 16.105469 30.632812 16.105469 30.277344 L 16.105469 29.632812 C 16.105469 29.277344 16.394531 28.988281 16.75 28.988281 C 17.105469 28.988281 17.394531 29.277344 17.394531 29.632812 L 17.394531 30.277344 C 17.394531 30.632812 17.105469 30.921875 16.75 30.921875 Z M 16.75 30.921875 " fill-opacity="1" fill-rule="nonzero"/><path fill="#ffffff" d="M 23.515625 29.109375 C 23.292969 29.109375 23.074219 28.996094 22.957031 28.789062 L 22.632812 28.230469 C 22.457031 27.921875 22.5625 27.527344 22.871094 27.351562 C 23.175781 27.171875 23.570312 27.277344 23.75 27.585938 L 24.070312 28.144531 C 24.25 28.453125 24.144531 28.847656 23.835938 29.023438 C 23.734375 29.082031 23.625 29.109375 23.515625 29.109375 Z M 23.515625 29.109375 " fill-opacity="1" fill-rule="nonzero"/><path fill="#ffffff" d="M 28.464844 24.160156 C 28.355469 24.160156 28.246094 24.128906 28.144531 24.070312 L 27.585938 23.75 C 27.277344 23.570312 27.171875 23.179688 27.351562 22.871094 C 27.527344 22.5625 27.921875 22.457031 28.230469 22.632812 L 28.789062 22.957031 C 29.097656 23.132812 29.203125 23.527344 29.023438 23.835938 C 28.90625 24.042969 28.6875 24.160156 28.464844 24.160156 Z M 28.464844 24.160156 " fill-opacity="1" fill-rule="nonzero"/><path fill="#ffffff" d="M 3.867188 17.394531 L 3.222656 17.394531 C 2.863281 17.394531 2.578125 17.105469 2.578125 16.75 C 2.578125 16.394531 2.863281 16.105469 3.222656 16.105469 L 3.867188 16.105469 C 4.222656 16.105469 4.507812 16.394531 4.507812 16.75 C 4.507812 17.105469 4.222656 17.394531 3.867188 17.394531 Z M 3.867188 17.394531 " fill-opacity="1" fill-rule="nonzero"/><path fill="#ffffff" d="M 30.277344 17.394531 L 29.632812 17.394531 C 29.277344 17.394531 28.988281 17.105469 28.988281 16.75 C 28.988281 16.394531 29.277344 16.105469 29.632812 16.105469 L 30.277344 16.105469 C 30.632812 16.105469 30.921875 16.394531 30.921875 16.75 C 30.921875 17.105469 30.632812 17.394531 30.277344 17.394531 Z M 30.277344 17.394531 " fill-opacity="1" fill-rule="nonzero"/><path fill="#ffffff" d="M 5.035156 24.160156 C 4.8125 24.160156 4.59375 24.042969 4.476562 23.835938 C 4.296875 23.527344 4.402344 23.132812 4.710938 22.957031 L 5.269531 22.632812 C 5.578125 22.457031 5.972656 22.5625 6.148438 22.871094 C 6.328125 23.179688 6.222656 23.570312 5.914062 23.75 L 5.355469 24.070312 C 5.253906 24.128906 5.144531 24.160156 5.035156 24.160156 Z M 5.035156 24.160156 " fill-opacity="1" fill-rule="nonzero"/><path fill="#ffffff" d="M 27.910156 10.953125 C 27.6875 10.953125 27.46875 10.835938 27.351562 10.628906 C 27.171875 10.320312 27.277344 9.925781 27.585938 9.75 L 28.144531 9.425781 C 28.449219 9.25 28.84375 9.355469 29.023438 9.664062 C 29.203125 9.972656 29.097656 10.367188 28.789062 10.542969 L 28.230469 10.867188 C 28.128906 10.925781 28.019531 10.953125 27.910156 10.953125 Z M 27.910156 10.953125 " fill-opacity="1" fill-rule="nonzero"/><path fill="#ffffff" d="M 9.984375 29.109375 C 9.875 29.109375 9.765625 29.082031 9.664062 29.023438 C 9.355469 28.847656 9.25 28.453125 9.425781 28.144531 L 9.75 27.585938 C 9.925781 27.277344 10.320312 27.171875 10.628906 27.351562 C 10.9375 27.527344 11.042969 27.921875 10.867188 28.230469 L 10.542969 28.789062 C 10.425781 28.996094 10.207031 29.109375 9.984375 29.109375 Z M 9.984375 29.109375 " fill-opacity="1" fill-rule="nonzero"/><path fill="#ffffff" d="M 23.191406 6.234375 C 23.082031 6.234375 22.972656 6.207031 22.871094 6.148438 C 22.5625 5.972656 22.457031 5.578125 22.632812 5.269531 L 22.957031 4.710938 C 23.132812 4.402344 23.527344 4.296875 23.835938 4.476562 C 24.144531 4.652344 24.25 5.046875 24.070312 5.355469 L 23.75 5.914062 C 23.628906 6.121094 23.414062 6.234375 23.191406 6.234375 Z M 23.191406 6.234375 " fill-opacity="1" fill-rule="nonzero"/><path fill="#ffffff" d="M 30.277344 17.394531 L 27.703125 17.394531 C 27.34375 17.394531 27.058594 17.105469 27.058594 16.75 C 27.058594 16.394531 27.34375 16.105469 27.703125 16.105469 L 30.277344 16.105469 C 30.632812 16.105469 30.921875 16.394531 30.921875 16.75 C 30.921875 17.105469 30.632812 17.394531 30.277344 17.394531 Z M 30.277344 17.394531 " fill-opacity="1" fill-rule="nonzero"/><path fill="#ffffff" d="M 5.796875 17.394531 L 3.222656 17.394531 C 2.863281 17.394531 2.578125 17.105469 2.578125 16.75 C 2.578125 16.394531 2.863281 16.105469 3.222656 16.105469 L 5.796875 16.105469 C 6.152344 16.105469 6.441406 16.394531 6.441406 16.75 C 6.441406 17.105469 6.152344 17.394531 5.796875 17.394531 Z M 5.796875 17.394531 " fill-opacity="1" fill-rule="nonzero"/><path fill="#ffffff" d="M 15.382812 16.027344 C 15.21875 16.027344 15.054688 15.964844 14.929688 15.839844 L 11.140625 12.050781 C 10.890625 11.800781 10.890625 11.390625 11.140625 11.140625 C 11.390625 10.890625 11.800781 10.890625 12.050781 11.140625 L 15.839844 14.929688 C 16.089844 15.179688 16.089844 15.585938 15.839844 15.839844 C 15.714844 15.964844 15.550781 16.027344 15.382812 16.027344 Z M 15.382812 16.027344 " fill-opacity="1" fill-rule="nonzero"/><path fill="#ffffff" d="M 18.117188 16.027344 C 17.949219 16.027344 17.785156 15.964844 17.660156 15.839844 C 17.410156 15.585938 17.410156 15.179688 17.660156 14.929688 L 24.023438 8.5625 C 24.277344 8.3125 24.683594 8.3125 24.9375 8.5625 C 25.1875 8.816406 25.1875 9.222656 24.9375 9.472656 L 18.570312 15.839844 C 18.445312 15.964844 18.28125 16.027344 18.117188 16.027344 Z M 18.117188 16.027344 " fill-opacity="1" fill-rule="nonzero"/></svg>