<svg xmlns="http://www.w3.org/2000/svg" xmlns:xlink="http://www.w3.org/1999/xlink" width="45" zoomAndPan="magnify" viewBox="0 0 33.75 33.749998" height="45" preserveAspectRatio="xMidYMid meet" version="1.0"><defs><clipPath id="c7816827ee"><path d="M 10.695312 1.4375 L 22.605469 1.4375 L 22.605469 13.347656 L 10.695312 13.347656 Z M 10.695312 1.4375 " clip-rule="nonzero"/></clipPath><clipPath id="e8711bfde3"><path d="M 4.519531 14.019531 L 29 14.019531 L 29 33.375 L 4.519531 33.375 Z M 4.519531 14.019531 " clip-rule="nonzero"/></clipPath></defs><g clip-path="url(#c7816827ee)"><path fill="#000000" d="M 14.703125 10.011719 L 15.410156 9.300781 C 15.148438 9.0625 14.914062 8.792969 14.707031 8.5 L 14.707031 8.496094 L 13.976562 9.234375 Z M 20.371094 7.09375 L 22.273438 10.515625 C 22.605469 11.117188 22.1875 11.871094 21.519531 11.871094 L 17.722656 11.871094 C 17.054688 11.871094 16.636719 11.117188 16.96875 10.515625 L 18.871094 7.09375 C 19.203125 6.496094 20.039062 6.496094 20.371094 7.09375 Z M 19.621094 10.609375 C 19.460938 10.609375 19.332031 10.746094 19.332031 10.914062 C 19.332031 11.078125 19.460938 11.214844 19.621094 11.214844 C 19.78125 11.214844 19.914062 11.078125 19.914062 10.914062 C 19.914062 10.746094 19.78125 10.609375 19.621094 10.609375 Z M 19.394531 9.84375 C 19.40625 10.140625 19.835938 10.140625 19.847656 9.84375 L 19.90625 8.1875 C 19.910156 8.054688 19.808594 7.945312 19.679688 7.945312 C 19.597656 7.945312 19.644531 7.945312 19.5625 7.945312 C 19.433594 7.945312 19.332031 8.054688 19.335938 8.1875 Z M 18.378906 2.460938 C 20.125 2.460938 21.539062 3.929688 21.539062 5.746094 C 21.539062 6.390625 21.359375 6.992188 21.050781 7.5 L 20.710938 6.890625 C 20.230469 6.023438 19.011719 6.023438 18.53125 6.890625 L 17.425781 8.878906 C 16.148438 8.457031 15.21875 7.214844 15.21875 5.746094 C 15.21875 3.929688 16.636719 2.460938 18.378906 2.460938 Z M 18.378906 1.445312 C 20.664062 1.445312 22.515625 3.371094 22.515625 5.746094 C 22.515625 6.773438 22.164062 7.71875 21.585938 8.460938 L 21.269531 7.890625 C 21.6875 7.285156 21.929688 6.546875 21.929688 5.746094 C 21.929688 3.703125 20.339844 2.050781 18.378906 2.050781 C 16.417969 2.050781 14.828125 3.703125 14.828125 5.746094 C 14.828125 7.363281 15.832031 8.742188 17.226562 9.238281 L 16.929688 9.773438 C 16.472656 9.59375 16.054688 9.335938 15.695312 9.011719 C 15.429688 8.777344 15.195312 8.511719 14.996094 8.214844 L 14.992188 8.210938 C 14.519531 7.511719 14.246094 6.660156 14.246094 5.746094 C 14.246094 3.371094 16.097656 1.445312 18.378906 1.445312 Z M 11.660156 13.183594 L 10.839844 12.304688 C 10.695312 12.148438 10.699219 11.902344 10.847656 11.75 L 13.117188 9.460938 C 13.265625 9.308594 13.503906 9.3125 13.648438 9.46875 L 14.46875 10.347656 C 14.613281 10.5 14.609375 10.75 14.460938 10.898438 L 12.191406 13.191406 C 12.042969 13.339844 11.800781 13.335938 11.660156 13.183594 Z M 11.660156 13.183594 " fill-opacity="1" fill-rule="evenodd"/></g><g clip-path="url(#e8711bfde3)"><path fill="#000000" d="M 28.957031 22.894531 L 28.667969 22.097656 C 28.511719 21.65625 28.015625 21.296875 27.574219 21.296875 L 26.554688 21.296875 C 25.800781 19.203125 24.886719 16.675781 24.601562 16.082031 C 24.183594 15.152344 22.851562 14.738281 22.121094 14.53125 C 22.121094 14.53125 20.898438 14.066406 16.800781 14.066406 C 12.707031 14.066406 11.507812 14.53125 11.507812 14.53125 C 10.648438 14.816406 9.445312 15.230469 8.976562 16.105469 C 8.742188 16.546875 7.804688 19.128906 7.046875 21.296875 L 6.054688 21.296875 C 5.613281 21.296875 5.117188 21.65625 4.960938 22.097656 L 4.675781 22.894531 C 4.519531 23.335938 4.753906 23.695312 5.195312 23.695312 L 6.214844 23.695312 C 6.082031 24.058594 6.003906 24.265625 6.003906 24.265625 C 5.925781 24.394531 5.875 24.988281 5.875 25.167969 L 5.875 32.472656 C 5.875 32.9375 6.265625 33.324219 6.734375 33.324219 L 9.863281 33.324219 C 10.332031 33.324219 10.726562 32.9375 10.726562 32.472656 L 10.726562 30.925781 L 22.90625 30.925781 L 22.90625 32.472656 C 22.90625 32.9375 23.296875 33.324219 23.765625 33.324219 L 26.921875 33.324219 C 27.390625 33.324219 27.78125 32.9375 27.78125 32.472656 L 27.78125 25.167969 C 27.78125 25.011719 27.730469 24.394531 27.652344 24.265625 C 27.652344 24.265625 27.574219 24.058594 27.441406 23.695312 L 28.433594 23.695312 C 28.851562 23.695312 29.085938 23.335938 28.957031 22.894531 Z M 10.726562 27.386719 L 9.683594 26.691406 C 7.75 26.535156 7.515625 27.207031 7.101562 26.484375 L 7.101562 25.605469 C 7.101562 24.753906 7.59375 24.730469 8.144531 24.730469 C 8.664062 24.730469 9.707031 25.167969 10.410156 25.476562 C 11.167969 25.8125 11.714844 25.527344 12.003906 26.640625 C 11.976562 27.15625 11.691406 27.386719 10.726562 27.386719 Z M 8.898438 21.632812 C 9.550781 18.996094 10.648438 17.164062 10.804688 16.726562 C 10.90625 16.417969 10.648438 15.847656 16.828125 15.847656 C 23.007812 15.847656 22.671875 16.675781 22.695312 16.699219 C 22.984375 17.292969 24.128906 19.230469 24.730469 21.632812 C 24.730469 21.632812 22.410156 21.941406 17.113281 21.941406 C 11.820312 21.941406 8.898438 21.632812 8.898438 21.632812 Z M 21.652344 26.640625 C 22.878906 25.140625 22.488281 25.8125 23.242188 25.476562 C 23.921875 25.167969 24.992188 24.730469 25.511719 24.730469 C 26.058594 24.730469 26.554688 24.753906 26.554688 25.605469 L 26.554688 26.484375 C 26.164062 27.179688 25.824219 26.5625 23.871094 26.742188 L 22.90625 27.363281 C 21.941406 27.386719 21.3125 27.027344 21.652344 26.640625 Z M 21.652344 26.640625 " fill-opacity="1" fill-rule="nonzero"/></g></svg>