<svg xmlns="http://www.w3.org/2000/svg" xmlns:xlink="http://www.w3.org/1999/xlink" width="45" zoomAndPan="magnify" viewBox="0 0 33.75 33.749998" height="45" preserveAspectRatio="xMidYMid meet" version="1.0"><defs><clipPath id="5615420b2b"><path d="M 0 0 L 32.757812 0 L 32.757812 33.5 L 0 33.5 Z M 0 0 " clip-rule="nonzero"/></clipPath></defs><g clip-path="url(#5615420b2b)"><path fill="#ffffff" d="M 24.234375 30.734375 L 24.234375 31.648438 C 24.234375 32.667969 23.398438 33.5 22.378906 33.5 L 1.859375 33.5 C 0.839844 33.5 0.00390625 32.667969 0.00390625 31.648438 L 0.00390625 1.855469 C 0.00390625 0.832031 0.839844 0 1.859375 0 L 22.378906 0 C 23.398438 0 24.234375 0.832031 24.234375 1.855469 L 24.234375 13.148438 C 26.144531 13.171875 28.042969 13.300781 29.933594 13.539062 C 30.15625 13.566406 30.328125 13.71875 30.402344 13.910156 C 30.546875 14.320312 30.761719 14.78125 30.984375 15.15625 C 31.421875 15.917969 31.996094 16.605469 32.652344 17.167969 C 32.804688 17.296875 32.867188 17.492188 32.847656 17.671875 C 32.191406 23.171875 28.972656 27.988281 24.234375 30.734375 Z M 21.011719 20.828125 C 20.804688 20.589844 20.832031 20.222656 21.078125 20.015625 C 21.320312 19.804688 21.679688 19.835938 21.890625 20.078125 L 22.96875 21.332031 L 25.261719 18.707031 C 25.46875 18.46875 25.828125 18.441406 26.074219 18.648438 C 26.3125 18.855469 26.339844 19.21875 26.132812 19.460938 L 23.34375 22.640625 C 23.105469 22.847656 22.738281 22.820312 22.53125 22.574219 Z M 23.660156 15.59375 C 26.511719 15.59375 28.835938 17.910156 28.835938 20.769531 C 28.835938 23.632812 26.511719 25.945312 23.660156 25.945312 C 20.796875 25.945312 18.480469 23.632812 18.480469 20.769531 C 18.480469 17.910156 20.804688 15.59375 23.660156 15.59375 Z M 26.503906 17.921875 C 24.929688 16.347656 22.386719 16.347656 20.8125 17.921875 C 19.238281 19.496094 19.238281 22.042969 20.8125 23.617188 C 22.386719 25.191406 24.929688 25.191406 26.503906 23.617188 C 28.078125 22.050781 28.078125 19.496094 26.503906 17.921875 Z M 2.988281 10.523438 C 2.671875 10.523438 2.414062 10.265625 2.414062 9.949219 C 2.414062 9.632812 2.671875 9.375 2.988281 9.375 L 21.242188 9.375 C 21.558594 9.375 21.816406 9.632812 21.816406 9.949219 C 21.816406 10.265625 21.558594 10.523438 21.242188 10.523438 Z M 5.226562 6.714844 C 5.226562 6.398438 5.484375 6.140625 5.800781 6.140625 C 6.117188 6.140625 6.375 6.398438 6.375 6.714844 L 6.375 6.910156 C 6.375 7.691406 5.742188 8.324219 4.960938 8.324219 L 4.246094 8.324219 C 3.464844 8.324219 2.832031 7.691406 2.832031 6.910156 L 2.832031 4.011719 C 2.832031 3.234375 3.464844 2.601562 4.246094 2.601562 L 4.960938 2.601562 C 5.742188 2.601562 6.375 3.234375 6.375 4.019531 L 6.375 4.210938 C 6.375 4.527344 6.117188 4.789062 5.800781 4.789062 C 5.484375 4.789062 5.226562 4.527344 5.226562 4.210938 C 5.226562 4.054688 5.246094 3.933594 5.144531 3.832031 C 5.097656 3.78125 5.03125 3.753906 4.960938 3.753906 L 4.246094 3.753906 C 4.105469 3.753906 3.980469 3.875 3.980469 4.019531 L 3.980469 6.917969 C 3.980469 7.058594 4.105469 7.183594 4.246094 7.183594 L 4.960938 7.183594 C 5.101562 7.183594 5.226562 7.058594 5.226562 6.917969 Z M 15.910156 7.75 C 15.910156 8.066406 15.648438 8.324219 15.332031 8.324219 C 15.015625 8.324219 14.757812 8.066406 14.757812 7.75 L 14.757812 3.175781 C 14.757812 2.859375 15.015625 2.601562 15.332031 2.601562 C 15.648438 2.601562 15.910156 2.859375 15.910156 3.175781 Z M 17.972656 7.75 C 17.972656 8.066406 17.714844 8.324219 17.398438 8.324219 C 17.082031 8.324219 16.820312 8.066406 16.820312 7.75 L 16.820312 3.175781 C 16.820312 2.582031 17.65625 2.351562 17.929688 2.960938 L 19.109375 5.269531 L 20.316406 2.910156 C 20.589844 2.378906 21.402344 2.574219 21.402344 3.171875 L 21.402344 7.742188 C 21.402344 8.058594 21.140625 8.316406 20.824219 8.316406 C 20.507812 8.316406 20.25 8.058594 20.25 7.742188 L 20.25 5.550781 L 19.617188 6.785156 C 19.410156 7.195312 18.8125 7.203125 18.597656 6.785156 L 17.964844 5.550781 L 17.964844 7.75 Z M 11.445312 7.75 C 11.445312 8.066406 11.183594 8.324219 10.867188 8.324219 C 10.550781 8.324219 10.292969 8.066406 10.292969 7.75 L 10.292969 4.132812 C 10.292969 3.285156 10.984375 2.59375 11.832031 2.59375 L 12.304688 2.59375 C 13.15625 2.59375 13.84375 3.285156 13.84375 4.132812 L 13.84375 7.75 C 13.84375 8.066406 13.585938 8.324219 13.269531 8.324219 C 12.953125 8.324219 12.695312 8.066406 12.695312 7.75 L 12.695312 7.089844 L 11.449219 7.089844 L 11.449219 7.75 Z M 11.445312 4.132812 L 11.445312 5.929688 L 12.6875 5.929688 L 12.6875 4.132812 C 12.6875 3.925781 12.515625 3.746094 12.300781 3.746094 L 11.824219 3.746094 C 11.617188 3.753906 11.445312 3.925781 11.445312 4.132812 Z M 9.214844 7.175781 C 9.53125 7.175781 9.789062 7.433594 9.789062 7.75 C 9.789062 8.066406 9.53125 8.324219 9.214844 8.324219 L 7.574219 8.324219 C 7.261719 8.324219 7 8.066406 7 7.75 L 7 3.175781 C 7 2.859375 7.261719 2.601562 7.574219 2.601562 C 7.890625 2.601562 8.152344 2.859375 8.152344 3.175781 L 8.152344 7.175781 Z M 2.988281 14.089844 C 2.671875 14.089844 2.414062 13.832031 2.414062 13.515625 C 2.414062 13.199219 2.671875 12.941406 2.988281 12.941406 L 14.519531 12.941406 C 14.835938 12.941406 15.097656 13.199219 15.097656 13.515625 C 15.097656 13.832031 14.835938 14.089844 14.519531 14.089844 Z M 2.988281 19.085938 C 2.671875 19.085938 2.414062 18.828125 2.414062 18.511719 C 2.414062 18.195312 2.671875 17.9375 2.988281 17.9375 L 10.414062 17.9375 C 10.730469 17.9375 10.992188 18.195312 10.992188 18.511719 C 10.992188 18.828125 10.730469 19.085938 10.414062 19.085938 Z M 2.988281 16.59375 C 2.671875 16.59375 2.414062 16.332031 2.414062 16.019531 C 2.414062 15.703125 2.671875 15.441406 2.988281 15.441406 L 11.953125 15.441406 C 12.269531 15.441406 12.53125 15.703125 12.53125 16.019531 C 12.53125 16.332031 12.269531 16.59375 11.953125 16.59375 Z M 6.9375 21.898438 C 5.527344 21.898438 4.816406 23.609375 5.816406 24.609375 C 6.8125 25.609375 8.523438 24.894531 8.523438 23.488281 C 8.523438 22.609375 7.8125 21.898438 6.9375 21.898438 Z M 5.003906 21.554688 C 6.074219 20.480469 7.804688 20.480469 8.878906 21.554688 C 9.8125 22.488281 9.949219 23.960938 9.195312 25.046875 C 10.25 25.652344 10.867188 26.886719 10.867188 28.144531 L 10.867188 29.425781 C 10.867188 29.742188 10.609375 30 10.292969 30 L 3.59375 30 C 3.277344 30 3.019531 29.742188 3.019531 29.425781 L 3.019531 28.144531 C 3.019531 26.878906 3.628906 25.644531 4.691406 25.046875 C 3.929688 23.960938 4.066406 22.488281 5.003906 21.554688 Z M 8.25 25.886719 C 6.871094 26.644531 5.65625 25.886719 5.628906 25.886719 C 5.253906 25.988281 4.921875 26.234375 4.664062 26.570312 C 4.355469 26.988281 4.167969 27.535156 4.167969 28.144531 L 4.167969 28.851562 L 9.71875 28.851562 L 9.71875 28.144531 C 9.710938 27.160156 9.171875 26.132812 8.25 25.886719 Z M 23.082031 13.15625 L 23.082031 1.855469 C 23.082031 1.464844 22.765625 1.148438 22.378906 1.148438 L 1.859375 1.148438 C 1.472656 1.148438 1.15625 1.464844 1.15625 1.855469 L 1.15625 31.648438 C 1.15625 32.035156 1.480469 32.351562 1.859375 32.351562 L 22.378906 32.351562 C 22.765625 32.351562 23.082031 32.035156 23.082031 31.648438 L 23.082031 30.734375 C 18.351562 27.996094 15.125 23.171875 14.46875 17.679688 C 14.449219 17.46875 14.535156 17.277344 14.695312 17.152344 C 15.011719 16.878906 15.304688 16.570312 15.585938 16.242188 C 16.152344 15.558594 16.613281 14.757812 16.914062 13.917969 C 16.992188 13.695312 17.195312 13.558594 17.410156 13.542969 C 18.433594 13.414062 19.460938 13.320312 20.496094 13.25 C 21.359375 13.191406 22.21875 13.164062 23.082031 13.15625 Z M 18.273438 24.710938 C 19.660156 26.773438 21.507812 28.5 23.660156 29.742188 C 27.988281 27.226562 30.976562 22.847656 31.667969 17.835938 C 31.003906 17.226562 30.445312 16.527344 29.984375 15.738281 C 29.789062 15.40625 29.589844 14.988281 29.445312 14.636719 C 25.648438 14.183594 21.652344 14.183594 17.855469 14.636719 C 17.367188 15.84375 16.597656 16.953125 15.640625 17.835938 C 15.996094 20.351562 16.914062 22.6875 18.273438 24.710938 Z M 18.273438 24.710938 " fill-opacity="1" fill-rule="nonzero"/></g></svg>