<svg xmlns="http://www.w3.org/2000/svg" xmlns:xlink="http://www.w3.org/1999/xlink" width="45" zoomAndPan="magnify" viewBox="0 0 33.75 33.749998" height="45" preserveAspectRatio="xMidYMid meet" version="1.0"><defs><clipPath id="32caa93fd2"><path d="M 0 0.503906 L 33.5 0.503906 L 33.5 33 L 0 33 Z M 0 0.503906 " clip-rule="nonzero"/></clipPath></defs><g clip-path="url(#32caa93fd2)"><path fill="#ffffff" d="M 24.265625 1.890625 C 23.507812 1.476562 22.605469 2.171875 22.835938 3.015625 C 23.058594 3.851562 24.199219 4.039062 24.660156 3.234375 C 24.917969 2.792969 24.761719 2.175781 24.285156 1.902344 C 24.277344 1.898438 24.269531 1.894531 24.265625 1.890625 Z M 23.277344 0.847656 C 24.332031 0.5625 25.421875 1.191406 25.703125 2.246094 C 26.132812 3.851562 24.472656 5.347656 22.832031 4.492188 C 22.351562 4.242188 22.007812 3.757812 21.878906 3.273438 C 21.59375 2.21875 22.222656 1.128906 23.277344 0.847656 Z M 21.832031 7.140625 C 21.695312 7.375 21.394531 7.457031 21.160156 7.320312 C 20.921875 7.183594 20.839844 6.882812 20.976562 6.648438 L 22.074219 4.75 C 22.207031 4.511719 22.511719 4.429688 22.75 4.566406 C 22.984375 4.703125 23.066406 5.003906 22.929688 5.242188 Z M 8.746094 1.027344 C 9.691406 0.503906 10.878906 0.832031 11.421875 1.769531 C 11.96875 2.714844 11.644531 3.925781 10.695312 4.476562 C 9.75 5.023438 8.539062 4.699219 7.988281 3.75 C 7.441406 2.804688 7.765625 1.59375 8.714844 1.042969 C 8.722656 1.039062 8.734375 1.035156 8.746094 1.027344 Z M 9.960938 1.804688 C 9.089844 1.570312 8.410156 2.523438 8.847656 3.253906 C 9.304688 4.03125 10.4375 3.855469 10.660156 3.019531 C 10.804688 2.484375 10.488281 1.945312 9.960938 1.804688 Z M 12.515625 6.648438 C 12.652344 6.882812 12.574219 7.183594 12.335938 7.320312 C 12.101562 7.457031 11.796875 7.375 11.660156 7.140625 L 10.566406 5.242188 C 10.429688 5.003906 10.511719 4.703125 10.746094 4.566406 C 10.984375 4.429688 11.289062 4.511719 11.421875 4.75 Z M 32.058594 9.980469 C 31.617188 9.222656 30.46875 9.367188 30.242188 10.21875 C 30.175781 10.464844 30.203125 10.734375 30.339844 10.96875 C 30.613281 11.445312 31.222656 11.605469 31.695312 11.335938 C 32.167969 11.058594 32.332031 10.453125 32.058594 9.980469 Z M 31.710938 8.5625 C 32.199219 8.695312 32.640625 9.011719 32.914062 9.484375 C 33.464844 10.425781 33.140625 11.644531 32.191406 12.191406 L 32.1875 12.191406 C 31.25 12.738281 30.03125 12.414062 29.484375 11.46875 C 28.9375 10.539062 29.253906 9.3125 30.207031 8.761719 C 30.683594 8.488281 31.222656 8.429688 31.710938 8.5625 Z M 27.3125 13.289062 C 27.078125 13.425781 26.773438 13.34375 26.636719 13.109375 C 26.5 12.871094 26.582031 12.570312 26.820312 12.433594 L 28.71875 11.339844 C 28.953125 11.203125 29.257812 11.285156 29.394531 11.519531 C 29.527344 11.757812 29.449219 12.058594 29.210938 12.195312 Z M 0.582031 9.484375 C 1.460938 7.960938 3.753906 8.265625 4.210938 9.964844 C 4.335938 10.445312 4.285156 11 4.011719 11.46875 C 3.460938 12.421875 2.230469 12.738281 1.304688 12.191406 C 0.359375 11.644531 0.03125 10.433594 0.582031 9.484375 Z M 2.039062 9.519531 C 1.1875 9.746094 1.039062 10.894531 1.800781 11.335938 C 2.273438 11.605469 2.882812 11.445312 3.15625 10.972656 C 3.589844 10.214844 2.894531 9.289062 2.039062 9.519531 Z M 6.675781 12.433594 C 6.910156 12.570312 6.992188 12.871094 6.855469 13.109375 C 6.722656 13.34375 6.417969 13.425781 6.183594 13.289062 L 4.285156 12.195312 C 4.046875 12.058594 3.964844 11.757812 4.101562 11.519531 C 4.238281 11.285156 4.539062 11.203125 4.777344 11.339844 Z M 1.414062 31.746094 L 4.914062 31.746094 C 4.988281 31.746094 5.050781 31.683594 5.050781 31.613281 L 5.050781 22.921875 C 5.050781 22.851562 4.988281 22.789062 4.914062 22.789062 L 1.414062 22.789062 C 1.34375 22.789062 1.28125 22.851562 1.28125 22.921875 L 1.28125 31.613281 C 1.28125 31.6875 1.34375 31.746094 1.414062 31.746094 Z M 4.914062 32.742188 L 1.414062 32.742188 C 0.792969 32.742188 0.289062 32.234375 0.289062 31.613281 L 0.289062 22.921875 C 0.289062 22.300781 0.792969 21.796875 1.414062 21.796875 L 4.914062 21.796875 C 5.535156 21.796875 6.042969 22.300781 6.042969 22.921875 L 6.042969 23.976562 C 6.253906 24.058594 6.460938 24.121094 6.660156 24.171875 C 6.703125 23.863281 6.839844 23.5625 7.074219 23.328125 L 7.574219 22.828125 C 7.734375 22.667969 7.761719 22.449219 7.652344 22.261719 C 7.195312 21.46875 6.839844 20.613281 6.601562 19.730469 C 6.546875 19.515625 6.367188 19.382812 6.148438 19.382812 L 5.4375 19.382812 C 4.632812 19.382812 3.976562 18.726562 3.976562 17.917969 L 3.976562 16.101562 C 3.976562 15.292969 4.632812 14.636719 5.4375 14.636719 L 6.148438 14.636719 C 6.367188 14.636719 6.542969 14.503906 6.601562 14.289062 C 6.710938 13.882812 6.875 13.378906 7.042969 12.988281 C 7.21875 12.566406 7.421875 12.15625 7.652344 11.761719 C 7.761719 11.570312 7.730469 11.351562 7.574219 11.191406 L 7.574219 11.195312 L 7.074219 10.691406 C 6.789062 10.40625 6.648438 10.035156 6.648438 9.660156 L 6.644531 9.660156 C 6.644531 9.289062 6.789062 8.90625 7.074219 8.625 L 8.363281 7.335938 C 8.929688 6.765625 9.859375 6.765625 10.429688 7.335938 L 10.929688 7.835938 C 11.085938 7.996094 11.308594 8.023438 11.5 7.914062 C 12.289062 7.457031 13.140625 7.101562 14.027344 6.863281 C 14.238281 6.808594 14.375 6.628906 14.375 6.410156 L 14.375 5.703125 C 14.375 4.894531 15.03125 4.238281 15.835938 4.238281 L 17.65625 4.238281 C 18.464844 4.238281 19.121094 4.894531 19.121094 5.703125 L 19.121094 6.410156 C 19.121094 6.628906 19.253906 6.804688 19.46875 6.863281 C 19.875 6.972656 20.375 7.140625 20.765625 7.308594 L 20.765625 7.304688 C 21.191406 7.480469 21.601562 7.683594 21.996094 7.914062 C 22.1875 8.023438 22.410156 7.996094 22.566406 7.835938 L 23.066406 7.335938 C 23.636719 6.765625 24.566406 6.765625 25.132812 7.335938 L 26.421875 8.625 C 26.988281 9.195312 26.988281 10.121094 26.421875 10.691406 L 25.921875 11.195312 C 25.761719 11.351562 25.734375 11.570312 25.84375 11.761719 C 26.300781 12.554688 26.65625 13.402344 26.894531 14.289062 C 26.949219 14.503906 27.125 14.636719 27.347656 14.636719 L 28.054688 14.636719 C 28.863281 14.636719 29.519531 15.292969 29.519531 16.101562 L 29.519531 17.917969 C 29.519531 18.726562 28.863281 19.382812 28.054688 19.382812 L 28.054688 19.378906 L 27.347656 19.378906 L 27.347656 19.382812 C 27.125 19.382812 26.949219 19.515625 26.894531 19.730469 C 26.789062 20.121094 26.664062 20.503906 26.511719 20.878906 L 27.285156 20.265625 C 28.375 19.398438 29.824219 19.054688 30.660156 19.808594 C 31.402344 20.476562 31.214844 21.582031 30.5 22.492188 C 30.480469 22.515625 30.460938 22.535156 30.441406 22.554688 L 20.9375 31.089844 C 20.628906 31.367188 18.960938 31.703125 18.085938 31.878906 C 15.640625 32.398438 14.640625 32.992188 11.195312 31.921875 C 9.464844 31.386719 7.335938 30.707031 6.042969 30.570312 L 6.042969 31.613281 C 6.042969 32.234375 5.535156 32.742188 4.914062 32.742188 Z M 6.042969 25.027344 L 6.042969 29.578125 C 7.464844 29.703125 9.628906 30.402344 11.488281 30.976562 C 14.398438 31.878906 15.402344 31.488281 17.40625 31.007812 C 17.488281 30.988281 17.660156 30.953125 17.890625 30.910156 C 18.675781 30.75 20.164062 30.449219 20.273438 30.355469 L 29.746094 21.847656 C 30.070312 21.421875 30.183594 21.0625 30.136719 20.800781 C 30.089844 20.558594 29.898438 20.4375 29.65625 20.394531 C 29.21875 20.328125 28.601562 20.507812 27.902344 21.039062 L 27.902344 21.042969 L 21.394531 26.203125 C 21.183594 26.816406 20.820312 27.242188 20.308594 27.484375 C 19.785156 27.730469 19.132812 27.765625 18.34375 27.585938 L 18.34375 27.589844 C 16.375 27.199219 14.390625 27.238281 12.761719 28.234375 C 12.527344 28.375 12.222656 28.300781 12.078125 28.066406 C 11.9375 27.835938 12.011719 27.53125 12.246094 27.386719 C 14.097656 26.257812 16.3125 26.175781 18.53125 26.617188 C 19.121094 26.738281 19.539062 26.75 19.882812 26.589844 C 20.148438 26.460938 20.34375 26.222656 20.464844 25.859375 C 20.355469 24.996094 19.988281 24.433594 19.078125 24.136719 L 18.703125 24.035156 C 17.804688 23.828125 16.511719 23.785156 14.691406 23.894531 C 14.191406 23.9375 13.101562 23.984375 12.582031 24.085938 C 12.417969 24.117188 12.253906 24.164062 12.082031 24.230469 C 10.605469 24.816406 9.507812 25.179688 8.484375 25.289062 C 7.652344 25.378906 6.886719 25.292969 6.042969 25.027344 Z M 7.636719 24.328125 C 7.882812 24.339844 8.128906 24.332031 8.378906 24.304688 C 9.328125 24.195312 10.277344 23.878906 11.714844 23.308594 C 11.910156 23.234375 12.097656 23.175781 12.285156 23.136719 C 8.535156 20.398438 8.085938 14.953125 11.386719 11.648438 C 14.347656 8.691406 19.148438 8.691406 22.109375 11.648438 C 25.699219 15.242188 24.800781 21.261719 20.363281 23.671875 C 20.835938 24.015625 21.128906 24.460938 21.300781 25.015625 L 24.816406 22.226562 C 24.824219 22.1875 24.832031 22.148438 24.84375 22.109375 C 24.878906 21.992188 24.925781 21.875 24.988281 21.765625 C 25.402344 21.050781 25.722656 20.277344 25.9375 19.476562 C 26.109375 18.832031 26.683594 18.390625 27.347656 18.390625 L 28.058594 18.390625 C 28.3125 18.390625 28.527344 18.179688 28.527344 17.921875 L 28.527344 16.101562 C 28.527344 15.84375 28.316406 15.632812 28.058594 15.632812 L 27.347656 15.632812 C 26.683594 15.632812 26.109375 15.1875 25.9375 14.546875 C 25.722656 13.742188 25.402344 12.972656 24.988281 12.257812 C 24.65625 11.679688 24.75 10.960938 25.21875 10.492188 L 25.71875 9.988281 C 25.902344 9.808594 25.902344 9.507812 25.71875 9.324219 L 24.433594 8.039062 C 24.25 7.855469 23.953125 7.855469 23.769531 8.039062 L 23.269531 8.539062 C 22.804688 9.007812 22.078125 9.105469 21.5 8.769531 C 21.144531 8.566406 20.773438 8.378906 20.386719 8.222656 L 20.386719 8.21875 C 20.011719 8.066406 19.621094 7.933594 19.214844 7.820312 C 18.570312 7.652344 18.128906 7.078125 18.128906 6.410156 L 18.128906 5.703125 C 18.128906 5.445312 17.917969 5.234375 17.660156 5.234375 L 15.839844 5.234375 C 15.582031 5.234375 15.371094 5.445312 15.371094 5.703125 L 15.367188 5.703125 L 15.367188 6.410156 L 15.371094 6.410156 C 15.371094 7.078125 14.929688 7.652344 14.285156 7.820312 C 13.480469 8.035156 12.710938 8.355469 11.996094 8.769531 C 11.417969 9.105469 10.699219 9.007812 10.230469 8.539062 L 9.730469 8.039062 C 9.546875 7.855469 9.246094 7.855469 9.066406 8.039062 L 7.777344 9.324219 C 7.6875 9.414062 7.640625 9.539062 7.640625 9.660156 L 7.636719 9.660156 C 7.636719 9.777344 7.683594 9.898438 7.777344 9.992188 L 8.28125 10.492188 L 8.277344 10.492188 C 8.75 10.964844 8.84375 11.679688 8.507812 12.257812 C 8.304688 12.613281 8.121094 12.984375 7.960938 13.371094 C 7.804688 13.746094 7.671875 14.136719 7.5625 14.546875 C 7.390625 15.1875 6.816406 15.632812 6.148438 15.632812 L 5.441406 15.632812 C 5.183594 15.632812 4.972656 15.84375 4.972656 16.101562 L 4.972656 17.921875 C 4.972656 18.179688 5.183594 18.390625 5.441406 18.390625 L 6.148438 18.390625 C 6.816406 18.390625 7.390625 18.832031 7.5625 19.476562 C 7.777344 20.285156 8.09375 21.046875 8.507812 21.765625 C 8.84375 22.339844 8.75 23.058594 8.28125 23.53125 L 7.777344 24.03125 C 7.691406 24.113281 7.648438 24.21875 7.636719 24.328125 Z M 13.902344 22.957031 C 13.980469 22.949219 14.058594 22.945312 14.136719 22.9375 C 14.089844 22.03125 13.726562 21.261719 13.0625 20.632812 C 10.390625 18.105469 11.003906 13.707031 14.246094 11.996094 C 14.582031 11.824219 14.972656 12.070312 14.972656 12.4375 L 14.972656 16.5625 L 16.753906 17.660156 L 18.519531 16.5625 L 18.519531 12.4375 C 18.519531 12.074219 18.914062 11.800781 19.28125 12.015625 C 20.132812 12.472656 20.84375 13.152344 21.34375 13.976562 C 22.644531 16.132812 22.261719 18.902344 20.433594 20.636719 C 19.734375 21.292969 19.375 22.105469 19.351562 23.066406 C 21.746094 22.03125 23.332031 19.667969 23.332031 17.011719 C 23.332031 13.371094 20.386719 10.421875 16.746094 10.421875 C 13.105469 10.421875 10.160156 13.371094 10.160156 17.011719 C 10.160156 19.570312 11.632812 21.867188 13.902344 22.957031 Z M 15.128906 22.882812 C 16.464844 22.820312 17.523438 22.847656 18.363281 22.96875 C 18.40625 21.777344 18.878906 20.742188 19.75 19.917969 C 21.675781 18.074219 21.542969 15.019531 19.515625 13.359375 L 19.515625 16.835938 L 19.511719 16.835938 C 19.511719 17 19.429688 17.164062 19.28125 17.257812 L 17.015625 18.660156 C 16.863281 18.753906 16.660156 18.765625 16.496094 18.660156 L 14.253906 17.28125 C 14.09375 17.199219 13.980469 17.03125 13.980469 16.835938 L 13.980469 13.359375 C 11.9375 15.03125 11.835938 18.113281 13.742188 19.917969 C 14.59375 20.722656 15.066406 21.722656 15.128906 22.882812 Z M 15.128906 22.882812 " fill-opacity="1" fill-rule="nonzero"/></g></svg>