<svg xmlns="http://www.w3.org/2000/svg" xmlns:xlink="http://www.w3.org/1999/xlink" width="45" zoomAndPan="magnify" viewBox="0 0 33.75 33.749998" height="45" preserveAspectRatio="xMidYMid meet" version="1.0"><defs><clipPath id="f738fff0d3"><path d="M 0.503906 14 L 33 14 L 33 33.5 L 0.503906 33.5 Z M 0.503906 14 " clip-rule="nonzero"/></clipPath></defs><g clip-path="url(#f738fff0d3)"><path fill="#ffffff" d="M 32.964844 22.699219 L 30.429688 15.09375 C 30.355469 14.863281 30.195312 14.75 29.949219 14.75 L 3.59375 14.75 C 3.351562 14.75 3.191406 14.863281 3.113281 15.09375 L 0.578125 22.699219 C 0.554688 22.773438 0.546875 22.855469 0.558594 22.933594 C 0.570312 23.015625 0.601562 23.089844 0.648438 23.15625 C 0.699219 23.21875 0.757812 23.273438 0.828125 23.308594 C 0.902344 23.347656 0.980469 23.363281 1.0625 23.363281 L 3.59375 23.363281 L 3.59375 32.996094 C 3.59375 33.136719 3.644531 33.253906 3.742188 33.351562 C 3.84375 33.453125 3.960938 33.5 4.101562 33.5 L 29.445312 33.5 C 29.582031 33.5 29.703125 33.453125 29.800781 33.351562 C 29.902344 33.253906 29.949219 33.136719 29.949219 32.996094 L 29.949219 23.363281 L 32.484375 23.363281 C 32.566406 23.363281 32.644531 23.347656 32.714844 23.308594 C 32.789062 23.273438 32.847656 23.222656 32.894531 23.15625 C 32.945312 23.089844 32.972656 23.015625 32.984375 22.933594 C 32.996094 22.855469 32.992188 22.773438 32.964844 22.699219 Z M 3.960938 15.761719 L 19.617188 15.761719 L 17.421875 22.351562 L 1.765625 22.351562 Z M 4.609375 23.363281 L 17.785156 23.363281 C 18.03125 23.363281 18.191406 23.25 18.265625 23.019531 L 19.8125 18.378906 L 19.8125 32.488281 L 4.609375 32.488281 Z M 28.9375 32.488281 L 20.828125 32.488281 L 20.828125 18.378906 L 22.375 23.019531 C 22.449219 23.25 22.609375 23.363281 22.855469 23.363281 L 28.9375 23.363281 Z M 23.21875 22.351562 L 21.023438 15.761719 L 29.585938 15.761719 L 31.78125 22.351562 Z M 23.21875 22.351562 " fill-opacity="1" fill-rule="nonzero"/></g><path fill="#ffffff" d="M 4.609375 14.242188 C 4.75 14.242188 4.867188 14.191406 4.96875 14.09375 C 5.066406 13.996094 5.117188 13.875 5.117188 13.734375 L 5.117188 12.722656 L 6.820312 12.722656 C 6.9375 12.722656 7.042969 12.683594 7.132812 12.613281 C 7.226562 12.539062 7.285156 12.445312 7.3125 12.332031 C 7.464844 11.695312 7.710938 11.101562 8.050781 10.546875 C 8.113281 10.449219 8.136719 10.339844 8.125 10.222656 C 8.109375 10.105469 8.0625 10.007812 7.980469 9.921875 L 6.773438 8.71875 L 8.207031 7.285156 L 9.414062 8.488281 C 9.496094 8.574219 9.597656 8.621094 9.714844 8.636719 C 9.828125 8.648438 9.9375 8.625 10.039062 8.5625 C 10.59375 8.21875 11.1875 7.972656 11.820312 7.824219 C 11.9375 7.796875 12.027344 7.734375 12.101562 7.644531 C 12.175781 7.550781 12.210938 7.445312 12.210938 7.328125 L 12.210938 5.625 L 14.238281 5.625 L 14.238281 7.328125 C 14.238281 7.445312 14.273438 7.550781 14.347656 7.644531 C 14.421875 7.734375 14.515625 7.796875 14.628906 7.824219 C 15.261719 7.972656 15.855469 8.21875 16.410156 8.5625 C 16.511719 8.625 16.621094 8.648438 16.738281 8.636719 C 16.855469 8.621094 16.953125 8.574219 17.035156 8.488281 L 18.242188 7.285156 L 19.675781 8.71875 L 18.46875 9.921875 C 18.386719 10.007812 18.339844 10.105469 18.324219 10.222656 C 18.3125 10.339844 18.335938 10.449219 18.398438 10.546875 C 18.742188 11.101562 18.988281 11.699219 19.136719 12.332031 C 19.164062 12.445312 19.222656 12.539062 19.316406 12.613281 C 19.410156 12.683594 19.511719 12.722656 19.628906 12.722656 L 21.335938 12.722656 L 21.335938 13.734375 C 21.335938 13.875 21.382812 13.996094 21.484375 14.09375 C 21.582031 14.191406 21.699219 14.242188 21.839844 14.242188 C 21.980469 14.242188 22.101562 14.191406 22.199219 14.09375 C 22.296875 13.996094 22.347656 13.875 22.347656 13.734375 L 22.347656 12.214844 C 22.347656 12.074219 22.296875 11.957031 22.199219 11.855469 C 22.101562 11.757812 21.980469 11.707031 21.839844 11.707031 L 20.019531 11.707031 C 19.878906 11.242188 19.695312 10.792969 19.460938 10.363281 L 20.75 9.078125 C 20.851562 8.976562 20.898438 8.859375 20.898438 8.71875 C 20.898438 8.578125 20.851562 8.457031 20.75 8.359375 L 18.601562 6.207031 C 18.5 6.109375 18.382812 6.058594 18.242188 6.058594 C 18.101562 6.058594 17.984375 6.109375 17.882812 6.207031 L 16.59375 7.496094 C 16.167969 7.265625 15.71875 7.078125 15.253906 6.941406 L 15.253906 5.117188 C 15.253906 4.980469 15.203125 4.859375 15.105469 4.761719 C 15.003906 4.660156 14.886719 4.613281 14.746094 4.613281 L 11.703125 4.613281 C 11.5625 4.613281 11.445312 4.660156 11.347656 4.761719 C 11.246094 4.859375 11.199219 4.980469 11.199219 5.117188 L 11.199219 6.941406 C 10.730469 7.078125 10.28125 7.265625 9.855469 7.496094 L 8.566406 6.207031 C 8.464844 6.113281 8.347656 6.066406 8.207031 6.066406 C 8.070312 6.066406 7.949219 6.113281 7.847656 6.207031 L 5.699219 8.359375 C 5.601562 8.457031 5.550781 8.578125 5.550781 8.71875 C 5.550781 8.859375 5.601562 8.976562 5.699219 9.078125 L 6.988281 10.363281 C 6.753906 10.792969 6.570312 11.242188 6.429688 11.707031 L 4.609375 11.707031 C 4.46875 11.707031 4.347656 11.757812 4.25 11.855469 C 4.152344 11.957031 4.101562 12.074219 4.101562 12.214844 L 4.101562 13.734375 C 4.101562 13.875 4.152344 13.996094 4.25 14.09375 C 4.347656 14.191406 4.46875 14.242188 4.609375 14.242188 Z M 4.609375 14.242188 " fill-opacity="1" fill-rule="nonzero"/><path fill="#ffffff" d="M 10.183594 13.734375 C 10.183594 13.875 10.234375 13.996094 10.332031 14.09375 C 10.429688 14.191406 10.550781 14.242188 10.691406 14.242188 C 10.832031 14.242188 10.949219 14.191406 11.050781 14.09375 C 11.148438 13.996094 11.199219 13.875 11.199219 13.734375 C 11.199219 13.464844 11.25 13.207031 11.351562 12.960938 C 11.453125 12.710938 11.601562 12.492188 11.792969 12.300781 C 11.980469 12.113281 12.199219 11.964844 12.449219 11.863281 C 12.699219 11.757812 12.957031 11.707031 13.226562 11.707031 C 13.492188 11.707031 13.753906 11.757812 14 11.863281 C 14.25 11.964844 14.46875 12.113281 14.660156 12.300781 C 14.847656 12.492188 14.996094 12.710938 15.097656 12.960938 C 15.199219 13.207031 15.253906 13.464844 15.253906 13.734375 C 15.253906 13.875 15.300781 13.996094 15.402344 14.09375 C 15.5 14.191406 15.621094 14.242188 15.757812 14.242188 C 15.898438 14.242188 16.019531 14.191406 16.117188 14.09375 C 16.214844 13.996094 16.265625 13.875 16.265625 13.734375 C 16.265625 13.332031 16.1875 12.945312 16.035156 12.570312 C 15.878906 12.199219 15.660156 11.871094 15.375 11.585938 C 15.089844 11.300781 14.761719 11.078125 14.386719 10.925781 C 14.015625 10.769531 13.628906 10.695312 13.226562 10.695312 C 12.820312 10.695312 12.433594 10.769531 12.0625 10.925781 C 11.6875 11.078125 11.359375 11.300781 11.074219 11.585938 C 10.789062 11.871094 10.570312 12.199219 10.414062 12.570312 C 10.261719 12.945312 10.183594 13.332031 10.183594 13.734375 Z M 10.183594 13.734375 " fill-opacity="1" fill-rule="nonzero"/><path fill="#ffffff" d="M 24.375 9.761719 L 24.375 13.734375 C 24.375 13.875 24.425781 13.996094 24.523438 14.09375 C 24.621094 14.191406 24.742188 14.242188 24.882812 14.242188 C 25.023438 14.242188 25.140625 14.191406 25.242188 14.09375 C 25.339844 13.996094 25.390625 13.875 25.390625 13.734375 L 25.390625 9.417969 C 25.390625 9.179688 25.277344 9.019531 25.050781 8.941406 C 24.65625 8.800781 24.292969 8.601562 23.957031 8.351562 C 23.625 8.097656 23.335938 7.800781 23.09375 7.457031 C 22.851562 7.117188 22.667969 6.746094 22.539062 6.347656 C 22.414062 5.945312 22.347656 5.539062 22.347656 5.117188 C 22.355469 4.363281 22.535156 3.652344 22.894531 2.988281 C 23.253906 2.324219 23.746094 1.78125 24.375 1.363281 L 24.375 5.117188 C 24.375 5.257812 24.425781 5.378906 24.523438 5.476562 L 26.042969 6.996094 C 26.144531 7.097656 26.261719 7.144531 26.402344 7.144531 C 26.542969 7.144531 26.660156 7.097656 26.761719 6.996094 L 28.28125 5.476562 C 28.378906 5.378906 28.429688 5.257812 28.429688 5.117188 L 28.429688 1.363281 C 29.058594 1.78125 29.550781 2.324219 29.910156 2.988281 C 30.269531 3.652344 30.453125 4.363281 30.457031 5.117188 C 30.457031 5.539062 30.390625 5.945312 30.265625 6.347656 C 30.136719 6.746094 29.953125 7.117188 29.710938 7.457031 C 29.46875 7.800781 29.179688 8.097656 28.847656 8.351562 C 28.511719 8.601562 28.148438 8.800781 27.753906 8.941406 C 27.527344 9.019531 27.417969 9.179688 27.417969 9.417969 L 27.417969 13.734375 C 27.417969 13.875 27.464844 13.996094 27.566406 14.09375 C 27.664062 14.191406 27.78125 14.242188 27.921875 14.242188 C 28.0625 14.242188 28.183594 14.191406 28.28125 14.09375 C 28.378906 13.996094 28.429688 13.875 28.429688 13.734375 L 28.429688 9.761719 C 28.882812 9.5625 29.292969 9.304688 29.671875 8.988281 C 30.046875 8.667969 30.371094 8.304688 30.640625 7.890625 C 30.910156 7.480469 31.117188 7.039062 31.257812 6.566406 C 31.398438 6.09375 31.46875 5.613281 31.472656 5.117188 C 31.472656 4.578125 31.398438 4.046875 31.242188 3.53125 C 31.085938 3.011719 30.855469 2.527344 30.554688 2.078125 C 30.253906 1.628906 29.894531 1.234375 29.472656 0.894531 C 29.054688 0.554688 28.59375 0.28125 28.089844 0.078125 C 28.015625 0.0507812 27.933594 0.0429688 27.851562 0.0546875 C 27.773438 0.0664062 27.695312 0.0976562 27.628906 0.144531 C 27.5625 0.191406 27.511719 0.25 27.472656 0.324219 C 27.433594 0.398438 27.417969 0.476562 27.417969 0.558594 L 27.417969 4.910156 L 26.402344 5.921875 L 25.390625 4.910156 L 25.390625 0.558594 C 25.390625 0.476562 25.371094 0.398438 25.332031 0.324219 C 25.292969 0.25 25.242188 0.191406 25.175781 0.144531 C 25.109375 0.0976562 25.035156 0.0664062 24.953125 0.0546875 C 24.871094 0.0429688 24.792969 0.0507812 24.714844 0.078125 C 24.210938 0.28125 23.75 0.554688 23.332031 0.894531 C 22.910156 1.234375 22.550781 1.628906 22.25 2.078125 C 21.949219 2.527344 21.71875 3.011719 21.5625 3.53125 C 21.40625 4.046875 21.332031 4.578125 21.335938 5.117188 C 21.335938 5.613281 21.40625 6.09375 21.546875 6.566406 C 21.6875 7.039062 21.894531 7.480469 22.164062 7.890625 C 22.433594 8.304688 22.757812 8.667969 23.132812 8.988281 C 23.511719 9.304688 23.925781 9.5625 24.375 9.761719 Z M 24.375 9.761719 " fill-opacity="1" fill-rule="nonzero"/></svg>