<svg xmlns="http://www.w3.org/2000/svg" xmlns:xlink="http://www.w3.org/1999/xlink" width="45" zoomAndPan="magnify" viewBox="0 0 33.75 33.749998" height="45" preserveAspectRatio="xMidYMid meet" version="1.0"><defs><clipPath id="8b215c70af"><path d="M 0.753906 10 L 23 10 L 23 33.5 L 0.753906 33.5 Z M 0.753906 10 " clip-rule="nonzero"/></clipPath><clipPath id="a1ad48a5af"><path d="M 24 22 L 32.765625 22 L 32.765625 33.5 L 24 33.5 Z M 24 22 " clip-rule="nonzero"/></clipPath><clipPath id="3b9b0c709e"><path d="M 24 11 L 32.765625 11 L 32.765625 23 L 24 23 Z M 24 11 " clip-rule="nonzero"/></clipPath></defs><g clip-path="url(#8b215c70af)"><path fill="#ffffff" d="M 8.726562 33.253906 L 14.890625 33.253906 C 14.894531 33.253906 14.898438 33.25 14.90625 33.25 C 19.28125 33.230469 22.835938 28.097656 22.835938 21.785156 C 22.835938 15.472656 19.28125 10.335938 14.90625 10.320312 C 14.898438 10.320312 14.894531 10.316406 14.890625 10.316406 L 8.726562 10.316406 C 4.34375 10.316406 0.777344 15.460938 0.777344 21.785156 C 0.777344 28.109375 4.34375 33.253906 8.726562 33.253906 Z M 12.046875 11.078125 C 9.058594 12.730469 6.933594 16.902344 6.933594 21.785156 C 6.933594 26.664062 9.058594 30.839844 12.046875 32.492188 L 11.65625 32.492188 C 7.695312 32.492188 4.472656 27.6875 4.472656 21.785156 C 4.472656 15.878906 7.695312 11.078125 11.65625 11.078125 Z M 22.074219 21.785156 C 22.074219 27.6875 18.847656 32.488281 14.882812 32.488281 C 10.917969 32.488281 7.691406 27.6875 7.691406 21.785156 C 7.691406 15.882812 10.917969 11.078125 14.882812 11.078125 C 18.847656 11.078125 22.074219 15.882812 22.074219 21.785156 Z M 8.726562 11.078125 L 8.816406 11.078125 C 5.835938 12.730469 3.710938 16.90625 3.710938 21.785156 C 3.710938 26.664062 5.835938 30.839844 8.816406 32.492188 L 8.726562 32.492188 C 4.761719 32.492188 1.539062 27.6875 1.539062 21.785156 C 1.539062 15.878906 4.761719 11.078125 8.726562 11.078125 Z M 8.726562 11.078125 " fill-opacity="1" fill-rule="nonzero"/></g><path fill="#ffffff" d="M 8.949219 21.785156 C 8.949219 25.714844 10.992188 30.777344 14.882812 30.777344 C 18.769531 30.777344 20.816406 25.722656 20.816406 21.785156 C 20.816406 17.855469 18.773438 12.792969 14.882812 12.792969 C 11 12.792969 8.949219 17.84375 8.949219 21.785156 Z M 20.046875 21.40625 L 16.707031 21.40625 C 16.65625 20.960938 16.53125 20.5625 16.339844 20.226562 L 18.796875 16.417969 C 19.53125 17.769531 19.992188 19.503906 20.046875 21.40625 Z M 18.796875 27.152344 L 16.339844 23.34375 C 16.53125 23.007812 16.65625 22.609375 16.707031 22.164062 L 20.046875 22.164062 C 19.992188 24.066406 19.53125 25.800781 18.796875 27.152344 Z M 9.722656 22.164062 L 13.0625 22.164062 C 13.109375 22.609375 13.238281 23.007812 13.425781 23.34375 L 10.96875 27.152344 C 10.234375 25.800781 9.777344 24.066406 9.722656 22.164062 Z M 10.96875 16.417969 L 13.425781 20.226562 C 13.238281 20.5625 13.109375 20.960938 13.0625 21.40625 L 9.722656 21.40625 C 9.777344 19.503906 10.234375 17.769531 10.96875 16.417969 Z M 14.503906 13.582031 L 14.503906 19.304688 C 14.296875 19.363281 14.109375 19.472656 13.933594 19.613281 L 11.410156 15.699219 C 12.242188 14.496094 13.316406 13.722656 14.503906 13.582031 Z M 11.410156 27.871094 L 13.933594 23.957031 C 14.109375 24.097656 14.296875 24.207031 14.503906 24.261719 L 14.503906 29.984375 C 13.316406 29.847656 12.242188 29.070312 11.410156 27.871094 Z M 15.265625 29.984375 L 15.265625 24.261719 C 15.46875 24.207031 15.660156 24.097656 15.832031 23.957031 L 18.355469 27.871094 C 17.523438 29.070312 16.449219 29.847656 15.265625 29.984375 Z M 18.355469 15.699219 L 15.832031 19.613281 C 15.65625 19.472656 15.46875 19.363281 15.265625 19.304688 L 15.265625 13.582031 C 16.449219 13.722656 17.523438 14.496094 18.355469 15.699219 Z M 18.355469 15.699219 " fill-opacity="1" fill-rule="nonzero"/><path fill="#ffffff" d="M 14.386719 6.507812 C 14.191406 6.523438 14.042969 6.6875 14.042969 6.886719 L 14.042969 8.9375 C 14.042969 9.136719 14.191406 9.300781 14.386719 9.316406 L 16.011719 9.46875 C 16.21875 9.488281 16.40625 9.335938 16.425781 9.125 C 16.445312 8.917969 16.289062 8.730469 16.082031 8.710938 L 14.804688 8.59375 L 14.804688 7.230469 L 16.082031 7.105469 C 16.25 7.089844 16.386719 6.96875 16.417969 6.804688 C 16.5625 6.097656 16.839844 5.425781 17.25 4.808594 C 17.339844 4.667969 17.332031 4.484375 17.222656 4.355469 L 16.398438 3.363281 L 17.363281 2.402344 L 18.351562 3.222656 C 18.480469 3.328125 18.667969 3.339844 18.804688 3.246094 C 19.414062 2.839844 20.085938 2.5625 20.804688 2.417969 C 20.96875 2.382812 21.09375 2.246094 21.109375 2.082031 L 21.226562 0.808594 L 22.59375 0.808594 L 22.714844 2.082031 C 22.730469 2.246094 22.851562 2.382812 23.015625 2.417969 C 23.734375 2.5625 24.40625 2.839844 25.015625 3.246094 C 25.15625 3.339844 25.339844 3.328125 25.46875 3.222656 L 26.457031 2.402344 L 27.417969 3.363281 L 26.597656 4.355469 C 26.488281 4.484375 26.480469 4.667969 26.570312 4.808594 C 26.980469 5.425781 27.257812 6.097656 27.402344 6.804688 C 27.4375 6.96875 27.570312 7.089844 27.738281 7.105469 L 29.019531 7.230469 L 29.019531 8.59375 L 27.738281 8.710938 C 27.570312 8.726562 27.433594 8.851562 27.402344 9.015625 C 27.300781 9.527344 27.128906 10.015625 26.890625 10.476562 C 26.792969 10.664062 26.867188 10.894531 27.054688 10.988281 C 27.242188 11.085938 27.46875 11.011719 27.566406 10.828125 C 27.792969 10.386719 27.96875 9.921875 28.085938 9.441406 L 29.433594 9.316406 C 29.628906 9.300781 29.777344 9.136719 29.777344 8.9375 L 29.777344 6.886719 C 29.777344 6.6875 29.628906 6.523438 29.433594 6.507812 L 28.085938 6.375 C 27.933594 5.765625 27.6875 5.179688 27.359375 4.628906 L 28.226562 3.582031 C 28.351562 3.429688 28.339844 3.210938 28.199219 3.070312 L 26.75 1.621094 C 26.609375 1.480469 26.390625 1.472656 26.238281 1.59375 L 25.195312 2.460938 C 24.652344 2.132812 24.0625 1.886719 23.445312 1.734375 L 23.320312 0.390625 C 23.300781 0.195312 23.136719 0.046875 22.941406 0.046875 L 20.882812 0.046875 C 20.683594 0.046875 20.523438 0.195312 20.503906 0.390625 L 20.378906 1.734375 C 19.757812 1.886719 19.171875 2.132812 18.625 2.460938 L 17.585938 1.59375 C 17.433594 1.472656 17.210938 1.480469 17.074219 1.617188 L 15.617188 3.070312 C 15.476562 3.210938 15.464844 3.429688 15.59375 3.582031 L 16.464844 4.628906 C 16.132812 5.179688 15.890625 5.765625 15.738281 6.375 Z M 14.386719 6.507812 " fill-opacity="1" fill-rule="nonzero"/><path fill="#ffffff" d="M 19.121094 7.910156 C 19.121094 9.449219 20.375 10.699219 21.910156 10.699219 C 23.449219 10.699219 24.699219 9.449219 24.699219 7.910156 C 24.699219 6.375 23.449219 5.125 21.910156 5.125 C 20.375 5.125 19.121094 6.375 19.121094 7.910156 Z M 19.121094 7.910156 " fill-opacity="1" fill-rule="nonzero"/><path fill="#ffffff" d="M 28.464844 17.652344 C 28.460938 17.652344 28.460938 17.652344 28.460938 17.652344 C 28.019531 17.652344 27.660156 18.011719 27.660156 18.457031 C 27.660156 18.898438 28.019531 19.257812 28.460938 19.257812 C 28.464844 19.257812 28.464844 19.257812 28.464844 19.257812 C 28.910156 19.253906 29.265625 18.890625 29.265625 18.453125 C 29.265625 18.011719 28.90625 17.652344 28.464844 17.652344 Z M 28.464844 17.652344 " fill-opacity="1" fill-rule="nonzero"/><g clip-path="url(#a1ad48a5af)"><path fill="#ffffff" d="M 32.050781 31.550781 L 32.050781 28.507812 C 32.050781 27.863281 31.527344 27.339844 30.878906 27.339844 L 29.824219 27.339844 L 29.820312 22.8125 C 29.820312 22.601562 29.648438 22.429688 29.4375 22.429688 C 29.230469 22.433594 29.058594 22.601562 29.058594 22.8125 L 29.066406 27.339844 L 27.878906 27.339844 L 27.875 22.8125 C 27.875 22.601562 27.703125 22.433594 27.496094 22.433594 C 27.492188 22.433594 27.492188 22.433594 27.492188 22.433594 C 27.285156 22.433594 27.113281 22.605469 27.113281 22.8125 L 27.121094 27.339844 L 26.070312 27.339844 C 25.425781 27.339844 24.898438 27.863281 24.898438 28.507812 L 24.898438 31.550781 C 24.898438 32.195312 25.425781 32.722656 26.070312 32.722656 L 26.953125 32.722656 C 27.042969 32.722656 27.128906 32.75 27.191406 32.800781 C 27.957031 33.421875 29.035156 33.386719 29.753906 32.800781 C 29.820312 32.75 29.90625 32.722656 29.996094 32.722656 L 30.878906 32.722656 C 31.527344 32.722656 32.050781 32.195312 32.050781 31.550781 Z M 31.289062 31.550781 C 31.289062 31.777344 31.105469 31.960938 30.878906 31.960938 L 29.996094 31.960938 C 29.730469 31.960938 29.472656 32.050781 29.277344 32.210938 C 28.832031 32.570312 28.152344 32.601562 27.671875 32.210938 C 27.472656 32.050781 27.21875 31.960938 26.953125 31.960938 L 26.070312 31.960938 C 25.84375 31.960938 25.660156 31.777344 25.660156 31.550781 L 25.660156 28.507812 C 25.660156 28.28125 25.84375 28.097656 26.070312 28.097656 C 26.671875 28.097656 30.929688 28.097656 30.878906 28.097656 C 31.105469 28.097656 31.289062 28.28125 31.289062 28.507812 Z M 31.289062 31.550781 " fill-opacity="1" fill-rule="nonzero"/></g><g clip-path="url(#3b9b0c709e)"><path fill="#ffffff" d="M 32.628906 13.164062 L 32.625 12.488281 C 32.625 12.09375 32.304688 11.769531 31.90625 11.769531 L 25.003906 11.777344 C 24.609375 11.777344 24.285156 12.101562 24.285156 12.496094 L 24.289062 13.171875 C 24.289062 13.566406 24.609375 13.890625 25.007812 13.890625 L 25.109375 13.890625 C 25.09375 13.960938 25.082031 14.035156 25.082031 14.113281 L 25.082031 14.253906 C 25.082031 14.476562 25.160156 14.6875 25.296875 14.859375 C 25.160156 15.03125 25.082031 15.242188 25.082031 15.460938 L 25.082031 15.605469 C 25.085938 15.6875 25.097656 15.765625 25.117188 15.839844 C 24.578125 15.890625 24.15625 16.335938 24.160156 16.886719 L 24.164062 21.601562 C 24.164062 22.183594 24.636719 22.65625 25.21875 22.65625 L 26.007812 22.65625 C 26.484375 22.652344 26.894531 22.335938 27.027344 21.867188 C 27.207031 21.226562 27.796875 20.777344 28.464844 20.773438 C 28.464844 20.773438 28.464844 20.773438 28.46875 20.773438 C 29.132812 20.773438 29.726562 21.222656 29.90625 21.867188 C 30.039062 22.328125 30.457031 22.648438 30.925781 22.648438 L 31.714844 22.648438 C 32.296875 22.648438 32.769531 22.171875 32.769531 21.59375 L 32.765625 16.875 C 32.761719 16.351562 32.375 15.882812 31.804688 15.832031 C 31.824219 15.757812 31.835938 15.679688 31.835938 15.597656 L 31.835938 15.457031 C 31.835938 15.234375 31.757812 15.023438 31.621094 14.851562 C 31.753906 14.683594 31.835938 14.476562 31.835938 14.246094 L 31.835938 14.105469 C 31.835938 14.027344 31.824219 13.953125 31.804688 13.882812 L 31.910156 13.882812 C 32.304688 13.882812 32.628906 13.5625 32.628906 13.164062 Z M 30.851562 15.234375 C 30.972656 15.234375 31.074219 15.332031 31.074219 15.457031 L 31.074219 15.597656 C 31.074219 15.722656 30.976562 15.824219 30.851562 15.824219 C 30.800781 15.824219 25.808594 15.828125 26.070312 15.828125 C 25.976562 15.84375 25.84375 15.746094 25.84375 15.605469 L 25.84375 15.460938 C 25.84375 15.335938 25.945312 15.238281 26.066406 15.238281 Z M 32.003906 16.878906 L 32.007812 21.59375 C 32.007812 21.753906 31.875 21.886719 31.714844 21.886719 L 30.925781 21.886719 C 30.792969 21.886719 30.679688 21.796875 30.640625 21.660156 C 30.367188 20.691406 29.472656 20.015625 28.46875 20.015625 C 28.464844 20.015625 28.464844 20.015625 28.464844 20.015625 C 27.457031 20.015625 26.5625 20.695312 26.292969 21.664062 C 26.253906 21.800781 26.140625 21.894531 26.007812 21.894531 L 25.21875 21.894531 C 25.058594 21.894531 24.925781 21.761719 24.925781 21.601562 L 24.917969 16.882812 C 24.917969 16.722656 25.050781 16.589844 25.214844 16.589844 C 31.816406 16.582031 31.117188 16.582031 31.707031 16.582031 C 31.867188 16.582031 32.003906 16.710938 32.003906 16.878906 Z M 31.074219 14.105469 L 31.074219 14.25 C 31.074219 14.371094 30.972656 14.472656 30.851562 14.472656 L 26.066406 14.476562 C 25.945312 14.476562 25.84375 14.378906 25.84375 14.253906 L 25.84375 14.113281 C 25.84375 13.988281 25.941406 13.886719 26.066406 13.886719 C 26.117188 13.886719 31.101562 13.882812 30.851562 13.882812 C 30.972656 13.882812 31.074219 13.984375 31.074219 14.105469 Z M 25.046875 13.128906 L 25.046875 12.539062 L 31.867188 12.53125 L 31.878906 13.121094 C 31.261719 13.121094 31.910156 13.121094 25.046875 13.128906 Z M 25.046875 13.128906 " fill-opacity="1" fill-rule="nonzero"/></g><path fill="#ffffff" d="M 28.476562 29.316406 C 27.933594 29.316406 27.496094 29.753906 27.496094 30.296875 C 27.496094 30.835938 27.933594 31.273438 28.476562 31.273438 C 29.015625 31.273438 29.457031 30.835938 29.457031 30.296875 C 29.457031 29.753906 29.015625 29.316406 28.476562 29.316406 Z M 28.476562 29.316406 " fill-opacity="1" fill-rule="nonzero"/></svg>