<svg xmlns="http://www.w3.org/2000/svg" xmlns:xlink="http://www.w3.org/1999/xlink" width="45" zoomAndPan="magnify" viewBox="0 0 33.75 33.749998" height="45" preserveAspectRatio="xMidYMid meet" version="1.0"><defs><clipPath id="3fc516bae1"><path d="M 13.839844 13.839844 L 33.496094 13.839844 L 33.496094 33.496094 L 13.839844 33.496094 Z M 13.839844 13.839844 " clip-rule="nonzero"/></clipPath><clipPath id="9aa845f834"><path d="M 15.019531 0.046875 L 33.496094 0.046875 L 33.496094 16.378906 L 15.019531 16.378906 Z M 15.019531 0.046875 " clip-rule="nonzero"/></clipPath><clipPath id="0e3daff108"><path d="M 0.046875 15.019531 L 16.378906 15.019531 L 16.378906 33.496094 L 0.046875 33.496094 Z M 0.046875 15.019531 " clip-rule="nonzero"/></clipPath></defs><g clip-path="url(#3fc516bae1)"><path fill="#ffffff" d="M 28.816406 33.496094 C 27.566406 33.496094 26.390625 33.011719 25.503906 32.125 L 14.382812 21.003906 C 14.300781 20.921875 14.246094 20.8125 14.234375 20.691406 L 13.933594 17.953125 C 13.914062 17.792969 13.96875 17.636719 14.082031 17.523438 L 17.523438 14.082031 C 17.636719 13.96875 17.792969 13.914062 17.953125 13.933594 L 20.691406 14.234375 C 20.8125 14.246094 20.921875 14.300781 21.003906 14.382812 L 32.125 25.503906 C 33.011719 26.386719 33.496094 27.5625 33.496094 28.816406 C 33.496094 30.066406 33.011719 31.242188 32.125 32.125 C 31.242188 33.011719 30.066406 33.496094 28.816406 33.496094 Z M 15.253906 20.394531 L 26.242188 31.386719 C 27.660156 32.804688 29.96875 32.804688 31.386719 31.386719 C 32.804688 29.96875 32.804688 27.660156 31.386719 26.242188 L 20.394531 15.253906 L 18.085938 15 L 15 18.085938 L 15.253906 20.394531 " fill-opacity="1" fill-rule="evenodd"/></g><path fill="#ffffff" d="M 28.085938 30.507812 C 27.953125 30.507812 27.816406 30.457031 27.714844 30.355469 L 17.574219 20.214844 C 17.367188 20.007812 17.367188 19.679688 17.574219 19.472656 C 17.777344 19.269531 18.105469 19.269531 18.3125 19.472656 L 28.453125 29.617188 C 28.660156 29.820312 28.660156 30.152344 28.453125 30.355469 C 28.351562 30.457031 28.21875 30.507812 28.085938 30.507812 " fill-opacity="1" fill-rule="evenodd"/><path fill="#ffffff" d="M 29.988281 28.609375 C 29.851562 28.609375 29.71875 28.558594 29.617188 28.453125 L 19.472656 18.3125 C 19.269531 18.105469 19.269531 17.777344 19.472656 17.570312 C 19.679688 17.367188 20.007812 17.367188 20.214844 17.570312 L 30.355469 27.714844 C 30.5625 27.917969 30.5625 28.25 30.355469 28.453125 C 30.253906 28.558594 30.121094 28.609375 29.988281 28.609375 " fill-opacity="1" fill-rule="evenodd"/><path fill="#ffffff" d="M 15.425781 17.441406 C 15.292969 17.441406 15.160156 17.390625 15.058594 17.289062 L 3.1875 5.421875 L 1.375 4.648438 C 1.265625 4.601562 1.175781 4.523438 1.121094 4.421875 L 0.109375 2.597656 C 0 2.394531 0.0351562 2.140625 0.199219 1.976562 L 1.976562 0.199219 C 2.140625 0.0351562 2.394531 0 2.597656 0.109375 L 4.421875 1.121094 C 4.523438 1.175781 4.601562 1.265625 4.648438 1.371094 L 5.421875 3.1875 L 17.289062 15.058594 C 17.492188 15.261719 17.492188 15.59375 17.289062 15.796875 L 15.796875 17.289062 C 15.695312 17.390625 15.558594 17.441406 15.425781 17.441406 Z M 1.949219 3.757812 L 3.691406 4.5 C 3.753906 4.523438 3.808594 4.5625 3.855469 4.609375 L 15.425781 16.179688 L 16.179688 15.425781 L 4.609375 3.855469 C 4.5625 3.808594 4.523438 3.753906 4.5 3.691406 L 3.757812 1.949219 L 2.4375 1.214844 L 1.214844 2.4375 L 1.949219 3.757812 " fill-opacity="1" fill-rule="evenodd"/><g clip-path="url(#9aa845f834)"><path fill="#ffffff" d="M 21.652344 16.292969 C 21.519531 16.292969 21.382812 16.242188 21.28125 16.140625 C 21.078125 15.933594 21.078125 15.605469 21.28125 15.398438 L 23.992188 12.691406 C 24.136719 12.546875 24.347656 12.5 24.539062 12.570312 C 26.683594 13.339844 29.109375 12.796875 30.71875 11.183594 C 32.125 9.777344 32.71875 7.746094 32.332031 5.828125 L 28.847656 9.3125 C 28.644531 9.515625 28.3125 9.515625 28.109375 9.3125 L 24.230469 5.433594 C 24.132812 5.335938 24.078125 5.203125 24.078125 5.0625 C 24.078125 4.925781 24.132812 4.792969 24.230469 4.695312 L 27.714844 1.210938 C 25.792969 0.824219 23.765625 1.414062 22.359375 2.824219 C 20.746094 4.433594 20.203125 6.859375 20.972656 9.003906 C 21.042969 9.195312 20.996094 9.40625 20.851562 9.550781 L 15.949219 14.457031 C 15.742188 14.660156 15.414062 14.660156 15.207031 14.457031 C 15.003906 14.25 15.003906 13.921875 15.207031 13.714844 L 19.882812 9.039062 C 19.539062 7.90625 19.488281 6.703125 19.734375 5.539062 C 20.015625 4.230469 20.667969 3.035156 21.621094 2.082031 C 22.570312 1.132812 23.765625 0.480469 25.074219 0.199219 C 26.347656 -0.0742188 27.667969 0.015625 28.894531 0.453125 C 29.0625 0.515625 29.1875 0.65625 29.226562 0.832031 C 29.265625 1.007812 29.214844 1.191406 29.085938 1.316406 L 25.339844 5.0625 L 28.480469 8.203125 L 32.226562 4.457031 C 32.351562 4.328125 32.535156 4.277344 32.710938 4.316406 C 32.886719 4.355469 33.027344 4.480469 33.085938 4.648438 C 33.527344 5.875 33.613281 7.195312 33.339844 8.46875 C 33.0625 9.777344 32.410156 10.972656 31.460938 11.921875 C 30.507812 12.875 29.3125 13.527344 28.003906 13.804688 C 26.839844 14.054688 25.636719 14.003906 24.503906 13.65625 L 22.023438 16.140625 C 21.917969 16.242188 21.785156 16.292969 21.652344 16.292969 " fill-opacity="1" fill-rule="evenodd"/></g><g clip-path="url(#0e3daff108)"><path fill="#ffffff" d="M 7.003906 33.496094 C 6.203125 33.496094 5.40625 33.359375 4.648438 33.085938 C 4.480469 33.027344 4.355469 32.882812 4.316406 32.710938 C 4.277344 32.535156 4.328125 32.351562 4.457031 32.226562 L 8.203125 28.476562 L 5.0625 25.339844 L 1.316406 29.085938 C 1.191406 29.210938 1.007812 29.265625 0.832031 29.226562 C 0.65625 29.1875 0.515625 29.0625 0.453125 28.894531 C 0.015625 27.667969 -0.0742188 26.347656 0.199219 25.074219 C 0.480469 23.765625 1.132812 22.570312 2.082031 21.617188 C 3.035156 20.667969 4.230469 20.015625 5.539062 19.734375 C 6.703125 19.488281 7.90625 19.539062 9.039062 19.882812 L 13.714844 15.207031 C 13.921875 15.003906 14.25 15.003906 14.457031 15.207031 C 14.660156 15.414062 14.660156 15.742188 14.457031 15.949219 L 9.550781 20.851562 C 9.40625 20.996094 9.195312 21.042969 9.003906 20.972656 C 6.859375 20.203125 4.433594 20.746094 2.824219 22.359375 C 1.414062 23.765625 0.824219 25.792969 1.210938 27.714844 L 4.695312 24.230469 C 4.792969 24.132812 4.925781 24.078125 5.0625 24.078125 C 5.203125 24.078125 5.335938 24.132812 5.433594 24.230469 L 9.3125 28.109375 C 9.515625 28.3125 9.515625 28.644531 9.3125 28.847656 L 5.828125 32.332031 C 7.75 32.71875 9.777344 32.125 11.183594 30.71875 C 12.796875 29.109375 13.339844 26.683594 12.570312 24.539062 C 12.5 24.347656 12.546875 24.132812 12.691406 23.992188 L 15.402344 21.28125 C 15.605469 21.078125 15.933594 21.078125 16.140625 21.28125 C 16.34375 21.488281 16.34375 21.816406 16.140625 22.023438 L 13.660156 24.503906 C 14.003906 25.636719 14.054688 26.839844 13.804688 28.003906 C 13.527344 29.3125 12.875 30.507812 11.921875 31.460938 C 10.972656 32.410156 9.777344 33.0625 8.46875 33.339844 C 7.984375 33.445312 7.492188 33.496094 7.003906 33.496094 " fill-opacity="1" fill-rule="evenodd"/></g></svg>