<svg xmlns="http://www.w3.org/2000/svg" xmlns:xlink="http://www.w3.org/1999/xlink" width="45" zoomAndPan="magnify" viewBox="0 0 33.75 33.749998" height="45" preserveAspectRatio="xMidYMid meet" version="1.0"><defs><clipPath id="5a9826ba65"><path d="M 12.238281 4 L 19 4 L 19 13.402344 L 12.238281 13.402344 Z M 12.238281 4 " clip-rule="nonzero"/></clipPath><clipPath id="f3f73e1a8e"><path d="M 16 0.746094 L 21.917969 0.746094 L 21.917969 13.402344 L 16 13.402344 Z M 16 0.746094 " clip-rule="nonzero"/></clipPath><clipPath id="b7b5762a76"><path d="M 4.519531 14.019531 L 29 14.019531 L 29 33.375 L 4.519531 33.375 Z M 4.519531 14.019531 " clip-rule="nonzero"/></clipPath></defs><g clip-path="url(#5a9826ba65)"><path fill="#ffff" d="M 18.324219 9.121094 C 18.183594 9.992188 17.464844 10.652344 16.597656 10.652344 C 15.632812 10.652344 14.847656 9.824219 14.847656 8.808594 C 14.847656 7.792969 15.632812 6.964844 16.597656 6.964844 C 16.664062 6.964844 16.730469 6.96875 16.792969 6.976562 L 17.230469 6.050781 L 17.46875 5.546875 L 17.472656 5.535156 L 17.46875 5.53125 L 17.46875 4.21875 L 15.730469 4.21875 L 15.730469 5.53125 C 15.476562 5.605469 15.238281 5.710938 15.011719 5.84375 L 14.128906 4.917969 L 12.902344 6.210938 L 13.78125 7.136719 C 13.65625 7.378906 13.554688 7.628906 13.484375 7.894531 L 12.238281 7.894531 L 12.238281 9.722656 L 13.484375 9.722656 C 13.554688 9.988281 13.65625 10.238281 13.78125 10.480469 L 12.902344 11.40625 L 14.128906 12.699219 L 15.011719 11.773438 C 15.238281 11.90625 15.476562 12.011719 15.730469 12.085938 L 15.730469 13.398438 L 17.058594 13.398438 L 17.066406 13.375 C 17.105469 13.261719 17.171875 13.046875 17.46875 12.136719 L 17.46875 12.085938 L 17.488281 12.082031 C 17.6875 11.460938 17.988281 10.53125 18.445312 9.121094 Z M 18.324219 9.121094 " fill-opacity="1" fill-rule="nonzero"/></g><g clip-path="url(#f3f73e1a8e)"><path fill="#ffff" d="M 21.660156 3.601562 C 21.917969 2.867188 21.769531 2.078125 21.335938 1.507812 L 20.804688 3.035156 L 19.617188 3.253906 L 18.84375 2.273438 L 19.371094 0.746094 C 19.019531 0.820312 18.707031 0.976562 18.4375 1.222656 C 18.164062 1.464844 17.964844 1.765625 17.84375 2.121094 C 17.5625 2.929688 17.769531 3.804688 18.3125 4.378906 L 16.21875 8.84375 L 19.019531 8.84375 L 17.570312 13.339844 L 17.667969 13.339844 C 17.800781 13.132812 18.121094 12.636719 20.585938 8.84375 L 21.636719 7.230469 L 19.007812 7.230469 L 20.0625 4.988281 C 20.425781 4.925781 20.753906 4.773438 21.042969 4.523438 C 21.328125 4.277344 21.535156 3.96875 21.660156 3.601562 Z M 21.660156 3.601562 " fill-opacity="1" fill-rule="nonzero"/></g><g clip-path="url(#b7b5762a76)"><path fill="#ffff" d="M 28.957031 22.894531 L 28.667969 22.09375 C 28.511719 21.65625 28.015625 21.296875 27.574219 21.296875 L 26.554688 21.296875 C 25.800781 19.203125 24.886719 16.675781 24.601562 16.082031 C 24.183594 15.152344 22.851562 14.738281 22.121094 14.53125 C 22.121094 14.53125 20.898438 14.066406 16.800781 14.066406 C 12.707031 14.066406 11.507812 14.53125 11.507812 14.53125 C 10.648438 14.816406 9.445312 15.230469 8.976562 16.105469 C 8.742188 16.546875 7.804688 19.128906 7.046875 21.296875 L 6.054688 21.296875 C 5.613281 21.296875 5.117188 21.65625 4.960938 22.09375 L 4.675781 22.894531 C 4.519531 23.335938 4.753906 23.695312 5.195312 23.695312 L 6.214844 23.695312 C 6.082031 24.058594 6.003906 24.265625 6.003906 24.265625 C 5.925781 24.394531 5.875 24.988281 5.875 25.167969 L 5.875 32.472656 C 5.875 32.9375 6.265625 33.324219 6.734375 33.324219 L 9.863281 33.324219 C 10.332031 33.324219 10.726562 32.9375 10.726562 32.472656 L 10.726562 30.925781 L 22.90625 30.925781 L 22.90625 32.472656 C 22.90625 32.9375 23.296875 33.324219 23.765625 33.324219 L 26.921875 33.324219 C 27.390625 33.324219 27.78125 32.9375 27.78125 32.472656 L 27.78125 25.167969 C 27.78125 25.011719 27.730469 24.394531 27.652344 24.265625 C 27.652344 24.265625 27.574219 24.058594 27.441406 23.695312 L 28.433594 23.695312 C 28.851562 23.695312 29.085938 23.335938 28.957031 22.894531 Z M 10.726562 27.386719 L 9.683594 26.691406 C 7.75 26.535156 7.515625 27.207031 7.101562 26.484375 L 7.101562 25.605469 C 7.101562 24.753906 7.59375 24.730469 8.144531 24.730469 C 8.664062 24.730469 9.707031 25.167969 10.410156 25.476562 C 11.167969 25.8125 11.714844 25.527344 12.003906 26.640625 C 11.976562 27.15625 11.691406 27.386719 10.726562 27.386719 Z M 8.898438 21.632812 C 9.550781 18.996094 10.648438 17.164062 10.804688 16.726562 C 10.90625 16.417969 10.648438 15.847656 16.828125 15.847656 C 23.007812 15.847656 22.671875 16.675781 22.695312 16.699219 C 22.984375 17.292969 24.128906 19.230469 24.730469 21.632812 C 24.730469 21.632812 22.410156 21.941406 17.113281 21.941406 C 11.820312 21.941406 8.898438 21.632812 8.898438 21.632812 Z M 21.652344 26.640625 C 22.878906 25.140625 22.488281 25.8125 23.242188 25.476562 C 23.921875 25.167969 24.992188 24.730469 25.511719 24.730469 C 26.058594 24.730469 26.554688 24.753906 26.554688 25.605469 L 26.554688 26.484375 C 26.164062 27.179688 25.824219 26.5625 23.871094 26.742188 L 22.90625 27.363281 C 21.941406 27.386719 21.3125 27.027344 21.652344 26.640625 Z M 21.652344 26.640625 " fill-opacity="1" fill-rule="nonzero"/></g></svg>