<svg xmlns="http://www.w3.org/2000/svg" xmlns:xlink="http://www.w3.org/1999/xlink" width="45" zoomAndPan="magnify" viewBox="0 0 33.75 33.749998" height="45" preserveAspectRatio="xMidYMid meet" version="1.0"><defs><clipPath id="02d1ebfb32"><path d="M 23 11 L 33.5 11 L 33.5 23 L 23 23 Z M 23 11 " clip-rule="nonzero"/></clipPath><clipPath id="bb496c1e35"><path d="M 25 21 L 30 21 L 30 24.96875 L 25 24.96875 Z M 25 21 " clip-rule="nonzero"/></clipPath><clipPath id="f4a61817ee"><path d="M 11 21 L 16 21 L 16 24.96875 L 11 24.96875 Z M 11 21 " clip-rule="nonzero"/></clipPath><clipPath id="168d1a5b0d"><path d="M 6 8.59375 L 26 8.59375 L 26 23 L 6 23 Z M 6 8.59375 " clip-rule="nonzero"/></clipPath></defs><g clip-path="url(#02d1ebfb32)"><path fill="#ffffff" d="M 30.601562 11.910156 L 25.464844 11.910156 L 23.503906 22.539062 L 24.820312 22.539062 C 24.875 22.257812 24.972656 21.992188 25.105469 21.738281 C 25.449219 21.074219 25.976562 20.621094 26.6875 20.378906 C 27.382812 20.132812 28.0625 20.183594 28.714844 20.527344 C 29.09375 20.730469 29.398438 21.011719 29.636719 21.367188 C 29.871094 21.722656 30.011719 22.113281 30.054688 22.539062 L 31.933594 22.539062 L 33.488281 16.28125 Z M 26.105469 15.710938 L 26.601562 13.015625 L 29.867188 13.015625 L 31.648438 15.707031 Z M 26.105469 15.710938 " fill-opacity="1" fill-rule="nonzero"/></g><g clip-path="url(#bb496c1e35)"><path fill="#ffffff" d="M 28.320312 21.285156 C 28.074219 21.15625 27.8125 21.09375 27.535156 21.09375 C 27.339844 21.089844 27.148438 21.121094 26.964844 21.1875 C 26.46875 21.355469 26.097656 21.675781 25.855469 22.140625 C 25.765625 22.351562 25.714844 22.574219 25.707031 22.804688 C 25.703125 23.035156 25.742188 23.257812 25.820312 23.476562 C 25.902344 23.691406 26.023438 23.886719 26.179688 24.054688 C 26.335938 24.226562 26.519531 24.359375 26.730469 24.457031 C 26.9375 24.554688 27.160156 24.613281 27.390625 24.625 C 27.621094 24.636719 27.847656 24.601562 28.066406 24.527344 C 28.285156 24.453125 28.480469 24.335938 28.65625 24.183594 C 28.828125 24.03125 28.96875 23.851562 29.070312 23.644531 C 29.175781 23.4375 29.234375 23.21875 29.253906 22.988281 C 29.269531 22.757812 29.246094 22.53125 29.175781 22.3125 C 29.105469 22.089844 28.996094 21.890625 28.847656 21.714844 C 28.699219 21.535156 28.523438 21.394531 28.320312 21.285156 Z M 28.320312 21.285156 " fill-opacity="1" fill-rule="nonzero"/></g><g clip-path="url(#f4a61817ee)"><path fill="#ffffff" d="M 14.292969 21.285156 C 14.050781 21.15625 13.789062 21.09375 13.511719 21.09375 C 13.316406 21.089844 13.125 21.121094 12.9375 21.1875 C 12.445312 21.355469 12.074219 21.675781 11.832031 22.140625 C 11.738281 22.351562 11.691406 22.574219 11.683594 22.804688 C 11.679688 23.035156 11.714844 23.257812 11.796875 23.476562 C 11.878906 23.691406 12 23.886719 12.15625 24.054688 C 12.3125 24.226562 12.496094 24.359375 12.707031 24.457031 C 12.914062 24.554688 13.136719 24.613281 13.367188 24.625 C 13.597656 24.636719 13.820312 24.601562 14.039062 24.527344 C 14.257812 24.453125 14.457031 24.335938 14.628906 24.183594 C 14.804688 24.03125 14.941406 23.851562 15.046875 23.644531 C 15.148438 23.4375 15.210938 23.21875 15.226562 22.988281 C 15.246094 22.757812 15.21875 22.53125 15.148438 22.3125 C 15.078125 22.089844 14.96875 21.890625 14.824219 21.714844 C 14.675781 21.535156 14.496094 21.394531 14.292969 21.285156 Z M 14.292969 21.285156 " fill-opacity="1" fill-rule="nonzero"/></g><g clip-path="url(#168d1a5b0d)"><path fill="#ffffff" d="M 9.089844 8.644531 L 8.722656 10.648438 L 10.011719 10.648438 C 10.128906 10.648438 10.230469 10.691406 10.3125 10.773438 C 10.398438 10.855469 10.4375 10.957031 10.4375 11.074219 C 10.4375 11.195312 10.398438 11.292969 10.3125 11.378906 C 10.230469 11.460938 10.128906 11.503906 10.011719 11.503906 L 8.5625 11.503906 L 8.242188 13.253906 L 11.65625 13.253906 C 11.773438 13.253906 11.875 13.296875 11.960938 13.378906 C 12.042969 13.464844 12.085938 13.5625 12.085938 13.683594 C 12.085938 13.800781 12.042969 13.902344 11.960938 13.984375 C 11.875 14.066406 11.773438 14.109375 11.65625 14.109375 L 8.085938 14.109375 L 7.792969 15.683594 L 10.203125 15.683594 C 10.324219 15.683594 10.421875 15.722656 10.507812 15.808594 C 10.589844 15.890625 10.632812 15.992188 10.632812 16.109375 C 10.632812 16.226562 10.589844 16.328125 10.507812 16.410156 C 10.421875 16.496094 10.324219 16.535156 10.203125 16.535156 L 7.640625 16.535156 L 7.386719 17.898438 L 8.683594 17.898438 C 8.800781 17.898438 8.902344 17.941406 8.984375 18.023438 C 9.070312 18.109375 9.109375 18.210938 9.109375 18.328125 C 9.109375 18.445312 9.070312 18.546875 8.984375 18.628906 C 8.902344 18.714844 8.800781 18.753906 8.683594 18.753906 L 7.234375 18.753906 L 6.542969 22.539062 L 10.792969 22.539062 C 10.851562 22.257812 10.945312 21.992188 11.082031 21.738281 C 11.425781 21.074219 11.953125 20.621094 12.660156 20.378906 C 13.359375 20.132812 14.039062 20.183594 14.695312 20.527344 C 15.070312 20.734375 15.375 21.011719 15.613281 21.371094 C 15.847656 21.726562 15.988281 22.117188 16.03125 22.539062 L 22.636719 22.539062 L 25.1875 8.644531 Z M 9.089844 8.644531 " fill-opacity="1" fill-rule="nonzero"/></g><path fill="#ffffff" d="M 8.722656 10.648438 L 8.5625 11.503906 L 4.953125 11.503906 C 4.835938 11.503906 4.734375 11.460938 4.652344 11.378906 C 4.566406 11.292969 4.523438 11.195312 4.523438 11.074219 C 4.523438 10.957031 4.566406 10.855469 4.652344 10.773438 C 4.734375 10.691406 4.835938 10.648438 4.953125 10.648438 Z M 8.722656 10.648438 " fill-opacity="1" fill-rule="nonzero"/><path fill="#ffffff" d="M 8.242188 13.253906 L 8.085938 14.109375 L 0.40625 14.109375 C 0.289062 14.109375 0.1875 14.066406 0.105469 13.984375 C 0.0195312 13.902344 -0.0195312 13.800781 -0.0195312 13.683594 C -0.0195312 13.5625 0.0195312 13.464844 0.105469 13.378906 C 0.1875 13.296875 0.289062 13.253906 0.40625 13.253906 Z M 8.242188 13.253906 " fill-opacity="1" fill-rule="nonzero"/><path fill="#ffffff" d="M 7.792969 15.683594 L 7.640625 16.535156 L 2.269531 16.535156 C 2.152344 16.535156 2.050781 16.496094 1.96875 16.410156 C 1.882812 16.328125 1.839844 16.226562 1.839844 16.109375 C 1.839844 15.992188 1.882812 15.890625 1.96875 15.808594 C 2.050781 15.722656 2.152344 15.683594 2.269531 15.683594 Z M 7.792969 15.683594 " fill-opacity="1" fill-rule="nonzero"/><path fill="#ffffff" d="M 7.386719 17.898438 L 7.308594 18.34375 C 7.304688 18.363281 7.304688 18.382812 7.296875 18.402344 L 7.234375 18.753906 L 4.53125 18.753906 C 4.410156 18.753906 4.3125 18.714844 4.226562 18.628906 C 4.144531 18.546875 4.101562 18.445312 4.101562 18.328125 C 4.101562 18.210938 4.144531 18.109375 4.226562 18.023438 C 4.3125 17.941406 4.410156 17.898438 4.53125 17.898438 Z M 7.386719 17.898438 " fill-opacity="1" fill-rule="nonzero"/></svg>