<svg xmlns="http://www.w3.org/2000/svg" xmlns:xlink="http://www.w3.org/1999/xlink" width="45" zoomAndPan="magnify" viewBox="0 0 33.75 33.749998" height="45" preserveAspectRatio="xMidYMid meet" version="1.0"><defs><clipPath id="cfe1987169"><path d="M 0 0 L 33.5 0 L 33.5 33.5 L 0 33.5 Z M 0 0 " clip-rule="nonzero"/></clipPath></defs><g clip-path="url(#cfe1987169)"><path fill="#ffffff" d="M 32.761719 9.78125 L 30.175781 9.0625 C 30.554688 8.507812 30.773438 7.835938 30.773438 7.117188 C 30.773438 5.511719 28.484375 1.367188 28.03125 0.550781 C 27.722656 0 26.8125 0 26.503906 0.550781 C 26.046875 1.367188 23.761719 5.511719 23.761719 7.117188 C 23.761719 7.300781 23.789062 7.476562 23.8125 7.648438 C 19.117188 6.914062 14.382812 6.914062 9.6875 7.648438 C 9.710938 7.476562 9.738281 7.300781 9.738281 7.117188 C 9.738281 5.511719 7.453125 1.367188 6.996094 0.550781 C 6.6875 0 5.777344 0 5.472656 0.550781 C 5.015625 1.367188 2.726562 5.511719 2.726562 7.117188 C 2.726562 7.835938 2.945312 8.507812 3.324219 9.0625 L 0.738281 9.78125 C 0.292969 9.902344 0.0117188 10.367188 0.125 10.824219 L 3.304688 24.371094 C 3.585938 25.5625 4.648438 26.398438 5.863281 26.398438 L 9.011719 26.398438 L 10.421875 29.027344 C 10 29.492188 9.738281 30.105469 9.738281 30.777344 C 9.738281 32.226562 10.921875 33.40625 12.367188 33.40625 C 13.8125 33.40625 14.996094 32.226562 14.996094 30.777344 C 14.996094 29.332031 13.8125 28.148438 12.367188 28.148438 C 12.226562 28.148438 12.097656 28.167969 11.964844 28.191406 L 11 26.398438 L 27.636719 26.398438 C 28.851562 26.398438 29.914062 25.5625 30.195312 24.371094 L 33.375 10.824219 C 33.488281 10.367188 33.210938 9.902344 32.761719 9.78125 Z M 12.367188 29.902344 C 12.851562 29.902344 13.246094 30.296875 13.246094 30.777344 C 13.246094 31.261719 12.851562 31.65625 12.367188 31.65625 C 11.886719 31.65625 11.492188 31.261719 11.492188 30.777344 C 11.492188 30.296875 11.886719 29.902344 12.367188 29.902344 Z M 27.265625 2.828125 C 28.203125 4.652344 29.019531 6.519531 29.019531 7.117188 C 29.019531 8.078125 28.230469 8.867188 27.265625 8.867188 C 26.304688 8.867188 25.515625 8.078125 25.515625 7.117188 C 25.515625 6.519531 26.328125 4.652344 27.265625 2.828125 Z M 6.234375 2.828125 C 7.171875 4.652344 7.984375 6.519531 7.984375 7.117188 C 7.984375 8.078125 7.195312 8.867188 6.234375 8.867188 C 5.269531 8.867188 4.480469 8.078125 4.480469 7.117188 C 4.480469 6.519531 5.296875 4.652344 6.234375 2.828125 Z M 28.484375 23.96875 C 28.390625 24.363281 28.039062 24.644531 27.636719 24.644531 L 10.054688 24.644531 L 7.003906 18.972656 C 6.777344 18.542969 6.242188 18.386719 5.820312 18.613281 C 5.390625 18.84375 5.234375 19.375 5.460938 19.796875 L 8.066406 24.644531 L 5.863281 24.644531 C 5.460938 24.644531 5.113281 24.363281 5.015625 23.96875 L 2.019531 11.242188 L 5.058594 10.402344 C 5.425781 10.535156 5.820312 10.621094 6.234375 10.621094 C 7.207031 10.621094 8.082031 10.226562 8.714844 9.585938 C 11.089844 9.148438 13.480469 8.914062 15.875 8.859375 L 15.875 10.621094 L 14.121094 10.621094 C 13.640625 10.621094 13.246094 11.015625 13.246094 11.496094 C 13.246094 11.980469 13.640625 12.375 14.121094 12.375 L 19.378906 12.375 C 19.859375 12.375 20.253906 11.980469 20.253906 11.496094 C 20.253906 11.015625 19.859375 10.621094 19.378906 10.621094 L 17.625 10.621094 L 17.625 8.859375 C 20.019531 8.914062 22.410156 9.148438 24.785156 9.585938 C 25.417969 10.226562 26.292969 10.621094 27.265625 10.621094 C 27.679688 10.621094 28.074219 10.535156 28.441406 10.402344 C 28.527344 10.429688 28.617188 10.445312 28.714844 10.472656 L 31.484375 11.242188 Z M 28.484375 23.96875 " fill-opacity="1" fill-rule="nonzero"/></g><path fill="#ffffff" d="M 27.265625 17.632812 L 22.886719 17.632812 C 22.402344 17.632812 22.007812 18.023438 22.007812 18.507812 C 22.007812 18.992188 22.402344 19.386719 22.886719 19.386719 L 27.265625 19.386719 C 27.75 19.386719 28.144531 18.992188 28.144531 18.507812 C 28.144531 18.023438 27.75 17.632812 27.265625 17.632812 Z M 27.265625 17.632812 " fill-opacity="1" fill-rule="nonzero"/><path fill="#ffffff" d="M 26.390625 21.136719 L 21.132812 21.136719 C 20.648438 21.136719 20.253906 21.53125 20.253906 22.015625 C 20.253906 22.5 20.648438 22.890625 21.132812 22.890625 L 26.390625 22.890625 C 26.875 22.890625 27.265625 22.5 27.265625 22.015625 C 27.265625 21.53125 26.875 21.136719 26.390625 21.136719 Z M 26.390625 21.136719 " fill-opacity="1" fill-rule="nonzero"/></svg>